<svg xmlns="http://www.w3.org/2000/svg" width="90" height="16" viewBox="0 0 90 16">
  <metadata><?xpacket begin="﻿" id="W5M0MpCehiHzreSzNTczkc9d"?>
<x:xmpmeta xmlns:x="adobe:ns:meta/" x:xmptk="Adobe XMP Core 5.6-c140 79.160451, 2017/05/06-01:08:21        ">
   <rdf:RDF xmlns:rdf="http://www.w3.org/1999/02/22-rdf-syntax-ns#">
      <rdf:Description rdf:about=""/>
   </rdf:RDF>
</x:xmpmeta>





















<?xpacket end="w"?></metadata>
<defs>
    <style>
      .cls-1 {
        fill: #000;
        fill-rule: evenodd;
      }
    </style>
  </defs>
  <path id="dodai" class="cls-1" d="M1067,3871h2v2h-2v-2Zm0-2h2v2h-2v-2Zm2,0h2v2h-2v-2Zm0-2h2v2h-2v-2Zm2,0h2v2h-2v-2Zm2,0h2v2h-2v-2Zm2,0h2v2h-2v-2Zm2,0h2v2h-2v-2Zm2,0h2v2h-2v-2Zm2,0h2v2h-2v-2Zm-16,6h2v2h-2v-2Zm0,2h2v2h-2v-2Zm6-6h2v2h-2v-2Zm2,0h2v2h-2v-2Zm2,0h2v2h-2v-2Zm2,0h2v2h-2v-2Zm2,0h2v2h-2v-2Zm2,0h2v2h-2v-2Zm-12,4h2v2h-2v-2Zm0-2h2v2h-2v-2Zm2,0h2v2h-2v-2Zm2,0h2v2h-2v-2Zm2,0h2v2h-2v-2Zm2,0h2v2h-2v-2Zm2,0h2v2h-2v-2Zm2,0h2v2h-2v-2Zm-10,2h2v2h-2v-2Zm2,0h2v2h-2v-2Zm2,0h2v2h-2v-2Zm2,0h2v2h-2v-2Zm2,0h2v2h-2v-2Zm2,0h2v2h-2v-2Zm-14,0h2v2h-2v-2Zm0,2h2v2h-2v-2Zm2,0h2v2h-2v-2Zm2,0h2v2h-2v-2Zm2,0h2v2h-2v-2Zm2,0h2v2h-2v-2Zm2,0h2v2h-2v-2Zm2,0h2v2h-2v-2Zm2,0h2v2h-2v-2Zm18-4h2v2h-2v-2Zm0-2h2v2h-2v-2Zm-2,0h2v2h-2v-2Zm0-2h2v2h-2v-2Zm-2,0h2v2h-2v-2Zm-2,0h2v2h-2v-2Zm-2,0h2v2h-2v-2Zm-2,0h2v2h-2v-2Zm-2,0h2v2h-2v-2Zm-2,0h2v2h-2v-2Zm16,6h2v2h-2v-2Zm0,2h2v2h-2v-2Zm-6-6h2v2h-2v-2Zm-2,0h2v2h-2v-2Zm-2,0h2v2h-2v-2Zm-2,0h2v2h-2v-2Zm-2,0h2v2h-2v-2Zm-2,0h2v2h-2v-2Zm12,4h2v2h-2v-2Zm0-2h2v2h-2v-2Zm-2,0h2v2h-2v-2Zm-2,0h2v2h-2v-2Zm-2,0h2v2h-2v-2Zm-2,0h2v2h-2v-2Zm-2,0h2v2h-2v-2Zm-2,0h2v2h-2v-2Zm10,2h2v2h-2v-2Zm-2,0h2v2h-2v-2Zm-2,0h2v2h-2v-2Zm-2,0h2v2h-2v-2Zm-2,0h2v2h-2v-2Zm-2,0h2v2h-2v-2Zm14,0h2v2h-2v-2Zm0,2h2v2h-2v-2Zm-2,0h2v2h-2v-2Zm-2,0h2v2h-2v-2Zm-2,0h2v2h-2v-2Zm-2,0h2v2h-2v-2Zm-2,0h2v2h-2v-2Zm-2,0h2v2h-2v-2Zm-2,0h2v2h-2v-2Zm-2-8h2v2h-2v-2Zm0,2h2v2h-2v-2Zm0,2h2v2h-2v-2Zm0,2h2v2h-2v-2Zm0,2h2v2h-2v-2Zm-36-2h2v2h-2v-2Zm0,2h2v2h-2v-2Zm4-2h2v2h-2v-2Zm2,0h2v2h-2v-2Zm2,0h2v2h-2v-2Zm2,0h2v2h-2v-2Zm2,0h2v2h-2v-2Zm2,0h2v2h-2v-2Zm2,0h2v2h-2v-2Zm-14,0h2v2h-2v-2Zm0,2h2v2h-2v-2Zm2,0h2v2h-2v-2Zm2,0h2v2h-2v-2Zm2,0h2v2h-2v-2Zm2,0h2v2h-2v-2Zm2,0h2v2h-2v-2Zm2,0h2v2h-2v-2Zm2,0h2v2h-2v-2Zm-20-2h2v2h-2v-2Zm0,2h2v2h-2v-2Zm2-2h2v2h-2v-2Zm0,2h2v2h-2v-2Zm-6-2h2v2h-2v-2Zm0,2h2v2h-2v-2Zm2-2h2v2h-2v-2Zm0,2h2v2h-2v-2Zm0-4h2v2h-2v-2Zm2,0h2v2h-2v-2Zm0-2h2v2h-2v-2Zm2,2h2v2h-2v-2Zm-2-4h2v2h-2v-2Zm2,2h2v2h-2v-2Zm0-2h2v2h-2v-2Zm2,0h2v2h-2v-2Zm0-2h2v2h-2v-2Zm-2,0h2v2h-2v-2Zm2-2h2v2h-2v-2Zm0-2h2v2h-2v-2Zm-2,2h2v2h-2v-2Zm74,10h2v2h-2v-2Zm0,2h2v2h-2v-2Zm-4-2h2v2h-2v-2Zm-2,0h2v2h-2v-2Zm-2,0h2v2h-2v-2Zm-2,0h2v2h-2v-2Zm-2,0h2v2h-2v-2Zm-2,0h2v2h-2v-2Zm-2,0h2v2h-2v-2Zm14,0h2v2h-2v-2Zm0,2h2v2h-2v-2Zm-2,0h2v2h-2v-2Zm-2,0h2v2h-2v-2Zm-2,0h2v2h-2v-2Zm-2,0h2v2h-2v-2Zm-2,0h2v2h-2v-2Zm-2,0h2v2h-2v-2Zm-2,0h2v2h-2v-2Zm20-2h2v2h-2v-2Zm0,2h2v2h-2v-2Zm-2-2h2v2h-2v-2Zm0,2h2v2h-2v-2Zm6-2h2v2h-2v-2Zm0,2h2v2h-2v-2Zm-2-2h2v2h-2v-2Zm0,2h2v2h-2v-2Zm0-4h2v2h-2v-2Zm-2,0h2v2h-2v-2Zm0-2h2v2h-2v-2Zm-2,2h2v2h-2v-2Zm2-4h2v2h-2v-2Zm-2,2h2v2h-2v-2Zm0-2h2v2h-2v-2Zm-2,0h2v2h-2v-2Zm0-2h2v2h-2v-2Zm2,0h2v2h-2v-2Zm-2-2h2v2h-2v-2Zm0-2h2v2h-2v-2Zm2,2h2v2h-2v-2Z" transform="translate(-1039 -3861)"/>
</svg>
