<?xml version="1.0" encoding="UTF-8"?>
<svg width="106px" height="176px" viewBox="0 0 106 176" version="1.1" xmlns="http://www.w3.org/2000/svg" xmlns:xlink="http://www.w3.org/1999/xlink">
    <!-- Generator: Sketch 48.2 (47327) - http://www.bohemiancoding.com/sketch -->
    <title>Group 4</title>
    <desc>Created with Sketch.</desc>
    <defs></defs>
    <g id="Artboard" stroke="none" stroke-width="1" fill="none" fill-rule="evenodd" transform="translate(-911.000000, -1756.000000)">
        <g id="サイズ" transform="translate(0.000000, 1545.000000)" fill="#000000">
            <g id="シンボルロゴ2" transform="translate(820.000000, 209.000000)">
                <g id="Group-4" transform="translate(91.000000, 2.000000)">
                    <g id="Symbol-Logo2" transform="translate(13.000000, 58.000000)" fill-rule="nonzero">
                        <rect id="1" x="0" y="0" width="25.6" height="19.2"></rect>
                        <rect id="2" x="0" y="22.4" width="25.6" height="57.6"></rect>
                        <rect id="3" x="28.8" y="0" width="51.2" height="51.2"></rect>
                        <rect id="4" x="28.8" y="54.4" width="51.2" height="25.6"></rect>
                    </g>
                    <path d="M1.24007387,2.62142198 L1.85226223,1.66389658 C3.39058172,2.29178209 4.41089566,2.80978763 5.74515235,3.64173592 L5.10156971,4.69344414 C4.01846722,3.89289012 2.38596491,3.01385042 1.24007387,2.62142198 Z M0,6.37303786 L0.627885503,5.41551247 C2.11911357,6.02770083 3.24930748,6.60849492 4.61495845,7.47183749 L4.00277008,8.52354571 C2.85687904,7.69159741 1.42843952,6.90674054 0,6.37303786 Z M0.533702678,13.8919668 L0.219759926,12.5891043 C1.24007387,12.5891043 2.87257618,12.212373 4.44228994,11.6158818 C6.388735,10.8781163 7.87996307,9.76361958 9.15143121,8.11542013 C10.0304709,6.96952909 10.5484765,5.98060942 11.0350877,4.59926131 C11.4275162,5.00738689 11.5844875,5.14866113 12.0083102,5.4312096 C10.6426593,8.69621422 8.72760849,10.8310249 5.96491228,12.1966759 C4.86611265,12.7460757 3.28070175,13.2797784 1.99353647,13.5466297 C1.74238227,13.5937211 1.4598338,13.6565097 1.14589104,13.7192982 C0.831948292,13.7820868 0.769159741,13.8134811 0.533702678,13.8919668 Z M15.8855032,3.48476454 L16.654663,2.63711911 C18.3342567,3.70452447 19.3074792,4.47368421 20.4376731,5.58818098 L19.621422,6.56140351 C18.4912281,5.33702678 17.2511542,4.31671283 15.8855032,3.48476454 Z M15.9953832,13.687904 L15.6500462,12.3693444 C16.8744229,12.322253 18.7580794,11.8356417 20.2179132,11.1606648 C23.2474608,9.81071099 25.3508772,7.50323176 26.6223453,4.1754386 C26.9833795,4.66204986 27.1403509,4.8033241 27.5798707,5.10156971 C26.3240997,7.83287165 24.8642659,9.66943675 22.7922438,11.0978763 C21.1754386,12.1966759 19.5586334,12.8402585 16.9372114,13.4367498 C16.5133887,13.5309326 16.3878116,13.5623269 15.9953832,13.687904 Z M36.3074792,3.95567867 L36.3074792,2.90397045 C36.3074792,1.94644506 36.2917821,1.66389658 36.2132964,1.30286242 L37.5004617,1.30286242 C37.4376731,1.67959372 37.421976,1.9621422 37.421976,2.93536473 L37.421976,3.95567867 L41.3776547,3.95567867 C42.3979686,3.95567867 42.7119114,3.93998153 43.2142198,3.86149584 L43.2142198,5.0544783 C42.7276085,4.99168975 42.4136657,4.97599261 41.4090489,4.97599261 L37.421976,4.97599261 L37.421976,12.7931671 C37.421976,13.7506925 37.4376731,14.0960295 37.5004617,14.4570637 L36.2132964,14.4570637 C36.2760849,14.0960295 36.3074792,13.7663897 36.3074792,12.8088643 L36.3074792,4.97599261 L32.4616805,4.97599261 C31.4570637,4.97599261 31.143121,4.99168975 30.6565097,5.0544783 L30.6565097,3.86149584 C31.1588181,3.93998153 31.4570637,3.95567867 32.4773777,3.95567867 L36.3074792,3.95567867 Z M32.9168975,6.42012927 L34.10988,6.74976916 C34.0470914,6.90674054 34.0470914,6.90674054 34.0156971,7.0166205 L33.9215143,7.33056325 L33.8430286,7.67590028 C33.2779317,9.76361958 32.3204063,11.6629732 31.0960295,13.0914127 C30.7349954,12.7617729 30.5466297,12.6518929 30.0600185,12.4164358 C30.9861496,11.521699 31.6925208,10.3444137 32.3674977,8.55493998 C32.6971376,7.67590028 32.8855032,6.93813481 32.9168975,6.42012927 Z M39.6195753,6.73407202 L40.7183749,6.43582641 C40.7968606,6.82825485 40.9381348,7.2677747 41.299169,8.20960295 C42.0369344,10.0461681 42.7590028,11.3019391 43.7322253,12.4164358 C43.2927054,12.6518929 43.1200369,12.77747 42.7433056,13.1542013 C41.644506,11.7100646 40.8125577,10.0461681 40.0120037,7.75438596 C39.8707295,7.33056325 39.7294552,6.98522622 39.6195753,6.73407202 Z M40.388735,1.02031394 L41.1735919,0.612188366 C41.8328717,1.39704524 42.2566944,2.02493075 42.7746999,2.98245614 L41.9741459,3.43767313 C41.5032318,2.51154201 40.8125577,1.47553093 40.388735,1.02031394 Z M42.3508772,0.470914127 L43.1200369,0.0313942752 C43.8264081,0.91043398 44.2188366,1.49122807 44.7368421,2.48014774 L43.9519852,2.93536473 C43.6066482,2.18190212 42.9630656,1.17728532 42.3508772,0.470914127 Z M49.0535549,1.77377655 L50.3564174,1.85226223 C50.2936288,2.24469067 50.2936288,2.24469067 50.2622345,3.20221607 C50.1366574,7.45614035 50.0110803,8.61772853 49.4145891,10.2031394 C48.8808864,11.6629732 48.1274238,12.7146814 46.6989843,14.0803324 C46.3850416,13.6722068 46.2280702,13.5309326 45.757156,13.232687 C47.0443213,12.212373 47.8919668,11.0821791 48.4099723,9.62234534 C48.8965836,8.25669437 49.1163435,6.20036934 49.1163435,2.88827331 C49.1163435,2.32317636 49.1006464,2.13481071 49.0535549,1.77377655 Z M52.9621422,1.66389658 L54.2493075,1.67959372 C54.1708218,2.05632502 54.1551247,2.3388735 54.1551247,3.06094183 L54.0609418,12.5420129 C55.3638042,12.0554017 56.1643583,11.5530933 56.9806094,10.721145 C57.843952,9.82640813 58.4561404,8.79039705 58.8328717,7.58171745 C59.1625115,8.00554017 59.2880886,8.1468144 59.7119114,8.49215143 C58.9427516,10.2973223 57.9067405,11.6001847 56.5567867,12.5263158 C55.8661127,12.9972299 55.2382271,13.3111727 54.312096,13.6722068 C54.0295476,13.7820868 54.0295476,13.7820868 53.8097876,13.8605725 C53.621422,13.9390582 53.5900277,13.9547553 53.4487535,14.033241 L52.820868,13.3111727 C52.9150508,13.0443213 52.9307479,12.9187442 52.9307479,12.2437673 L53.0249307,3.06094183 C53.0249307,2.04062789 53.0249307,2.04062789 52.9621422,1.66389658 Z M72.5835642,12.4478301 L64.1698984,12.4478301 L64.1698984,13.5623269 L62.9612188,13.5623269 C63.0083102,13.2169898 63.0240074,12.9030471 63.0240074,12.3850416 L63.0240074,3.86149584 C63.0240074,3.2179132 63.0083102,3.01385042 62.9612188,2.63711911 C63.2751616,2.66851339 63.5734072,2.68421053 64.1855956,2.68421053 L72.5521699,2.68421053 C73.2271468,2.68421053 73.4155125,2.68421053 73.7765466,2.63711911 C73.7294552,3.01385042 73.7294552,3.2179132 73.7294552,3.86149584 L73.7294552,12.3536473 C73.7294552,12.8245614 73.7451524,13.232687 73.7765466,13.5623269 L72.5835642,13.5623269 L72.5835642,12.4478301 Z M72.5835642,11.4275162 L72.5835642,3.72022161 L64.1698984,3.72022161 L64.1698984,11.4275162 L72.5835642,11.4275162 Z M87.5586334,12.6832872 L80.0554017,12.6832872 L79.3333333,12.6989843 C78.7996307,12.6989843 78.7525392,12.7146814 78.3758079,12.7617729 L78.3758079,11.5060018 C78.8624192,11.6001847 79.0978763,11.6158818 80.0867959,11.6158818 L87.5586334,11.6158818 L87.5586334,4.0498615 L80.4164358,4.0498615 C79.3961219,4.0498615 79.1135734,4.06555863 78.611265,4.12834718 L78.611265,2.87257618 C79.1135734,2.966759 79.3804247,2.98245614 80.4164358,2.98245614 L87.4958449,2.98245614 C88.1551247,2.966759 88.5632502,2.95106187 88.7359187,2.95106187 L88.7359187,12.1966759 C88.7516159,13.2169898 88.767313,13.3582641 88.8144044,13.6408126 L87.5586334,13.6408126 L87.5586334,12.6832872 Z M87.6999077,1.25577101 L88.4847645,0.847645429 C89.1754386,1.69529086 89.6149584,2.35457064 90.0858726,3.28070175 L89.3010157,3.75161588 C88.8457987,2.79409049 88.2650046,1.88365651 87.6999077,1.25577101 Z M89.4736842,0.423822715 L90.242844,0 C90.9649123,0.863342567 91.3416436,1.44413666 91.8753463,2.43305633 L91.0904894,2.88827331 C90.7451524,2.15050785 90.0858726,1.13019391 89.4736842,0.423822715 Z M97.5835705,5.12708523 C97.5835705,4.06457991 97.9446509,3.1902397 98.6668224,2.50403835 C99.388994,1.817837 100.306221,1.47474148 101.418531,1.47474148 C102.492104,1.47474148 103.39273,1.79708526 104.120436,2.44178249 C104.848141,3.08647973 105.211988,3.88473021 105.211988,4.83655788 C105.211988,5.45635265 105.03629,6.06783742 104.684889,6.67103054 C104.333487,7.27422366 103.665281,8.10429348 102.68025,9.16126491 L99.7998791,12.2574563 L99.7998791,12.3902688 L105.411207,12.3902688 L105.411207,13.7349954 L97.6582775,13.7349954 L97.6582775,12.7056985 L101.800367,8.18177273 C102.575111,7.34062269 103.088371,6.70285237 103.340162,6.26844265 C103.591954,5.83403292 103.717848,5.37611107 103.717848,4.89466335 C103.717848,4.29700411 103.492346,3.79481187 103.041334,3.38807156 C102.590323,2.98133124 102.035559,2.77796413 101.377028,2.77796413 C100.674225,2.77796413 100.10701,2.99239884 99.6753674,3.42127468 C99.2437246,3.85015052 99.0279064,4.41874835 99.0279064,5.12708523 L99.0279064,5.13538601 L97.5835705,5.13538601 L97.5835705,5.12708523 Z" id="シンボルロゴ-2"></path>
                    <text id="80px" font-family=".AppleSystemUIFont" font-size="11" font-weight="normal">
                        <tspan x="38" y="174">80px</tspan>
                    </text>
                </g>
            </g>
        </g>
    </g>
</svg>