<?xml version="1.0" encoding="UTF-8"?>
<svg width="871px" height="187px" viewBox="0 0 871 187" version="1.1" xmlns="http://www.w3.org/2000/svg" xmlns:xlink="http://www.w3.org/1999/xlink">
    <!-- Generator: Sketch 48.2 (47327) - http://www.bohemiancoding.com/sketch -->
    <title>Group 3</title>
    <desc>Created with Sketch.</desc>
    <defs>
        <rect id="path-1" x="13" y="0" width="5" height="80"></rect>
        <filter x="-10.0%" y="-0.6%" width="120.0%" height="101.2%" filterUnits="objectBoundingBox" id="filter-2">
            <feOffset dx="1" dy="-1" in="SourceAlpha" result="shadowOffsetInner1"></feOffset>
            <feComposite in="shadowOffsetInner1" in2="SourceAlpha" operator="arithmetic" k2="-1" k3="1" result="shadowInnerInner1"></feComposite>
            <feColorMatrix values="0 0 0 0 0.592156863   0 0 0 0 0.592156863   0 0 0 0 0.592156863  0 0 0 1 0" type="matrix" in="shadowInnerInner1" result="shadowMatrixInner1"></feColorMatrix>
            <feOffset dx="0" dy="1" in="SourceAlpha" result="shadowOffsetInner2"></feOffset>
            <feComposite in="shadowOffsetInner2" in2="SourceAlpha" operator="arithmetic" k2="-1" k3="1" result="shadowInnerInner2"></feComposite>
            <feColorMatrix values="0 0 0 0 0.592156863   0 0 0 0 0.592156863   0 0 0 0 0.592156863  0 0 0 1 0" type="matrix" in="shadowInnerInner2" result="shadowMatrixInner2"></feColorMatrix>
            <feMerge>
                <feMergeNode in="shadowMatrixInner1"></feMergeNode>
                <feMergeNode in="shadowMatrixInner2"></feMergeNode>
            </feMerge>
        </filter>
        <rect id="path-3" x="31" y="0" width="5" height="40"></rect>
        <filter x="-10.0%" y="-1.2%" width="120.0%" height="102.5%" filterUnits="objectBoundingBox" id="filter-4">
            <feOffset dx="1" dy="-1" in="SourceAlpha" result="shadowOffsetInner1"></feOffset>
            <feComposite in="shadowOffsetInner1" in2="SourceAlpha" operator="arithmetic" k2="-1" k3="1" result="shadowInnerInner1"></feComposite>
            <feColorMatrix values="0 0 0 0 0.592156863   0 0 0 0 0.592156863   0 0 0 0 0.592156863  0 0 0 1 0" type="matrix" in="shadowInnerInner1" result="shadowMatrixInner1"></feColorMatrix>
            <feOffset dx="0" dy="1" in="SourceAlpha" result="shadowOffsetInner2"></feOffset>
            <feComposite in="shadowOffsetInner2" in2="SourceAlpha" operator="arithmetic" k2="-1" k3="1" result="shadowInnerInner2"></feComposite>
            <feColorMatrix values="0 0 0 0 0.592156863   0 0 0 0 0.592156863   0 0 0 0 0.592156863  0 0 0 1 0" type="matrix" in="shadowInnerInner2" result="shadowMatrixInner2"></feColorMatrix>
            <feMerge>
                <feMergeNode in="shadowMatrixInner1"></feMergeNode>
                <feMergeNode in="shadowMatrixInner2"></feMergeNode>
            </feMerge>
        </filter>
        <rect id="path-5" x="17.5" y="-17.5" width="5" height="40"></rect>
        <filter x="-10.0%" y="-1.2%" width="120.0%" height="102.5%" filterUnits="objectBoundingBox" id="filter-6">
            <feOffset dx="1" dy="-1" in="SourceAlpha" result="shadowOffsetInner1"></feOffset>
            <feComposite in="shadowOffsetInner1" in2="SourceAlpha" operator="arithmetic" k2="-1" k3="1" result="shadowInnerInner1"></feComposite>
            <feColorMatrix values="0 0 0 0 0.592156863   0 0 0 0 0.592156863   0 0 0 0 0.592156863  0 0 0 1 0" type="matrix" in="shadowInnerInner1" result="shadowMatrixInner1"></feColorMatrix>
            <feOffset dx="0" dy="1" in="SourceAlpha" result="shadowOffsetInner2"></feOffset>
            <feComposite in="shadowOffsetInner2" in2="SourceAlpha" operator="arithmetic" k2="-1" k3="1" result="shadowInnerInner2"></feComposite>
            <feColorMatrix values="0 0 0 0 0.592156863   0 0 0 0 0.592156863   0 0 0 0 0.592156863  0 0 0 1 0" type="matrix" in="shadowInnerInner2" result="shadowMatrixInner2"></feColorMatrix>
            <feMerge>
                <feMergeNode in="shadowMatrixInner1"></feMergeNode>
                <feMergeNode in="shadowMatrixInner2"></feMergeNode>
            </feMerge>
        </filter>
        <rect id="path-7" x="0" y="0" width="25" height="25"></rect>
        <filter x="-2.0%" y="-2.0%" width="104.0%" height="104.0%" filterUnits="objectBoundingBox" id="filter-8">
            <feOffset dx="-1" dy="-1" in="SourceAlpha" result="shadowOffsetInner1"></feOffset>
            <feComposite in="shadowOffsetInner1" in2="SourceAlpha" operator="arithmetic" k2="-1" k3="1" result="shadowInnerInner1"></feComposite>
            <feColorMatrix values="0 0 0 0 0.592156863   0 0 0 0 0.592156863   0 0 0 0 0.592156863  0 0 0 1 0" type="matrix" in="shadowInnerInner1"></feColorMatrix>
        </filter>
        <rect id="path-9" x="0" y="0" width="25" height="25"></rect>
        <filter x="-2.0%" y="-2.0%" width="104.0%" height="104.0%" filterUnits="objectBoundingBox" id="filter-10">
            <feOffset dx="-1" dy="-1" in="SourceAlpha" result="shadowOffsetInner1"></feOffset>
            <feComposite in="shadowOffsetInner1" in2="SourceAlpha" operator="arithmetic" k2="-1" k3="1" result="shadowInnerInner1"></feComposite>
            <feColorMatrix values="0 0 0 0 0.592156863   0 0 0 0 0.592156863   0 0 0 0 0.592156863  0 0 0 1 0" type="matrix" in="shadowInnerInner1"></feColorMatrix>
        </filter>
        <rect id="path-11" x="0" y="0" width="25" height="25"></rect>
        <filter x="-2.0%" y="-2.0%" width="104.0%" height="104.0%" filterUnits="objectBoundingBox" id="filter-12">
            <feOffset dx="-1" dy="-1" in="SourceAlpha" result="shadowOffsetInner1"></feOffset>
            <feComposite in="shadowOffsetInner1" in2="SourceAlpha" operator="arithmetic" k2="-1" k3="1" result="shadowInnerInner1"></feComposite>
            <feColorMatrix values="0 0 0 0 0.592156863   0 0 0 0 0.592156863   0 0 0 0 0.592156863  0 0 0 1 0" type="matrix" in="shadowInnerInner1"></feColorMatrix>
        </filter>
        <rect id="path-13" x="0" y="0" width="25" height="25"></rect>
        <filter x="-2.0%" y="-2.0%" width="104.0%" height="104.0%" filterUnits="objectBoundingBox" id="filter-14">
            <feOffset dx="-1" dy="-1" in="SourceAlpha" result="shadowOffsetInner1"></feOffset>
            <feComposite in="shadowOffsetInner1" in2="SourceAlpha" operator="arithmetic" k2="-1" k3="1" result="shadowInnerInner1"></feComposite>
            <feColorMatrix values="0 0 0 0 0.592156863   0 0 0 0 0.592156863   0 0 0 0 0.592156863  0 0 0 1 0" type="matrix" in="shadowInnerInner1"></feColorMatrix>
        </filter>
        <rect id="path-15" x="13" y="0.5" width="7" height="24"></rect>
        <filter x="-7.1%" y="-2.1%" width="114.3%" height="104.2%" filterUnits="objectBoundingBox" id="filter-16">
            <feOffset dx="1" dy="1" in="SourceAlpha" result="shadowOffsetInner1"></feOffset>
            <feComposite in="shadowOffsetInner1" in2="SourceAlpha" operator="arithmetic" k2="-1" k3="1" result="shadowInnerInner1"></feComposite>
            <feColorMatrix values="0 0 0 0 0.592156863   0 0 0 0 0.592156863   0 0 0 0 0.592156863  0 0 0 1 0" type="matrix" in="shadowInnerInner1" result="shadowMatrixInner1"></feColorMatrix>
            <feOffset dx="0" dy="-1" in="SourceAlpha" result="shadowOffsetInner2"></feOffset>
            <feComposite in="shadowOffsetInner2" in2="SourceAlpha" operator="arithmetic" k2="-1" k3="1" result="shadowInnerInner2"></feComposite>
            <feColorMatrix values="0 0 0 0 0.592156863   0 0 0 0 0.592156863   0 0 0 0 0.592156863  0 0 0 1 0" type="matrix" in="shadowInnerInner2" result="shadowMatrixInner2"></feColorMatrix>
            <feMerge>
                <feMergeNode in="shadowMatrixInner1"></feMergeNode>
                <feMergeNode in="shadowMatrixInner2"></feMergeNode>
            </feMerge>
        </filter>
        <rect id="path-17" x="0.5" y="0.5" width="32" height="32"></rect>
        <filter x="-0.8%" y="-0.8%" width="101.6%" height="101.6%" filterUnits="objectBoundingBox" id="filter-18">
            <feOffset dx="-0.5" dy="-0.5" in="SourceAlpha" result="shadowOffsetInner1"></feOffset>
            <feComposite in="shadowOffsetInner1" in2="SourceAlpha" operator="arithmetic" k2="-1" k3="1" result="shadowInnerInner1"></feComposite>
            <feColorMatrix values="0 0 0 0 0.592156863   0 0 0 0 0.592156863   0 0 0 0 0.592156863  0 0 0 1 0" type="matrix" in="shadowInnerInner1"></feColorMatrix>
        </filter>
        <rect id="path-19" x="0.5" y="0.5" width="32" height="32"></rect>
        <filter x="-0.8%" y="-0.8%" width="101.6%" height="101.6%" filterUnits="objectBoundingBox" id="filter-20">
            <feOffset dx="-0.5" dy="-0.5" in="SourceAlpha" result="shadowOffsetInner1"></feOffset>
            <feComposite in="shadowOffsetInner1" in2="SourceAlpha" operator="arithmetic" k2="-1" k3="1" result="shadowInnerInner1"></feComposite>
            <feColorMatrix values="0 0 0 0 0.592156863   0 0 0 0 0.592156863   0 0 0 0 0.592156863  0 0 0 1 0" type="matrix" in="shadowInnerInner1"></feColorMatrix>
        </filter>
        <rect id="path-21" x="0.5" y="0.5" width="32" height="32"></rect>
        <filter x="-0.8%" y="-0.8%" width="101.6%" height="101.6%" filterUnits="objectBoundingBox" id="filter-22">
            <feOffset dx="-0.5" dy="-0.5" in="SourceAlpha" result="shadowOffsetInner1"></feOffset>
            <feComposite in="shadowOffsetInner1" in2="SourceAlpha" operator="arithmetic" k2="-1" k3="1" result="shadowInnerInner1"></feComposite>
            <feColorMatrix values="0 0 0 0 0.592156863   0 0 0 0 0.592156863   0 0 0 0 0.592156863  0 0 0 1 0" type="matrix" in="shadowInnerInner1"></feColorMatrix>
        </filter>
        <rect id="path-23" x="0.5" y="0.5" width="32" height="32"></rect>
        <filter x="-0.8%" y="-0.8%" width="101.6%" height="101.6%" filterUnits="objectBoundingBox" id="filter-24">
            <feOffset dx="-0.5" dy="-0.5" in="SourceAlpha" result="shadowOffsetInner1"></feOffset>
            <feComposite in="shadowOffsetInner1" in2="SourceAlpha" operator="arithmetic" k2="-1" k3="1" result="shadowInnerInner1"></feComposite>
            <feColorMatrix values="0 0 0 0 0.592156863   0 0 0 0 0.592156863   0 0 0 0 0.592156863  0 0 0 1 0" type="matrix" in="shadowInnerInner1"></feColorMatrix>
        </filter>
        <rect id="path-25" x="13" y="0" width="4" height="32"></rect>
        <filter x="-6.2%" y="-0.8%" width="112.5%" height="101.6%" filterUnits="objectBoundingBox" id="filter-26">
            <feOffset dx="0.5" dy="0.5" in="SourceAlpha" result="shadowOffsetInner1"></feOffset>
            <feComposite in="shadowOffsetInner1" in2="SourceAlpha" operator="arithmetic" k2="-1" k3="1" result="shadowInnerInner1"></feComposite>
            <feColorMatrix values="0 0 0 0 0.592156863   0 0 0 0 0.592156863   0 0 0 0 0.592156863  0 0 0 1 0" type="matrix" in="shadowInnerInner1" result="shadowMatrixInner1"></feColorMatrix>
            <feOffset dx="0" dy="-0.5" in="SourceAlpha" result="shadowOffsetInner2"></feOffset>
            <feComposite in="shadowOffsetInner2" in2="SourceAlpha" operator="arithmetic" k2="-1" k3="1" result="shadowInnerInner2"></feComposite>
            <feColorMatrix values="0 0 0 0 0.592156863   0 0 0 0 0.592156863   0 0 0 0 0.592156863  0 0 0 1 0" type="matrix" in="shadowInnerInner2" result="shadowMatrixInner2"></feColorMatrix>
            <feMerge>
                <feMergeNode in="shadowMatrixInner1"></feMergeNode>
                <feMergeNode in="shadowMatrixInner2"></feMergeNode>
            </feMerge>
        </filter>
    </defs>
    <g id="Artboard" stroke="none" stroke-width="1" fill="none" fill-rule="evenodd" transform="translate(-200.000000, -3471.000000)">
        <g id="アイソレーション" transform="translate(160.000000, 3231.000000)">
            <g id="Group-3" transform="translate(0.000000, 207.000000)">
                <g id="シンボルロゴ2" transform="translate(660.000000, 0.000000)">
                    <rect id="base" x="0" y="0" width="300" height="250"></rect>
                    <g id="logo" transform="translate(49.000000, 33.000000)">
                        <rect id="border" fill="#D8D8D8" x="42" y="0" width="160" height="160"></rect>
                        <g id="Symbol-Logo2" transform="translate(82.000000, 40.000000)" fill="#000000" fill-rule="nonzero">
                            <rect id="1" x="0" y="0" width="25.6" height="19.2"></rect>
                            <rect id="2" x="0" y="22.4" width="25.6" height="57.6"></rect>
                            <rect id="3" x="28.8" y="0" width="51.2" height="51.2"></rect>
                            <rect id="4" x="28.8" y="54.4" width="51.2" height="25.6"></rect>
                        </g>
                        <g id="h" transform="translate(18.000000, 40.000000)">
                            <g id="Rectangle-14" fill="black" fill-opacity="1">
                                <use filter="url(#filter-2)" xlink:href="#path-1"></use>
                            </g>
                            <text font-family=".AppleSystemUIFont" font-size="12" font-weight="normal" fill="#000000">
                                <tspan x="0" y="44">h</tspan>
                            </text>
                        </g>
                        <g id="1/2h">
                            <g id="Rectangle-14" fill="black" fill-opacity="1">
                                <use filter="url(#filter-4)" xlink:href="#path-3"></use>
                            </g>
                            <text font-family=".AppleSystemUIFont" font-size="12" font-weight="normal" fill="#000000">
                                <tspan x="0" y="24">1/2h</tspan>
                            </text>
                        </g>
                        <g id="1/2h" transform="translate(42.000000, 163.000000)">
                            <g id="Rectangle-14" transform="translate(20.000000, 2.500000) rotate(-90.000000) translate(-20.000000, -2.500000) " fill="black" fill-opacity="1">
                                <use filter="url(#filter-6)" xlink:href="#path-5"></use>
                            </g>
                            <text font-family=".AppleSystemUIFont" font-size="12" font-weight="normal" fill="#000000">
                                <tspan x="7" y="22">1/2h</tspan>
                            </text>
                        </g>
                    </g>
                </g>
                <g id="シンボルロゴ1" transform="translate(340.000000, 0.000000)">
                    <rect id="base" x="0" y="0" width="300" height="250"></rect>
                    <g id="logo" transform="translate(57.000000, 65.000000)">
                        <rect id="border" stroke="#979797" x="47.5" y="24.5" width="115" height="71"></rect>
                        <rect id="outborder" stroke="#979797" x="23.5" y="0.5" width="163" height="119"></rect>
                        <g id="Symbol-Logo1" transform="translate(48.000000, 25.000000)" fill="#000000" fill-rule="nonzero">
                            <g id="Logo" transform="translate(39.000000, 0.000000)">
                                <rect id="1" x="0" y="0" width="11.2" height="8.4"></rect>
                                <rect id="2" x="0" y="9.8" width="11.2" height="25.2"></rect>
                                <rect id="3" x="12.6" y="0" width="22.4" height="22.4"></rect>
                                <rect id="4" x="12.6" y="23.8" width="22.4" height="11.2"></rect>
                            </g>
                            <g id="Text" transform="translate(0.000000, 46.000000)">
                                <path d="M5.876,23.6750061 L5.111,23.6750061 C5.021,23.6750061 5.012,23.6660061 5.012,23.5760061 C5.012,23.5220061 5.03,23.2790061 5.03,21.9740061 L5.03,21.2000061 C5.03,20.4260061 5.012,20.1650061 5.012,20.1110061 C5.012,20.0210061 5.021,20.0120061 5.111,20.0120061 C5.165,20.0120061 5.48,20.0300061 6.344,20.0300061 L9.224,20.0300061 C10.088,20.0300061 10.403,20.0120061 10.457,20.0120061 C10.556,20.0120061 10.565,20.0210061 10.565,20.1110061 C10.565,20.1650061 10.547,20.4260061 10.547,21.0650061 L10.547,21.9470061 C10.547,23.2430061 10.565,23.4860061 10.565,23.5310061 C10.565,23.6210061 10.556,23.6300061 10.457,23.6300061 L9.692,23.6300061 C9.602,23.6300061 9.593,23.6210061 9.593,23.5310061 L9.593,23.2340061 L5.984,23.2340061 L5.984,23.5760061 C5.984,23.6660061 5.975,23.6750061 5.876,23.6750061 Z M5.984,20.8490061 L5.984,22.4150061 L9.593,22.4150061 L9.593,20.8490061 L5.984,20.8490061 Z M5.966,19.0760061 L5.966,18.4280061 C5.444,18.8330061 4.886,19.1840061 4.301,19.4900061 C4.193,19.5440061 4.139,19.5800061 4.094,19.5800061 C4.031,19.5800061 3.995,19.5170061 3.923,19.3550061 C3.806,19.1120061 3.662,18.9140061 3.5,18.7520061 C5.156,18.0050061 6.227,17.0690061 6.965,15.9980061 C7.127,15.7640061 7.226,15.5930061 7.316,15.3590061 C7.667,15.4130061 8,15.4670061 8.261,15.5300061 C8.369,15.5660061 8.423,15.5930061 8.423,15.6740061 C8.423,15.7190061 8.405,15.7640061 8.333,15.8090061 C8.306,15.8270061 8.279,15.8450061 8.261,15.8720061 C9.332,17.2400061 10.583,18.0770061 12.104,18.6170061 C11.951,18.8060061 11.816,19.0490061 11.726,19.3010061 C11.672,19.4720061 11.636,19.5350061 11.564,19.5350061 C11.519,19.5350061 11.447,19.5080061 11.348,19.4540061 C10.709,19.1660061 10.124,18.8330061 9.593,18.4460061 L9.593,19.0760061 C9.593,19.1660061 9.584,19.1750061 9.494,19.1750061 C9.44,19.1750061 9.197,19.1570061 8.477,19.1570061 L7.082,19.1570061 C6.362,19.1570061 6.128,19.1750061 6.065,19.1750061 C5.975,19.1750061 5.966,19.1660061 5.966,19.0760061 Z M7.082,18.3200061 L8.477,18.3200061 C9.008,18.3200061 9.278,18.3110061 9.404,18.3110061 C8.756,17.8160061 8.207,17.2400061 7.748,16.6010061 C7.28,17.2490061 6.722,17.8070061 6.11,18.3020061 C6.218,18.3110061 6.47,18.3200061 7.082,18.3200061 Z M21.329,17.8520061 L21.329,21.0740061 C21.329,21.8570061 21.347,22.3250061 21.347,22.6310061 C21.338,22.9640061 21.248,23.1980061 21.059,23.3690061 C20.879,23.5130061 20.546,23.6120061 19.7,23.6120061 C19.421,23.6120061 19.421,23.6210061 19.358,23.3240061 C19.304,23.0810061 19.223,22.8200061 19.106,22.6130061 C19.502,22.6580061 19.835,22.6670061 20.024,22.6670061 C20.285,22.6670061 20.375,22.5770061 20.375,22.3610061 L20.375,16.7180061 L14.84,16.7180061 L14.84,21.9470061 C14.84,22.9910061 14.858,23.5220061 14.858,23.5760061 C14.858,23.6660061 14.849,23.6750061 14.75,23.6750061 L13.967,23.6750061 C13.877,23.6750061 13.868,23.6660061 13.868,23.5760061 C13.868,23.5130061 13.886,22.9190061 13.886,21.6950061 L13.886,17.8250061 C13.886,16.6010061 13.868,15.9890061 13.868,15.9260061 C13.868,15.8360061 13.877,15.8270061 13.967,15.8270061 C14.03,15.8270061 14.327,15.8450061 15.164,15.8450061 L20.051,15.8450061 C20.888,15.8450061 21.185,15.8270061 21.248,15.8270061 C21.338,15.8270061 21.347,15.8360061 21.347,15.9260061 C21.347,15.9890061 21.329,16.6280061 21.329,17.8520061 Z M16.622,22.4510061 L15.938,22.4510061 C15.848,22.4510061 15.839,22.4420061 15.839,22.3520061 C15.839,22.2890061 15.857,22.0640061 15.857,20.8400061 L15.857,20.1020061 C15.857,19.3910061 15.839,19.1570061 15.839,19.0940061 C15.839,19.0040061 15.848,18.9950061 15.938,18.9950061 C16.001,18.9950061 16.235,19.0130061 16.928,19.0130061 L18.215,19.0130061 C18.926,19.0130061 19.151,18.9950061 19.214,18.9950061 C19.304,18.9950061 19.313,19.0040061 19.313,19.0940061 C19.313,19.1480061 19.295,19.3820061 19.295,19.9400061 L19.295,20.6960061 C19.295,21.8930061 19.313,22.1090061 19.313,22.1630061 C19.313,22.2620061 19.304,22.2710061 19.214,22.2710061 L18.53,22.2710061 C18.44,22.2710061 18.431,22.2620061 18.431,22.1630061 L18.431,21.8750061 L16.721,21.8750061 L16.721,22.3520061 C16.721,22.4420061 16.712,22.4510061 16.622,22.4510061 Z M16.721,19.8050061 L16.721,21.0830061 L18.431,21.0830061 L18.431,19.8050061 L16.721,19.8050061 Z M18.53,18.2660061 L16.64,18.2660061 C15.848,18.2660061 15.578,18.2840061 15.515,18.2840061 C15.425,18.2840061 15.416,18.2750061 15.416,18.1760061 L15.416,17.5100061 C15.416,17.4200061 15.425,17.4110061 15.515,17.4110061 C15.578,17.4110061 15.848,17.4290061 16.64,17.4290061 L18.53,17.4290061 C19.322,17.4290061 19.601,17.4110061 19.655,17.4110061 C19.745,17.4110061 19.754,17.4200061 19.754,17.5100061 L19.754,18.1760061 C19.754,18.2750061 19.745,18.2840061 19.655,18.2840061 C19.601,18.2840061 19.322,18.2660061 18.53,18.2660061 Z M25.955,20.7590061 L25.019,20.7590061 C24.173,20.7590061 23.885,20.7770061 23.831,20.7770061 C23.732,20.7770061 23.723,20.7680061 23.723,20.6780061 L23.723,20.0030061 C23.723,19.9130061 23.732,19.9040061 23.831,19.9040061 C23.885,19.9040061 24.173,19.9220061 25.019,19.9220061 L29.816,19.9220061 C30.662,19.9220061 30.95,19.9040061 31.004,19.9040061 C31.103,19.9040061 31.112,19.9130061 31.112,20.0030061 L31.112,20.6780061 C31.112,20.7680061 31.103,20.7770061 31.004,20.7770061 C30.95,20.7770061 30.662,20.7590061 29.816,20.7590061 L27.035,20.7590061 C26.81,21.3170061 26.54,21.8840061 26.234,22.4510061 C27.17,22.3970061 28.151,22.3160061 29.006,22.2260061 C28.799,21.9740061 28.592,21.7220061 28.349,21.4610061 C28.286,21.3890061 28.295,21.3530061 28.403,21.2990061 L28.979,21.0020061 C29.078,20.9480061 29.105,20.9570061 29.168,21.0200061 C29.78,21.6590061 30.293,22.3070061 30.842,23.1080061 C30.887,23.1800061 30.887,23.2160061 30.797,23.2790061 L30.176,23.6840061 C30.122,23.7200061 30.095,23.7380061 30.068,23.7380061 C30.041,23.7380061 30.023,23.7200061 29.996,23.6750061 C29.843,23.4230061 29.69,23.1890061 29.546,22.9730061 C28.052,23.1620061 26.216,23.3150061 24.686,23.4320061 C24.542,23.4410061 24.425,23.4770061 24.362,23.5130061 C24.317,23.5490061 24.272,23.5670061 24.209,23.5670061 C24.146,23.5670061 24.101,23.5220061 24.083,23.4410061 C24.002,23.1440061 23.948,22.8290061 23.894,22.5140061 C24.227,22.5410061 24.524,22.5320061 24.875,22.5140061 C24.965,22.5140061 25.064,22.5050061 25.163,22.5050061 C25.487,21.8930061 25.748,21.3170061 25.955,20.7590061 Z M25.595,19.0040061 L25.595,18.3200061 C25.091,18.6890061 24.542,19.0130061 23.966,19.2920061 C23.858,19.3460061 23.795,19.3730061 23.75,19.3730061 C23.687,19.3730061 23.66,19.3100061 23.588,19.1480061 C23.48,18.9230061 23.354,18.7250061 23.183,18.5540061 C24.749,17.9330061 25.919,16.9790061 26.639,15.9350061 C26.792,15.7100061 26.873,15.5570061 26.954,15.3500061 C27.305,15.3950061 27.638,15.4580061 27.926,15.5390061 C28.034,15.5660061 28.088,15.6020061 28.088,15.6650061 C28.088,15.7190061 28.07,15.7730061 27.998,15.8090061 C27.944,15.8360061 27.908,15.8630061 27.872,15.8900061 C28.889,17.1320061 30.104,17.9150061 31.679,18.4640061 C31.508,18.6800061 31.391,18.8960061 31.292,19.1390061 C31.229,19.3010061 31.202,19.3640061 31.139,19.3640061 C31.094,19.3640061 31.031,19.3370061 30.932,19.2920061 C30.32,19.0220061 29.735,18.7070061 29.213,18.3380061 L29.213,19.0040061 C29.213,19.0940061 29.204,19.1030061 29.114,19.1030061 C29.06,19.1030061 28.817,19.0850061 28.097,19.0850061 L26.711,19.0850061 C25.991,19.0850061 25.748,19.1030061 25.694,19.1030061 C25.604,19.1030061 25.595,19.0940061 25.595,19.0040061 Z M26.711,18.2480061 L28.097,18.2480061 C28.7,18.2480061 28.97,18.2390061 29.069,18.2300061 C28.421,17.7620061 27.854,17.2130061 27.368,16.5830061 C26.891,17.2130061 26.342,17.7620061 25.721,18.2300061 C25.802,18.2390061 26.054,18.2480061 26.711,18.2480061 Z M40.004,23.3780061 L37.475,23.3780061 C36.62,23.3780061 36.323,23.3960061 36.269,23.3960061 C36.179,23.3960061 36.17,23.3870061 36.17,23.2970061 L36.17,22.5860061 C36.17,22.4960061 36.179,22.4870061 36.269,22.4870061 C36.323,22.4870061 36.62,22.5050061 37.475,22.5050061 L38.231,22.5050061 L38.231,19.1390061 L37.826,19.1390061 C37.025,19.1390061 36.746,19.1480061 36.692,19.1480061 C36.611,19.1480061 36.602,19.1480061 36.602,19.0580061 L36.602,18.3470061 C36.602,18.2570061 36.611,18.2570061 36.692,18.2570061 C36.746,18.2570061 37.025,18.2660061 37.826,18.2660061 L38.231,18.2660061 L38.231,16.8350061 C38.231,16.1960061 38.222,15.8900061 38.159,15.4760061 C38.501,15.4850061 38.843,15.5030061 39.158,15.5390061 C39.239,15.5480061 39.302,15.5840061 39.302,15.6290061 C39.302,15.7010061 39.293,15.7460061 39.257,15.8180061 C39.203,15.9260061 39.185,16.1510061 39.185,16.8080061 L39.185,18.2660061 L39.752,18.2660061 C40.553,18.2660061 40.832,18.2570061 40.886,18.2570061 C40.976,18.2570061 40.985,18.2570061 40.985,18.3470061 L40.985,19.0580061 C40.985,19.1480061 40.976,19.1480061 40.886,19.1480061 C40.832,19.1480061 40.553,19.1390061 39.752,19.1390061 L39.185,19.1390061 L39.185,22.5050061 L40.004,22.5050061 C40.859,22.5050061 41.147,22.4870061 41.201,22.4870061 C41.3,22.4870061 41.309,22.4960061 41.309,22.5860061 L41.309,23.2970061 C41.309,23.3870061 41.3,23.3960061 41.201,23.3960061 C41.147,23.3960061 40.859,23.3780061 40.004,23.3780061 Z M34.469,22.5590061 L34.469,20.4080061 C34.19,20.6780061 33.911,20.9300061 33.614,21.1550061 C33.524,21.2270061 33.47,21.2720061 33.425,21.2720061 C33.371,21.2720061 33.335,21.2000061 33.281,21.0650061 C33.191,20.8130061 33.083,20.5790061 32.966,20.4260061 C34.019,19.7600061 34.865,18.7880061 35.315,17.7620061 L34.298,17.7620061 C33.614,17.7620061 33.398,17.7800061 33.344,17.7800061 C33.254,17.7800061 33.245,17.7710061 33.245,17.6810061 L33.245,17.0150061 C33.245,16.9250061 33.254,16.9160061 33.344,16.9160061 C33.398,16.9160061 33.614,16.9340061 34.298,16.9340061 L34.469,16.9340061 L34.469,16.5650061 C34.469,16.0880061 34.46,15.8000061 34.397,15.4670061 C34.739,15.4760061 35.009,15.4940061 35.333,15.5300061 C35.423,15.5390061 35.477,15.5840061 35.477,15.6200061 C35.477,15.7010061 35.45,15.7460061 35.423,15.8090061 C35.369,15.9170061 35.369,16.0700061 35.369,16.5290061 L35.369,16.9340061 L35.747,16.9340061 C35.828,16.9340061 35.873,16.9250061 35.918,16.8980061 C35.954,16.8800061 35.99,16.8620061 36.017,16.8620061 C36.071,16.8620061 36.161,16.9160061 36.35,17.0960061 C36.521,17.2670061 36.593,17.3570061 36.593,17.4200061 C36.593,17.4650061 36.575,17.5100061 36.503,17.5640061 C36.422,17.6450061 36.368,17.6900061 36.296,17.8250061 C36.08,18.2840061 35.819,18.7250061 35.531,19.1390061 C35.882,19.5440061 36.305,19.8680061 36.854,20.1920061 C36.719,20.3360061 36.593,20.5520061 36.494,20.7770061 C36.431,20.9120061 36.386,20.9750061 36.323,20.9750061 C36.278,20.9750061 36.224,20.9390061 36.143,20.8670061 C35.855,20.6060061 35.594,20.3180061 35.369,20.0300061 L35.369,22.5590061 C35.369,23.2250061 35.387,23.5760061 35.387,23.6210061 C35.387,23.7110061 35.378,23.7200061 35.279,23.7200061 L34.559,23.7200061 C34.46,23.7200061 34.451,23.7110061 34.451,23.6210061 C34.451,23.5670061 34.469,23.2250061 34.469,22.5590061 Z M45.368,17.6990061 L45.368,18.9500061 C46.16,18.6890061 46.844,18.4280061 47.564,18.0770061 C48.05,17.8430061 48.275,17.6990061 48.527,17.4290061 C48.842,17.6900061 49.139,18.0590061 49.274,18.2390061 C49.382,18.3650061 49.373,18.5180061 49.193,18.5630061 C48.941,18.6260061 48.689,18.7520061 48.446,18.8600061 C47.555,19.2650061 46.547,19.6250061 45.359,19.9760061 L45.359,21.1730061 C45.359,21.5960061 45.422,21.7400061 45.656,21.8120061 C45.89,21.8750061 46.241,21.9110061 46.79,21.9110061 C47.636,21.9110061 48.392,21.8480061 49.328,21.7040061 C49.463,21.6860061 49.481,21.7220061 49.49,21.8300061 C49.517,22.0820061 49.544,22.4240061 49.544,22.6130061 C49.544,22.7300061 49.49,22.7660061 49.355,22.7750061 C48.338,22.9010061 47.816,22.9370061 46.682,22.9370061 C45.881,22.9370061 45.35,22.8560061 44.972,22.6940061 C44.522,22.5050061 44.333,22.0820061 44.333,21.3440061 L44.333,18.0230061 C44.333,17.1680061 44.315,16.8260061 44.243,16.3760061 C44.666,16.4210061 45.089,16.4750061 45.377,16.5560061 C45.575,16.6010061 45.539,16.7540061 45.458,16.8890061 C45.386,17.0330061 45.368,17.2760061 45.368,17.6990061 Z M50.129,15.9800061 C50.669,15.9800061 51.101,16.4030061 51.101,16.9430061 C51.101,17.4830061 50.669,17.9060061 50.129,17.9060061 C49.589,17.9060061 49.157,17.4830061 49.157,16.9430061 C49.157,16.3850061 49.589,15.9800061 50.129,15.9800061 Z M50.129,16.4120061 C49.823,16.4120061 49.598,16.6370061 49.598,16.9430061 C49.598,17.2490061 49.823,17.4740061 50.129,17.4740061 C50.435,17.4740061 50.66,17.2490061 50.66,16.9430061 C50.66,16.6370061 50.435,16.4120061 50.129,16.4120061 Z M56.384,17.2490061 L58.004,17.2130061 C58.238,17.2040061 58.355,17.1680061 58.454,17.1050061 C58.49,17.0780061 58.526,17.0690061 58.571,17.0690061 C58.616,17.0690061 58.661,17.0870061 58.715,17.1230061 C58.94,17.2670061 59.147,17.4380061 59.327,17.6090061 C59.408,17.6810061 59.444,17.7530061 59.444,17.8160061 C59.444,17.8880061 59.399,17.9510061 59.336,18.0050061 C59.21,18.1040061 59.12,18.2300061 59.039,18.3920061 C58.436,19.6160061 57.86,20.4890061 57.257,21.1730061 C56.483,22.0460061 55.412,22.9190061 54.521,23.4140061 C54.467,23.4500061 54.422,23.4590061 54.377,23.4590061 C54.305,23.4590061 54.242,23.4230061 54.17,23.3600061 C53.945,23.1800061 53.666,23.0450061 53.315,22.9460061 C54.719,22.1720061 55.43,21.6050061 56.312,20.6510061 C57.023,19.8590061 57.437,19.2470061 57.977,18.0950061 L55.799,18.1580061 C55.061,19.0670061 54.611,19.5800061 54.098,20.0030061 C54.035,20.0660061 53.972,20.1020061 53.909,20.1020061 C53.864,20.1020061 53.819,20.0840061 53.774,20.0480061 C53.549,19.8860061 53.216,19.7240061 52.91,19.6610061 C54.08,18.7070061 54.773,17.8700061 55.331,16.9880061 C55.628,16.4840061 55.763,16.2050061 55.862,15.7730061 C56.375,15.9530061 56.717,16.1060061 56.915,16.2500061 C56.978,16.2950061 57.005,16.3490061 57.005,16.4030061 C57.005,16.4570061 56.978,16.5110061 56.906,16.5560061 C56.816,16.6100061 56.753,16.7090061 56.681,16.7990061 C56.582,16.9520061 56.492,17.0870061 56.384,17.2490061 Z M64.637,18.5720061 L64.637,17.7080061 C64.637,16.9970061 64.619,16.6280061 64.52,16.1240061 C64.97,16.1600061 65.402,16.2230061 65.681,16.3040061 C65.798,16.3310061 65.852,16.3850061 65.852,16.4660061 C65.852,16.5020061 65.834,16.5560061 65.798,16.6100061 C65.699,16.7990061 65.681,16.9880061 65.681,17.4110061 L65.681,18.3380061 L68.03,17.7890061 C68.426,17.6990061 68.507,17.6540061 68.669,17.5280061 C68.714,17.4920061 68.759,17.4740061 68.795,17.4740061 C68.84,17.4740061 68.876,17.4920061 68.921,17.5280061 C69.11,17.6450061 69.398,17.8970061 69.587,18.1130061 C69.641,18.1670061 69.668,18.2210061 69.668,18.2750061 C69.668,18.3380061 69.623,18.4010061 69.551,18.4550061 C69.425,18.5450061 69.353,18.6800061 69.272,18.8060061 C68.813,19.5800061 68.363,20.2370061 67.841,20.7500061 C67.76,20.8310061 67.688,20.8850061 67.607,20.8850061 C67.553,20.8850061 67.499,20.8670061 67.436,20.8220061 C67.175,20.6690061 66.95,20.5520061 66.689,20.4800061 C67.31,19.9400061 67.751,19.3370061 68.156,18.6800061 L65.681,19.3100061 L65.681,21.3530061 C65.681,21.8300061 65.843,21.9830061 66.815,21.9830061 C67.544,21.9830061 68.381,21.8930061 68.993,21.7850061 C69.119,21.7670061 69.128,21.8300061 69.146,21.9650061 C69.191,22.2080061 69.227,22.4780061 69.227,22.7210061 C69.227,22.8110061 69.173,22.8470061 69.038,22.8560061 C68.498,22.9190061 67.877,22.9640061 66.887,22.9640061 C65.168,22.9640061 64.637,22.5950061 64.637,21.3800061 L64.637,19.5620061 L64.061,19.7150061 C63.575,19.8410061 63.071,19.9760061 62.792,20.1020061 C62.747,20.1200061 62.711,20.1380061 62.684,20.1380061 C62.621,20.1380061 62.585,20.0930061 62.54,19.9940061 C62.414,19.7600061 62.279,19.3730061 62.18,19.0760061 C62.747,19.0040061 63.26,18.9140061 63.872,18.7610061 L64.637,18.5720061 Z M76.904,18.0950061 L76.904,21.1010061 C77.345,20.8670061 77.759,20.5880061 78.182,20.2640061 C78.722,19.8500061 79.253,19.3730061 79.757,18.7340061 C79.793,19.0490061 79.883,19.3460061 80.036,19.6430061 C80.063,19.7060061 80.09,19.7510061 80.09,19.7960061 C80.09,19.8590061 80.054,19.9220061 79.955,20.0210061 C79.505,20.4800061 79.091,20.8490061 78.623,21.2000061 C78.155,21.5600061 77.651,21.9110061 77.021,22.2800061 C76.859,22.3880061 76.841,22.4060061 76.76,22.4690061 C76.706,22.5140061 76.643,22.5410061 76.58,22.5410061 C76.526,22.5410061 76.463,22.5140061 76.391,22.4690061 C76.193,22.3340061 75.986,22.1000061 75.851,21.9200061 C75.797,21.8390061 75.77,21.7850061 75.77,21.7310061 C75.77,21.6860061 75.779,21.6500061 75.806,21.5960061 C75.869,21.4790061 75.86,21.3710061 75.86,20.9120061 L75.86,18.0950061 C75.86,17.3120061 75.86,16.9430061 75.77,16.5290061 C76.13,16.5740061 76.625,16.6370061 76.895,16.7180061 C77.012,16.7450061 77.057,16.7990061 77.057,16.8710061 C77.057,16.9250061 77.03,17.0060061 76.985,17.0960061 C76.904,17.2670061 76.904,17.4470061 76.904,18.0950061 Z M73.763,17.0960061 C74.276,17.1590061 74.69,17.2220061 74.906,17.2940061 C75.059,17.3390061 75.077,17.4470061 75.023,17.5730061 C74.924,17.7710061 74.915,17.9690061 74.915,18.1850061 C74.897,19.3100061 74.726,20.1650061 74.429,20.8310061 C74.195,21.3800061 73.799,21.9650061 73.151,22.5230061 C73.061,22.5950061 72.989,22.6400061 72.917,22.6400061 C72.863,22.6400061 72.809,22.6130061 72.746,22.5680061 C72.521,22.4150061 72.305,22.3070061 71.981,22.1900061 C72.683,21.6590061 73.16,21.1100061 73.475,20.3990061 C73.727,19.7870061 73.844,19.2920061 73.853,17.8520061 C73.853,17.5100061 73.835,17.3660061 73.763,17.0960061 Z M85.625,17.3300061 L87.245,17.2940061 C87.479,17.2850061 87.596,17.2490061 87.695,17.1860061 C87.731,17.1590061 87.767,17.1500061 87.812,17.1500061 C87.857,17.1500061 87.902,17.1680061 87.956,17.2040061 C88.181,17.3480061 88.388,17.5190061 88.568,17.6900061 C88.649,17.7620061 88.685,17.8340061 88.685,17.8970061 C88.685,17.9690061 88.64,18.0320061 88.577,18.0860061 C88.451,18.1850061 88.361,18.3110061 88.28,18.4730061 C87.677,19.6970061 87.101,20.5700061 86.498,21.2540061 C85.724,22.1270061 84.653,23.0000061 83.762,23.4950061 C83.708,23.5310061 83.663,23.5400061 83.618,23.5400061 C83.546,23.5400061 83.483,23.5040061 83.411,23.4410061 C83.186,23.2610061 82.907,23.1260061 82.556,23.0270061 C83.96,22.2530061 84.671,21.6860061 85.553,20.7320061 C86.264,19.9400061 86.678,19.3280061 87.218,18.1760061 L85.04,18.2390061 C84.302,19.1480061 83.852,19.6610061 83.339,20.0840061 C83.276,20.1470061 83.213,20.1830061 83.15,20.1830061 C83.105,20.1830061 83.06,20.1650061 83.015,20.1290061 C82.79,19.9670061 82.457,19.8050061 82.151,19.7420061 C83.321,18.7880061 84.014,17.9510061 84.572,17.0690061 C84.869,16.5650061 85.004,16.2860061 85.103,15.8540061 C85.616,16.0340061 85.958,16.1870061 86.156,16.3310061 C86.219,16.3760061 86.246,16.4300061 86.246,16.4840061 C86.246,16.5380061 86.219,16.5920061 86.147,16.6370061 C86.057,16.6910061 85.994,16.7900061 85.922,16.8800061 C85.823,17.0330061 85.733,17.1680061 85.625,17.3300061 Z M87.884,16.4120061 L88.361,16.0790061 C88.406,16.0430061 88.442,16.0520061 88.496,16.0970061 C88.775,16.3130061 89.099,16.6730061 89.351,17.0600061 C89.387,17.1140061 89.387,17.1590061 89.324,17.2040061 L88.946,17.4830061 C88.883,17.5280061 88.838,17.5190061 88.793,17.4560061 C88.523,17.0420061 88.235,16.7000061 87.884,16.4120061 Z M88.712,15.8180061 L89.162,15.4940061 C89.216,15.4580061 89.243,15.4670061 89.297,15.5120061 C89.63,15.7640061 89.954,16.1240061 90.152,16.4390061 C90.188,16.4930061 90.197,16.5470061 90.125,16.6010061 L89.765,16.8800061 C89.693,16.9340061 89.648,16.9070061 89.612,16.8530061 C89.369,16.4660061 89.081,16.1240061 88.712,15.8180061 Z M96.245,17.1140061 L94.463,17.1140061 C94.058,17.1140061 93.608,17.1230061 93.23,17.1500061 C93.14,17.1500061 93.113,17.0960061 93.104,16.9520061 C93.077,16.7630061 93.059,16.3670061 93.059,16.0880061 C93.608,16.1420061 93.878,16.1510061 94.535,16.1510061 L96.155,16.1510061 C96.74,16.1510061 97.217,16.1240061 97.568,16.1060061 C97.649,16.1060061 97.676,16.1510061 97.676,16.2500061 C97.694,16.4750061 97.694,16.7270061 97.676,16.9520061 C97.676,17.1050061 97.649,17.1410061 97.514,17.1320061 C97.217,17.1320061 96.794,17.1140061 96.245,17.1140061 Z M96.929,19.0400061 L93.86,19.0490061 C93.41,19.0490061 92.96,19.0580061 92.51,19.0850061 C92.429,19.0850061 92.393,19.0310061 92.375,18.9140061 C92.321,18.6890061 92.303,18.3560061 92.276,18.0050061 C92.789,18.0590061 93.338,18.0770061 93.932,18.0770061 L97.019,18.0770061 C97.172,18.0770061 97.352,18.0590061 97.496,17.9780061 C97.541,17.9420061 97.577,17.9240061 97.613,17.9240061 C97.658,17.9240061 97.703,17.9510061 97.748,17.9870061 C97.964,18.1580061 98.207,18.3830061 98.351,18.5450061 C98.414,18.6080061 98.441,18.6710061 98.441,18.7340061 C98.441,18.7880061 98.414,18.8510061 98.342,18.9050061 C98.198,19.0220061 98.135,19.1210061 98.036,19.3280061 C97.136,21.2450061 96.101,22.3700061 94.364,23.3060061 C94.292,23.3420061 94.238,23.3690061 94.184,23.3690061 C94.121,23.3690061 94.058,23.3330061 93.986,23.2610061 C93.743,23.0450061 93.455,22.9100061 93.149,22.7930061 C94.814,22.0190061 96.281,20.7770061 96.929,19.0400061 Z M103.985,15.9260061 C104.534,16.0880061 104.921,16.2140061 105.2,16.3940061 C105.263,16.4390061 105.308,16.4840061 105.308,16.5380061 C105.308,16.5830061 105.281,16.6460061 105.218,16.7180061 C105.056,16.9250061 104.948,17.2040061 104.849,17.4650061 C104.345,18.8420061 103.868,20.1650061 103.301,21.5150061 C104.687,21.3980061 105.443,21.3260061 106.451,21.1730061 C106.172,20.6780061 105.839,20.1830061 105.452,19.7330061 C105.722,19.5890061 105.983,19.4360061 106.235,19.3010061 C106.334,19.2470061 106.388,19.2830061 106.451,19.3550061 C107.153,20.1740061 107.828,21.2990061 108.269,22.2980061 C108.296,22.3430061 108.305,22.3790061 108.305,22.4150061 C108.305,22.4690061 108.269,22.5230061 108.188,22.5680061 C107.972,22.7120061 107.747,22.8290061 107.504,22.9370061 C107.468,22.9550061 107.432,22.9640061 107.396,22.9640061 C107.342,22.9640061 107.297,22.9190061 107.27,22.8380061 C107.162,22.5860061 107.063,22.3520061 106.955,22.1180061 C105.515,22.3340061 104.147,22.4870061 102.68,22.6400061 C102.086,22.7030061 101.843,22.7480061 101.627,22.8560061 C101.51,22.9100061 101.411,22.8920061 101.366,22.7660061 C101.294,22.6130061 101.177,22.1630061 101.051,21.6050061 C101.411,21.6320061 101.789,21.6230061 102.149,21.6140061 C102.788,20.0030061 103.256,18.6710061 103.724,17.1590061 C103.868,16.6910061 103.958,16.3760061 103.985,15.9260061 Z" id="合同会社ピクセルグラム"></path>
                                <path d="M1.457,9 L0.027,9 L0.027,0.329 L3.459,0.329 C4.45567165,0.329 5.22266398,0.560831015 5.76,1.0245 C6.29733602,1.48816899 6.566,2.17066216 6.566,3.072 C6.566,3.97333784 6.29516937,4.66883089 5.7535,5.1585 C5.21183062,5.64816912 4.44700494,5.893 3.459,5.893 L1.457,5.893 L1.457,9 Z M3.277,4.671 C3.96167009,4.671 4.43183205,4.53016808 4.6875,4.2485 C4.94316794,3.96683193 5.071,3.59200234 5.071,3.124 C5.071,2.63866424 4.94316794,2.25300143 4.6875,1.967 C4.43183205,1.68099857 3.96167009,1.538 3.277,1.538 L1.457,1.538 L1.457,4.671 L3.277,4.671 Z M10.1669999,0.199 L11.6229999,0.199 L11.6229999,1.434 L10.1669999,1.434 L10.1669999,0.199 Z M10.2059999,2.513 L11.5709999,2.513 L11.5839999,9 L10.2059999,9 L10.2059999,2.513 Z M18.9809999,5.711 L21.3729999,9 L19.7089999,9 L18.0579999,6.712 L16.3939999,9 L14.9119999,9 L17.3559999,5.75 L14.9769999,2.474 L16.6279999,2.474 L18.2789999,4.736 L19.9039999,2.474 L21.3989999,2.474 L18.9809999,5.711 Z M27.0669998,2.318 C28.0810049,2.318 28.8241641,2.6451634 29.2964998,3.2995 C29.7688355,3.95383661 30.0006665,4.87032744 29.9919998,6.049 L25.4159998,6.049 C25.4593333,6.69033654 25.6478315,7.17783167 25.9814998,7.5115 C26.3151681,7.84516834 26.7896634,8.012 27.4049998,8.012 C27.8036684,8.012 28.184998,7.96216717 28.5489998,7.8625 C28.9130016,7.76283284 29.2336651,7.63500078 29.5109998,7.479 L29.5109998,8.753 C28.8349964,9.04766814 28.0593375,9.195 27.1839998,9.195 C26.2046616,9.195 25.4355026,8.89816964 24.8764998,8.3045 C24.317497,7.71083037 24.0379998,6.86800546 24.0379998,5.776 C24.0379998,4.65799441 24.3023305,3.80216964 24.8309998,3.2085 C25.3596691,2.61483037 26.104995,2.318 27.0669998,2.318 Z M27.0279998,3.436 C26.5686642,3.436 26.2090011,3.55733212 25.9489998,3.8 C25.6889985,4.04266788 25.5200002,4.45433043 25.4419998,5.035 L28.6009998,5.035 C28.5403328,4.48033056 28.3843344,4.07516795 28.1329998,3.8195 C27.8816652,3.56383206 27.5133355,3.436 27.0279998,3.436 Z M33.5149997,9 L33.5149997,0.004 L34.8669997,0.004 L34.8669997,9 L33.5149997,9 Z M41.8349996,2.331 C42.57167,2.331 43.1804972,2.47399857 43.6614996,2.76 C44.142502,3.04600143 44.3829996,3.46633056 44.3829996,4.021 L44.3829996,9.195 C44.3829996,9.94033706 44.1403354,10.5469977 43.6549996,11.015 C43.1696639,11.4830023 42.3983383,11.717 41.3409996,11.717 C40.5696625,11.717 39.8676695,11.6000012 39.2349996,11.366 L39.2349996,10.118 C39.9543366,10.386668 40.6216632,10.521 41.2369996,10.521 C41.9303364,10.521 42.4026651,10.3975012 42.6539996,10.1505 C42.9053342,9.90349877 43.0309996,9.57633537 43.0309996,9.169 L43.0309996,8.727 C42.7796651,8.86566736 42.5045011,8.9783329 42.2054996,9.065 C41.9064981,9.1516671 41.6140011,9.195 41.3279996,9.195 C40.3746615,9.17766658 39.6488355,8.88733615 39.1504996,8.324 C38.6521638,7.76066385 38.4029996,6.9590052 38.4029996,5.919 C38.4029996,4.56699324 38.7149965,3.6310026 39.3389996,3.111 C39.9630028,2.5909974 40.7949944,2.331 41.8349996,2.331 Z M39.7939996,5.88 C39.7939996,6.55600338 39.9413315,7.0911647 40.2359996,7.4855 C40.5306678,7.87983531 40.9683301,8.077 41.5489996,8.077 C42.1123358,8.077 42.6063309,7.95133459 43.0309996,7.7 L43.0309996,4.281 C43.0309996,3.97766515 42.9161675,3.76966723 42.6864996,3.657 C42.4568318,3.54433277 42.1470016,3.488 41.7569996,3.488 C41.0203293,3.488 40.5090011,3.70033121 40.2229996,4.125 C39.9369982,4.54966879 39.7939996,5.13466294 39.7939996,5.88 Z M48.2179996,3.072 C48.4606675,2.92466593 48.87233,2.7643342 49.4529996,2.591 C50.0336691,2.4176658 50.6099967,2.331 51.1819996,2.331 C51.528668,2.331 51.8233317,2.38733277 52.0659996,2.5 L52.0659996,3.592 C51.8233317,3.55733316 51.5330013,3.54 51.1949996,3.54 C50.6229967,3.54 50.0856688,3.5833329 49.5829996,3.67 L49.5829996,9 L48.2179996,9 L48.2179996,3.072 Z M58.1759995,2.331 C58.8866697,2.331 59.4911637,2.50216496 59.9894995,2.8445 C60.4878353,3.18683505 60.7326662,3.73932952 60.7239995,4.502 L60.7239995,7.622 C60.7239995,8.21133628 60.4640021,8.62083219 59.9439995,8.8505 C59.4239969,9.08016782 58.6830043,9.195 57.7209995,9.195 C56.9496623,9.195 56.3126687,9.03466827 55.8099995,8.714 C55.3073303,8.39333173 55.0559995,7.85600377 55.0559995,7.102 C55.0559995,6.39132978 55.2618308,5.85833511 55.6734995,5.503 C56.0851682,5.14766489 56.6679957,4.97 57.4219995,4.97 C58.2020034,4.97 58.8519969,5.12599844 59.3719995,5.438 L59.3719995,4.814 C59.3719995,3.92999558 58.8390048,3.488 57.7729995,3.488 C57.3916643,3.488 57.0103347,3.54649942 56.6289995,3.6635 C56.2476643,3.78050059 55.9313341,3.94299896 55.6799995,4.151 L55.6799995,2.877 C55.9226674,2.72099922 56.2758305,2.59100052 56.7394995,2.487 C57.2031685,2.38299948 57.681997,2.331 58.1759995,2.331 Z M57.8769995,8.129 C58.4230022,8.129 58.808665,8.09000039 59.0339995,8.012 C59.259334,7.93399961 59.3719995,7.77800117 59.3719995,7.544 L59.3719995,6.283 C58.9299973,6.09233238 58.4446688,5.997 57.9159995,5.997 C57.421997,5.997 57.0471674,6.0836658 56.7914995,6.257 C56.5358316,6.4303342 56.4079995,6.6903316 56.4079995,7.037 C56.4079995,7.40100182 56.5531647,7.67399909 56.8434995,7.856 C57.1338343,8.03800091 57.4783308,8.129 57.8769995,8.129 Z M71.7219994,2.331 C72.632004,2.331 73.297164,2.52166476 73.7174994,2.903 C74.1378349,3.28433524 74.3479994,3.87799597 74.3479994,4.684 L74.3479994,9 L72.9829994,9 L72.9829994,4.866 C72.9829994,3.95599545 72.4673379,3.501 71.4359994,3.501 C70.9766638,3.501 70.5563347,3.61799883 70.1749994,3.852 C70.2356664,4.08600117 70.2659994,4.36333173 70.2659994,4.684 L70.2659994,9 L68.9009994,9 L68.9009994,4.866 C68.9009994,3.95599545 68.3853379,3.501 67.3539994,3.501 C66.8859971,3.501 66.4266683,3.58333251 65.9759994,3.748 L65.9759994,9 L64.6109994,9 L64.6109994,3.007 C65.0010014,2.80766567 65.4754966,2.6451673 66.0344994,2.5195 C66.5935022,2.39383271 67.1286635,2.331 67.6399994,2.331 C68.489337,2.331 69.1219973,2.49566502 69.5379994,2.825 C70.2400029,2.49566502 70.9679957,2.331 71.7219994,2.331 Z M83.9289993,0.329 L85.3719993,0.329 L85.3719993,7.778 L89.5189993,7.778 L89.5189993,9 L83.9289993,9 L83.9289993,0.329 Z M92.8599992,0.329 L94.3029992,0.329 L94.3029992,7.778 L98.4499992,7.778 L98.4499992,9 L92.8599992,9 L92.8599992,0.329 Z M105.508999,9.13 C102.761652,9.13 101.387999,7.63934824 101.387999,4.658 C101.387999,1.67665176 102.761652,0.186 105.508999,0.186 C106.40167,0.186 107.298661,0.39833121 108.199999,0.823 L108.199999,2.11 C107.367995,1.62466424 106.53167,1.382 105.690999,1.382 C104.720328,1.382 104.007501,1.6419974 103.552499,2.162 C103.097497,2.6820026 102.869999,3.51832757 102.869999,4.671 C102.869999,5.82367243 103.099664,6.65349747 103.558999,7.1605 C104.018335,7.66750254 104.741994,7.921 105.729999,7.921 C106.579337,7.921 107.402662,7.68700234 108.199999,7.219 L108.199999,8.506 C107.80133,8.70533433 107.365835,8.85916613 106.893499,8.9675 C106.421163,9.07583388 105.959668,9.13 105.508999,9.13 Z M111.761999,7.479 L113.308999,7.479 L113.308999,9 L111.761999,9 L111.761999,7.479 Z" id="Pixelgram-LLC."></path>
                            </g>
                        </g>
                        <g id="4" transform="translate(162.000000, 95.000000)">
                            <g id="base" transform="translate(12.500000, 12.500000) rotate(180.000000) translate(-12.500000, -12.500000) " fill="black" fill-opacity="1">
                                <use filter="url(#filter-8)" xlink:href="#path-7"></use>
                            </g>
                            <text id="h" font-family=".AppleSystemUIFont" font-size="12" font-weight="normal" fill="#000000">
                                <tspan x="8" y="17">h</tspan>
                            </text>
                        </g>
                        <g id="3" transform="translate(23.000000, 95.000000)">
                            <g id="base" transform="translate(12.500000, 12.500000) rotate(-90.000000) translate(-12.500000, -12.500000) " fill="black" fill-opacity="1">
                                <use filter="url(#filter-10)" xlink:href="#path-9"></use>
                            </g>
                            <text id="h" font-family=".AppleSystemUIFont" font-size="12" font-weight="normal" fill="#000000">
                                <tspan x="9" y="17">h</tspan>
                            </text>
                        </g>
                        <g id="2" transform="translate(162.000000, 0.000000)">
                            <g id="base" transform="translate(12.500000, 12.500000) rotate(90.000000) translate(-12.500000, -12.500000) " fill="black" fill-opacity="1">
                                <use filter="url(#filter-12)" xlink:href="#path-11"></use>
                            </g>
                            <text id="h" font-family=".AppleSystemUIFont" font-size="12" font-weight="normal" fill="#000000">
                                <tspan x="8" y="17">h</tspan>
                            </text>
                        </g>
                        <g id="1" transform="translate(23.000000, 0.000000)">
                            <g id="base" fill="black" fill-opacity="1">
                                <use filter="url(#filter-14)" xlink:href="#path-13"></use>
                            </g>
                            <text id="h" font-family=".AppleSystemUIFont" font-size="12" font-weight="normal" fill="#000000">
                                <tspan x="9" y="17">h</tspan>
                            </text>
                        </g>
                        <g id="h" transform="translate(0.000000, 71.000000)">
                            <g id="Rectangle-13" fill="black" fill-opacity="1">
                                <use filter="url(#filter-16)" xlink:href="#path-15"></use>
                            </g>
                            <text font-family=".AppleSystemUIFont" font-size="12" font-weight="normal" fill="#000000">
                                <tspan x="0" y="17">h</tspan>
                            </text>
                        </g>
                    </g>
                </g>
                <g id="社名ロゴ">
                    <rect id="base" x="0" y="0" width="300" height="250"></rect>
                    <g id="logo" transform="translate(39.000000, 77.000000)">
                        <g id="社名ロゴ" transform="translate(53.000000, 33.000000)" fill="#000000" fill-rule="nonzero">
                            <path d="M3.024,12 L1.264,12 L1.264,1.328 L5.488,1.328 C6.7146728,1.328 7.65866336,1.61333048 8.32,2.184 C8.98133664,2.75466952 9.312,3.59466112 9.312,4.704 C9.312,5.81333888 8.97867,6.66933032 8.312,7.272 C7.64533,7.8746697 6.70400608,8.176 5.488,8.176 L3.024,8.176 L3.024,12 Z M5.264,6.672 C6.10667088,6.672 6.68533176,6.4986684 7,6.152 C7.31466824,5.8053316 7.472,5.34400288 7.472,4.768 C7.472,4.17066368 7.31466824,3.69600176 7,3.344 C6.68533176,2.99199824 6.10667088,2.816 5.264,2.816 L3.024,2.816 L3.024,6.672 L5.264,6.672 Z M13.4439999,1.168 L15.2359999,1.168 L15.2359999,2.688 L13.4439999,2.688 L13.4439999,1.168 Z M13.4919999,4.016 L15.1719999,4.016 L15.1879999,12 L13.4919999,12 L13.4919999,4.016 Z M23.9919998,7.952 L26.9359998,12 L24.8879998,12 L22.8559998,9.184 L20.8079998,12 L18.9839998,12 L21.9919998,8 L19.0639998,3.968 L21.0959998,3.968 L23.1279998,6.752 L25.1279998,3.968 L26.9679998,3.968 L23.9919998,7.952 Z M33.6439997,3.776 C34.892006,3.776 35.8066635,4.17866264 36.3879997,4.984 C36.969336,5.78933736 37.2546664,6.91732608 37.2439997,8.368 L31.6119997,8.368 C31.6653333,9.1573373 31.897331,9.7573313 32.3079997,10.168 C32.7186684,10.5786687 33.3026626,10.784 34.0599997,10.784 C34.5506688,10.784 35.0199975,10.7226673 35.4679997,10.6 C35.916002,10.4773327 36.3106647,10.320001 36.6519997,10.128 L36.6519997,11.696 C35.8199956,12.0586685 34.8653384,12.24 33.7879997,12.24 C32.5826604,12.24 31.6360032,11.8746703 30.9479997,11.144 C30.2599963,10.4133297 29.9159997,9.3760067 29.9159997,8.032 C29.9159997,6.65599312 30.2413298,5.60267032 30.8919997,4.872 C31.5426696,4.14132968 32.4599938,3.776 33.6439997,3.776 Z M33.5959997,5.152 C33.0306636,5.152 32.5880013,5.30133184 32.2679997,5.6 C31.9479981,5.89866816 31.7400002,6.40532976 31.6439997,7.12 L35.5319997,7.12 C35.4573327,6.43732992 35.2653346,5.93866824 34.9559997,5.624 C34.6466648,5.30933176 34.193336,5.152 33.5959997,5.152 Z M41.2799996,12 L41.2799996,0.928 L42.9439996,0.928 L42.9439996,12 L41.2799996,12 Z M51.2199995,3.792 C52.1266707,3.792 52.8759966,3.96799824 53.4679995,4.32 C54.0600025,4.67200176 54.3559995,5.18932992 54.3559995,5.872 L54.3559995,12.24 C54.3559995,13.1573379 54.0573358,13.9039971 53.4599995,14.48 C52.8626632,15.0560029 51.9133394,15.344 50.6119995,15.344 C49.6626614,15.344 48.7986701,15.2000014 48.0199995,14.912 L48.0199995,13.376 C48.9053373,13.7066683 49.7266624,13.872 50.4839995,13.872 C51.3373371,13.872 51.9186646,13.7200015 52.2279995,13.416 C52.5373344,13.1119985 52.6919995,12.7093358 52.6919995,12.208 L52.6919995,11.664 C52.3826646,11.8346675 52.0440014,11.9733328 51.6759995,12.08 C51.3079977,12.1866672 50.9480013,12.24 50.5959995,12.24 C49.4226603,12.2186666 48.5293359,11.8613368 47.9159995,11.168 C47.3026631,10.4746632 46.9959995,9.4880064 46.9959995,8.208 C46.9959995,6.54399168 47.3799957,5.3920032 48.1479995,4.752 C48.9160034,4.1119968 49.9399931,3.792 51.2199995,3.792 Z M48.7079995,8.16 C48.7079995,8.9920042 48.889331,9.6506642 49.2519995,10.136 C49.614668,10.6213358 50.1533293,10.864 50.8679995,10.864 C51.5613363,10.864 52.1693302,10.7093349 52.6919995,10.4 L52.6919995,6.192 C52.6919995,5.8186648 52.5506676,5.56266736 52.2679995,5.424 C51.9853314,5.28533264 51.6040019,5.216 51.1239995,5.216 C50.2173283,5.216 49.5880013,5.47733072 49.2359995,6 C48.8839978,6.52266928 48.7079995,7.2426621 48.7079995,8.16 Z M58.7759994,4.704 C59.0746676,4.52266576 59.5813292,4.3253344 60.2959994,4.112 C61.0106697,3.8986656 61.7199959,3.792 62.4239994,3.792 C62.8506682,3.792 63.2133313,3.86133264 63.5119994,4 L63.5119994,5.344 C63.2133313,5.30133312 62.8560015,5.28 62.4399994,5.28 C61.7359959,5.28 61.0746692,5.3333328 60.4559994,5.44 L60.4559994,12 L58.7759994,12 L58.7759994,4.704 Z M70.7319993,3.792 C71.6066704,3.792 72.3506629,4.00266456 72.9639993,4.424 C73.5773357,4.84533544 73.8786661,5.52532864 73.8679993,6.464 L73.8679993,10.304 C73.8679993,11.029337 73.5480025,11.5333319 72.9079993,11.816 C72.2679961,12.0986681 71.3560053,12.24 70.1719993,12.24 C69.2226613,12.24 68.4386691,12.0426686 67.8199993,11.648 C67.2013296,11.2533314 66.8919993,10.5920046 66.8919993,9.664 C66.8919993,8.789329 67.1453301,8.1333355 67.6519993,7.696 C68.1586685,7.2586645 68.8759947,7.04 69.8039993,7.04 C70.7640041,7.04 71.5639961,7.2319981 72.2039993,7.616 L72.2039993,6.848 C72.2039993,5.75999456 71.5480059,5.216 70.2359993,5.216 C69.7666637,5.216 69.297335,5.28799928 68.8279993,5.432 C68.3586637,5.57600072 67.9693342,5.77599872 67.6599993,6.032 L67.6599993,4.464 C67.9586675,4.27199904 68.3933298,4.11200064 68.9639993,3.984 C69.5346689,3.85599936 70.1239963,3.792 70.7319993,3.792 Z M70.3639993,10.928 C71.0360027,10.928 71.5106646,10.8800005 71.7879993,10.784 C72.0653341,10.6879995 72.2039993,10.4960014 72.2039993,10.208 L72.2039993,8.656 C71.6599966,8.4213322 71.0626693,8.304 70.4119993,8.304 C69.8039963,8.304 69.3426676,8.4106656 69.0279993,8.624 C68.7133311,8.8373344 68.5559993,9.1573312 68.5559993,9.584 C68.5559993,10.0320022 68.7346642,10.3679989 69.0919993,10.592 C69.4493345,10.8160011 69.8733302,10.928 70.3639993,10.928 Z M87.1039992,3.792 C88.2240048,3.792 89.0426633,4.02666432 89.5599992,4.496 C90.0773352,4.96533568 90.3359992,5.69599504 90.3359992,6.688 L90.3359992,12 L88.6559992,12 L88.6559992,6.912 C88.6559992,5.7919944 88.0213389,5.232 86.7519992,5.232 C86.1866631,5.232 85.6693349,5.37599856 85.1999992,5.664 C85.2746663,5.95200144 85.3119992,6.29333136 85.3119992,6.688 L85.3119992,12 L83.6319992,12 L83.6319992,6.912 C83.6319992,5.7919944 82.9973389,5.232 81.7279992,5.232 C81.1519964,5.232 80.5866687,5.33333232 80.0319992,5.536 L80.0319992,12 L78.3519992,12 L78.3519992,4.624 C78.8320016,4.37866544 79.4159958,4.17866744 80.1039992,4.024 C80.7920027,3.86933256 81.4506628,3.792 82.0799992,3.792 C83.1253378,3.792 83.9039967,3.99466464 84.4159992,4.4 C85.2800036,3.99466464 86.1759946,3.792 87.1039992,3.792 Z M101.527999,1.328 L103.303999,1.328 L103.303999,10.496 L108.407999,10.496 L108.407999,12 L101.527999,12 L101.527999,1.328 Z M112.219999,1.328 L113.995999,1.328 L113.995999,10.496 L119.099999,10.496 L119.099999,12 L112.219999,12 L112.219999,1.328 Z M127.487999,12.16 C124.106649,12.16 122.415999,10.3253517 122.415999,6.656 C122.415999,2.98664832 124.106649,1.152 127.487999,1.152 C128.586671,1.152 129.69066,1.41333072 130.799999,1.936 L130.799999,3.52 C129.775994,2.92266368 128.746671,2.624 127.711999,2.624 C126.517326,2.624 125.640002,2.9439968 125.079999,3.584 C124.519996,4.2240032 124.239999,5.25332624 124.239999,6.672 C124.239999,8.0906738 124.522663,9.1119969 125.087999,9.736 C125.653335,10.3600031 126.543993,10.672 127.759999,10.672 C128.805337,10.672 129.818661,10.3840029 130.799999,9.808 L130.799999,11.392 C130.30933,11.6373346 129.773335,11.826666 129.191999,11.96 C128.610663,12.093334 128.042668,12.16 127.487999,12.16 Z M134.883999,10.128 L136.787999,10.128 L136.787999,12 L134.883999,12 L134.883999,10.128 Z" id="Pixelgram-LLC."></path>
                            <path d="M3.46000006,29.9 L2.44000006,29.9 C2.32000006,29.9 2.30800006,29.888 2.30800006,29.768 C2.30800006,29.696 2.33200006,29.372 2.33200006,27.632 L2.33200006,26.6 C2.33200006,25.568 2.30800006,25.22 2.30800006,25.148 C2.30800006,25.028 2.32000006,25.016 2.44000006,25.016 C2.51200006,25.016 2.93200006,25.04 4.08400006,25.04 L7.92400006,25.04 C9.0760001,25.04 9.4960001,25.016 9.5680001,25.016 C9.7000001,25.016 9.7120001,25.028 9.7120001,25.148 C9.7120001,25.22 9.6880001,25.568 9.6880001,26.42 L9.6880001,27.596 C9.6880001,29.324 9.7120001,29.648 9.7120001,29.708 C9.7120001,29.828 9.7000001,29.84 9.5680001,29.84 L8.54800006,29.84 C8.42800006,29.84 8.41600006,29.828 8.41600006,29.708 L8.41600006,29.312 L3.60400006,29.312 L3.60400006,29.768 C3.60400006,29.888 3.59200006,29.9 3.46000006,29.9 Z M3.60400006,26.132 L3.60400006,28.22 L8.41600006,28.22 L8.41600006,26.132 L3.60400006,26.132 Z M3.58000006,23.768 L3.58000006,22.904 C2.88400006,23.444 2.14000006,23.912 1.36000006,24.32 C1.21600006,24.392 1.14400006,24.44 1.08400006,24.44 C1.00000006,24.44 0.95200006,24.356 0.85600006,24.14 C0.70000006,23.816 0.50800006,23.552 0.29200006,23.336 C2.50000006,22.34 3.92800006,21.092 4.91200006,19.664 C5.12800006,19.352 5.26000006,19.124 5.38000006,18.812 C5.84800006,18.884 6.29200006,18.956 6.64000006,19.04 C6.78400006,19.088 6.85600006,19.124 6.85600006,19.232 C6.85600006,19.292 6.83200006,19.352 6.73600006,19.412 C6.70000006,19.436 6.66400006,19.46 6.64000006,19.496 C8.06800006,21.32 9.7360001,22.436 11.7640001,23.156 C11.5600001,23.408 11.3800001,23.732 11.2600001,24.068 C11.1880001,24.296 11.1400001,24.38 11.0440001,24.38 C10.9840001,24.38 10.8880001,24.344 10.7560001,24.272 C9.9040001,23.888 9.1240001,23.444 8.41600006,22.928 L8.41600006,23.768 C8.41600006,23.888 8.40400006,23.9 8.28400006,23.9 C8.21200006,23.9 7.88800006,23.876 6.92800006,23.876 L5.06800006,23.876 C4.10800006,23.876 3.79600006,23.9 3.71200006,23.9 C3.59200006,23.9 3.58000006,23.888 3.58000006,23.768 Z M5.06800006,22.76 L6.92800006,22.76 C7.63600006,22.76 7.99600006,22.748 8.16400006,22.748 C7.30000006,22.088 6.56800006,21.32 5.95600006,20.468 C5.33200006,21.332 4.58800006,22.076 3.77200006,22.736 C3.91600006,22.748 4.25200006,22.76 5.06800006,22.76 Z M23.684,22.136 L23.684,26.432 C23.684,27.476 23.708,28.1 23.708,28.508 C23.696,28.952 23.576,29.264 23.324,29.492 C23.084,29.684 22.64,29.816 21.512,29.816 C21.14,29.816 21.14,29.828 21.056,29.432 C20.984,29.108 20.876,28.76 20.72,28.484 C21.248,28.544 21.692,28.556 21.944,28.556 C22.292,28.556 22.412,28.436 22.412,28.148 L22.412,20.624 L15.032,20.624 L15.032,27.596 C15.032,28.988 15.056,29.696 15.056,29.768 C15.056,29.888 15.044,29.9 14.912,29.9 L13.868,29.9 C13.748,29.9 13.736,29.888 13.736,29.768 C13.736,29.684 13.76,28.892 13.76,27.26 L13.76,22.1 C13.76,20.468 13.736,19.652 13.736,19.568 C13.736,19.448 13.748,19.436 13.868,19.436 C13.952,19.436 14.348,19.46 15.464,19.46 L21.98,19.46 C23.096,19.46 23.492,19.436 23.576,19.436 C23.696,19.436 23.708,19.448 23.708,19.568 C23.708,19.652 23.684,20.504 23.684,22.136 Z M17.408,28.268 L16.496,28.268 C16.376,28.268 16.364,28.256 16.364,28.136 C16.364,28.052 16.388,27.752 16.388,26.12 L16.388,25.136 C16.388,24.188 16.364,23.876 16.364,23.792 C16.364,23.672 16.376,23.66 16.496,23.66 C16.58,23.66 16.892,23.684 17.816,23.684 L19.532,23.684 C20.48,23.684 20.78,23.66 20.864,23.66 C20.984,23.66 20.996,23.672 20.996,23.792 C20.996,23.864 20.972,24.176 20.972,24.92 L20.972,25.928 C20.972,27.524 20.996,27.812 20.996,27.884 C20.996,28.016 20.984,28.028 20.864,28.028 L19.952,28.028 C19.832,28.028 19.82,28.016 19.82,27.884 L19.82,27.5 L17.54,27.5 L17.54,28.136 C17.54,28.256 17.528,28.268 17.408,28.268 Z M17.54,24.74 L17.54,26.444 L19.82,26.444 L19.82,24.74 L17.54,24.74 Z M19.952,22.688 L17.432,22.688 C16.376,22.688 16.016,22.712 15.932,22.712 C15.812,22.712 15.8,22.7 15.8,22.568 L15.8,21.68 C15.8,21.56 15.812,21.548 15.932,21.548 C16.016,21.548 16.376,21.572 17.432,21.572 L19.952,21.572 C21.008,21.572 21.38,21.548 21.452,21.548 C21.572,21.548 21.584,21.56 21.584,21.68 L21.584,22.568 C21.584,22.7 21.572,22.712 21.452,22.712 C21.38,22.712 21.008,22.688 19.952,22.688 Z M29.472,26.012 L28.224,26.012 C27.096,26.012 26.712,26.036 26.64,26.036 C26.508,26.036 26.496,26.024 26.496,25.904 L26.496,25.004 C26.496,24.884 26.508,24.872 26.64,24.872 C26.712,24.872 27.096,24.896 28.224,24.896 L34.62,24.896 C35.748,24.896 36.132,24.872 36.204,24.872 C36.336,24.872 36.348,24.884 36.348,25.004 L36.348,25.904 C36.348,26.024 36.336,26.036 36.204,26.036 C36.132,26.036 35.748,26.012 34.62,26.012 L30.912,26.012 C30.612,26.756 30.252,27.512 29.844,28.268 C31.092,28.196 32.4,28.088 33.54,27.968 C33.264,27.632 32.988,27.296 32.664,26.948 C32.58,26.852 32.592,26.804 32.736,26.732 L33.504,26.336 C33.636,26.264 33.672,26.276 33.756,26.36 C34.572,27.212 35.256,28.076 35.988,29.144 C36.048,29.24 36.048,29.288 35.928,29.372 L35.1,29.912 C35.028,29.96 34.992,29.984 34.956,29.984 C34.92,29.984 34.896,29.96 34.86,29.9 C34.656,29.564 34.452,29.252 34.26,28.964 C32.268,29.216 29.82,29.42 27.78,29.576 C27.588,29.588 27.432,29.636 27.348,29.684 C27.288,29.732 27.228,29.756 27.144,29.756 C27.06,29.756 27,29.696 26.976,29.588 C26.868,29.192 26.796,28.772 26.724,28.352 C27.168,28.388 27.564,28.376 28.032,28.352 C28.152,28.352 28.284,28.34 28.416,28.34 C28.848,27.524 29.196,26.756 29.472,26.012 Z M28.992,23.672 L28.992,22.76 C28.32,23.252 27.588,23.684 26.82,24.056 C26.676,24.128 26.592,24.164 26.532,24.164 C26.448,24.164 26.412,24.08 26.316,23.864 C26.172,23.564 26.004,23.3 25.776,23.072 C27.864,22.244 29.424,20.972 30.384,19.58 C30.588,19.28 30.696,19.076 30.804,18.8 C31.272,18.86 31.716,18.944 32.1,19.052 C32.244,19.088 32.316,19.136 32.316,19.22 C32.316,19.292 32.292,19.364 32.196,19.412 C32.124,19.448 32.076,19.484 32.028,19.52 C33.384,21.176 35.004,22.22 37.104,22.952 C36.876,23.24 36.72,23.528 36.588,23.852 C36.504,24.068 36.468,24.152 36.384,24.152 C36.324,24.152 36.24,24.116 36.108,24.056 C35.292,23.696 34.512,23.276 33.816,22.784 L33.816,23.672 C33.816,23.792 33.804,23.804 33.684,23.804 C33.612,23.804 33.288,23.78 32.328,23.78 L30.48,23.78 C29.52,23.78 29.196,23.804 29.124,23.804 C29.004,23.804 28.992,23.792 28.992,23.672 Z M30.48,22.664 L32.328,22.664 C33.132,22.664 33.492,22.652 33.624,22.64 C32.76,22.016 32.004,21.284 31.356,20.444 C30.72,21.284 29.988,22.016 29.16,22.64 C29.268,22.652 29.604,22.664 30.48,22.664 Z M47.824,29.504 L44.452,29.504 C43.312,29.504 42.916,29.528 42.844,29.528 C42.724,29.528 42.712,29.516 42.712,29.396 L42.712,28.448 C42.712,28.328 42.724,28.316 42.844,28.316 C42.916,28.316 43.312,28.34 44.452,28.34 L45.46,28.34 L45.46,23.852 L44.92,23.852 C43.852,23.852 43.48,23.864 43.408,23.864 C43.3,23.864 43.288,23.864 43.288,23.744 L43.288,22.796 C43.288,22.676 43.3,22.676 43.408,22.676 C43.48,22.676 43.852,22.688 44.92,22.688 L45.46,22.688 L45.46,20.78 C45.46,19.928 45.448,19.52 45.364,18.968 C45.82,18.98 46.276,19.004 46.696,19.052 C46.804,19.064 46.888,19.112 46.888,19.172 C46.888,19.268 46.876,19.328 46.828,19.424 C46.756,19.568 46.732,19.868 46.732,20.744 L46.732,22.688 L47.488,22.688 C48.556,22.688 48.928,22.676 49,22.676 C49.12,22.676 49.132,22.676 49.132,22.796 L49.132,23.744 C49.132,23.864 49.12,23.864 49,23.864 C48.928,23.864 48.556,23.852 47.488,23.852 L46.732,23.852 L46.732,28.34 L47.824,28.34 C48.964,28.34 49.348,28.316 49.42,28.316 C49.552,28.316 49.564,28.328 49.564,28.448 L49.564,29.396 C49.564,29.516 49.552,29.528 49.42,29.528 C49.348,29.528 48.964,29.504 47.824,29.504 Z M40.444,28.412 L40.444,25.544 C40.072,25.904 39.7,26.24 39.304,26.54 C39.184,26.636 39.112,26.696 39.052,26.696 C38.98,26.696 38.932,26.6 38.86,26.42 C38.74,26.084 38.596,25.772 38.44,25.568 C39.844,24.68 40.972,23.384 41.572,22.016 L40.216,22.016 C39.304,22.016 39.016,22.04 38.944,22.04 C38.824,22.04 38.812,22.028 38.812,21.908 L38.812,21.02 C38.812,20.9 38.824,20.888 38.944,20.888 C39.016,20.888 39.304,20.912 40.216,20.912 L40.444,20.912 L40.444,20.42 C40.444,19.784 40.432,19.4 40.348,18.956 C40.804,18.968 41.164,18.992 41.596,19.04 C41.716,19.052 41.788,19.112 41.788,19.16 C41.788,19.268 41.752,19.328 41.716,19.412 C41.644,19.556 41.644,19.76 41.644,20.372 L41.644,20.912 L42.148,20.912 C42.256,20.912 42.316,20.9 42.376,20.864 C42.424,20.84 42.472,20.816 42.508,20.816 C42.58,20.816 42.7,20.888 42.952,21.128 C43.18,21.356 43.276,21.476 43.276,21.56 C43.276,21.62 43.252,21.68 43.156,21.752 C43.048,21.86 42.976,21.92 42.88,22.1 C42.592,22.712 42.244,23.3 41.86,23.852 C42.328,24.392 42.892,24.824 43.624,25.256 C43.444,25.448 43.276,25.736 43.144,26.036 C43.06,26.216 43,26.3 42.916,26.3 C42.856,26.3 42.784,26.252 42.676,26.156 C42.292,25.808 41.944,25.424 41.644,25.04 L41.644,28.412 C41.644,29.3 41.668,29.768 41.668,29.828 C41.668,29.948 41.656,29.96 41.524,29.96 L40.564,29.96 C40.432,29.96 40.42,29.948 40.42,29.828 C40.42,29.756 40.444,29.3 40.444,28.412 Z M54.596,21.932 L54.596,23.6 C55.652,23.252 56.564,22.904 57.524,22.436 C58.172,22.124 58.472,21.932 58.808,21.572 C59.228,21.92 59.624,22.412 59.804,22.652 C59.948,22.82 59.936,23.024 59.696,23.084 C59.36,23.168 59.024,23.336 58.7,23.48 C57.512,24.02 56.168,24.5 54.584,24.968 L54.584,26.564 C54.584,27.128 54.668,27.32 54.98,27.416 C55.292,27.5 55.76,27.548 56.492,27.548 C57.62,27.548 58.628,27.464 59.876,27.272 C60.056,27.248 60.08,27.296 60.092,27.44 C60.128,27.776 60.164,28.232 60.164,28.484 C60.164,28.64 60.092,28.688 59.912,28.7 C58.556,28.868 57.86,28.916 56.348,28.916 C55.28,28.916 54.572,28.808 54.068,28.592 C53.468,28.34 53.216,27.776 53.216,26.792 L53.216,22.364 C53.216,21.224 53.192,20.768 53.096,20.168 C53.66,20.228 54.224,20.3 54.608,20.408 C54.872,20.468 54.824,20.672 54.716,20.852 C54.62,21.044 54.596,21.368 54.596,21.932 Z M60.944,19.64 C61.664,19.64 62.24,20.204 62.24,20.924 C62.24,21.644 61.664,22.208 60.944,22.208 C60.224,22.208 59.648,21.644 59.648,20.924 C59.648,20.18 60.224,19.64 60.944,19.64 Z M60.944,20.216 C60.536,20.216 60.236,20.516 60.236,20.924 C60.236,21.332 60.536,21.632 60.944,21.632 C61.352,21.632 61.652,21.332 61.652,20.924 C61.652,20.516 61.352,20.216 60.944,20.216 Z M68.904,21.332 L71.064,21.284 C71.376,21.272 71.532,21.224 71.664,21.14 C71.712,21.104 71.76,21.092 71.82,21.092 C71.88,21.092 71.94,21.116 72.012,21.164 C72.312,21.356 72.588,21.584 72.828,21.812 C72.936,21.908 72.984,22.004 72.984,22.088 C72.984,22.184 72.924,22.268 72.84,22.34 C72.672,22.472 72.552,22.64 72.444,22.856 C71.64,24.488 70.872,25.652 70.068,26.564 C69.036,27.728 67.608,28.892 66.42,29.552 C66.348,29.6 66.288,29.612 66.228,29.612 C66.132,29.612 66.048,29.564 65.952,29.48 C65.652,29.24 65.28,29.06 64.812,28.928 C66.684,27.896 67.632,27.14 68.808,25.868 C69.756,24.812 70.308,23.996 71.028,22.46 L68.124,22.544 C67.14,23.756 66.54,24.44 65.856,25.004 C65.772,25.088 65.688,25.136 65.604,25.136 C65.544,25.136 65.484,25.112 65.424,25.064 C65.124,24.848 64.68,24.632 64.272,24.548 C65.832,23.276 66.756,22.16 67.5,20.984 C67.896,20.312 68.076,19.94 68.208,19.364 C68.892,19.604 69.348,19.808 69.612,20 C69.696,20.06 69.732,20.132 69.732,20.204 C69.732,20.276 69.696,20.348 69.6,20.408 C69.48,20.48 69.396,20.612 69.3,20.732 C69.168,20.936 69.048,21.116 68.904,21.332 Z M79.528,23.096 L79.528,21.944 C79.528,20.996 79.504,20.504 79.372,19.832 C79.972,19.88 80.548,19.964 80.92,20.072 C81.076,20.108 81.148,20.18 81.148,20.288 C81.148,20.336 81.124,20.408 81.076,20.48 C80.944,20.732 80.92,20.984 80.92,21.548 L80.92,22.784 L84.052,22.052 C84.58,21.932 84.688,21.872 84.904,21.704 C84.964,21.656 85.024,21.632 85.072,21.632 C85.132,21.632 85.18,21.656 85.24,21.704 C85.492,21.86 85.876,22.196 86.128,22.484 C86.2,22.556 86.236,22.628 86.236,22.7 C86.236,22.784 86.176,22.868 86.08,22.94 C85.912,23.06 85.816,23.24 85.708,23.408 C85.096,24.44 84.496,25.316 83.8,26 C83.692,26.108 83.596,26.18 83.488,26.18 C83.416,26.18 83.344,26.156 83.26,26.096 C82.912,25.892 82.612,25.736 82.264,25.64 C83.092,24.92 83.68,24.116 84.22,23.24 L80.92,24.08 L80.92,26.804 C80.92,27.44 81.136,27.644 82.432,27.644 C83.404,27.644 84.52,27.524 85.336,27.38 C85.504,27.356 85.516,27.44 85.54,27.62 C85.6,27.944 85.648,28.304 85.648,28.628 C85.648,28.748 85.576,28.796 85.396,28.808 C84.676,28.892 83.848,28.952 82.528,28.952 C80.236,28.952 79.528,28.46 79.528,26.84 L79.528,24.416 L78.76,24.62 C78.112,24.788 77.44,24.968 77.068,25.136 C77.008,25.16 76.96,25.184 76.924,25.184 C76.84,25.184 76.792,25.124 76.732,24.992 C76.564,24.68 76.384,24.164 76.252,23.768 C77.008,23.672 77.692,23.552 78.508,23.348 L79.528,23.096 Z M95.504,22.46 L95.504,26.468 C96.092,26.156 96.644,25.784 97.208,25.352 C97.928,24.8 98.636,24.164 99.308,23.312 C99.356,23.732 99.476,24.128 99.68,24.524 C99.716,24.608 99.752,24.668 99.752,24.728 C99.752,24.812 99.704,24.896 99.572,25.028 C98.972,25.64 98.42,26.132 97.796,26.6 C97.172,27.08 96.5,27.548 95.66,28.04 C95.444,28.184 95.42,28.208 95.312,28.292 C95.24,28.352 95.156,28.388 95.072,28.388 C95,28.388 94.916,28.352 94.82,28.292 C94.556,28.112 94.28,27.8 94.1,27.56 C94.028,27.452 93.992,27.38 93.992,27.308 C93.992,27.248 94.004,27.2 94.04,27.128 C94.124,26.972 94.112,26.828 94.112,26.216 L94.112,22.46 C94.112,21.416 94.112,20.924 93.992,20.372 C94.472,20.432 95.132,20.516 95.492,20.624 C95.648,20.66 95.708,20.732 95.708,20.828 C95.708,20.9 95.672,21.008 95.612,21.128 C95.504,21.356 95.504,21.596 95.504,22.46 Z M91.316,21.128 C92,21.212 92.552,21.296 92.84,21.392 C93.044,21.452 93.068,21.596 92.996,21.764 C92.864,22.028 92.852,22.292 92.852,22.58 C92.828,24.08 92.6,25.22 92.204,26.108 C91.892,26.84 91.364,27.62 90.5,28.364 C90.38,28.46 90.284,28.52 90.188,28.52 C90.116,28.52 90.044,28.484 89.96,28.424 C89.66,28.22 89.372,28.076 88.94,27.92 C89.876,27.212 90.512,26.48 90.932,25.532 C91.268,24.716 91.424,24.056 91.436,22.136 C91.436,21.68 91.412,21.488 91.316,21.128 Z M106.752,21.44 L108.912,21.392 C109.224,21.38 109.38,21.332 109.512,21.248 C109.56,21.212 109.608,21.2 109.668,21.2 C109.728,21.2 109.788,21.224 109.86,21.272 C110.16,21.464 110.436,21.692 110.676,21.92 C110.784,22.016 110.832,22.112 110.832,22.196 C110.832,22.292 110.772,22.376 110.688,22.448 C110.52,22.58 110.4,22.748 110.292,22.964 C109.488,24.596 108.72,25.76 107.916,26.672 C106.884,27.836 105.456,29 104.268,29.66 C104.196,29.708 104.136,29.72 104.076,29.72 C103.98,29.72 103.896,29.672 103.8,29.588 C103.5,29.348 103.128,29.168 102.66,29.036 C104.532,28.004 105.48,27.248 106.656,25.976 C107.604,24.92 108.156,24.104 108.876,22.568 L105.972,22.652 C104.988,23.864 104.388,24.548 103.704,25.112 C103.62,25.196 103.536,25.244 103.452,25.244 C103.392,25.244 103.332,25.22 103.272,25.172 C102.972,24.956 102.528,24.74 102.12,24.656 C103.68,23.384 104.604,22.268 105.348,21.092 C105.744,20.42 105.924,20.048 106.056,19.472 C106.74,19.712 107.196,19.916 107.46,20.108 C107.544,20.168 107.58,20.24 107.58,20.312 C107.58,20.384 107.544,20.456 107.448,20.516 C107.328,20.588 107.244,20.72 107.148,20.84 C107.016,21.044 106.896,21.224 106.752,21.44 Z M109.764,20.216 L110.4,19.772 C110.46,19.724 110.508,19.736 110.58,19.796 C110.952,20.084 111.384,20.564 111.72,21.08 C111.768,21.152 111.768,21.212 111.684,21.272 L111.18,21.644 C111.096,21.704 111.036,21.692 110.976,21.608 C110.616,21.056 110.232,20.6 109.764,20.216 Z M110.868,19.424 L111.468,18.992 C111.54,18.944 111.576,18.956 111.648,19.016 C112.092,19.352 112.524,19.832 112.788,20.252 C112.836,20.324 112.848,20.396 112.752,20.468 L112.272,20.84 C112.176,20.912 112.116,20.876 112.068,20.804 C111.744,20.288 111.36,19.832 110.868,19.424 Z M120.532,21.152 L118.156,21.152 C117.616,21.152 117.016,21.164 116.512,21.2 C116.392,21.2 116.356,21.128 116.344,20.936 C116.308,20.684 116.284,20.156 116.284,19.784 C117.016,19.856 117.376,19.868 118.252,19.868 L120.412,19.868 C121.192,19.868 121.828,19.832 122.296,19.808 C122.404,19.808 122.44,19.868 122.44,20 C122.464,20.3 122.464,20.636 122.44,20.936 C122.44,21.14 122.404,21.188 122.224,21.176 C121.828,21.176 121.264,21.152 120.532,21.152 Z M121.444,23.72 L117.352,23.732 C116.752,23.732 116.152,23.744 115.552,23.78 C115.444,23.78 115.396,23.708 115.372,23.552 C115.3,23.252 115.276,22.808 115.24,22.34 C115.924,22.412 116.656,22.436 117.448,22.436 L121.564,22.436 C121.768,22.436 122.008,22.412 122.2,22.304 C122.26,22.256 122.308,22.232 122.356,22.232 C122.416,22.232 122.476,22.268 122.536,22.316 C122.824,22.544 123.148,22.844 123.34,23.06 C123.424,23.144 123.46,23.228 123.46,23.312 C123.46,23.384 123.424,23.468 123.328,23.54 C123.136,23.696 123.052,23.828 122.92,24.104 C121.72,26.66 120.34,28.16 118.024,29.408 C117.928,29.456 117.856,29.492 117.784,29.492 C117.7,29.492 117.616,29.444 117.52,29.348 C117.196,29.06 116.812,28.88 116.404,28.724 C118.624,27.692 120.58,26.036 121.444,23.72 Z M131.072,19.568 C131.804,19.784 132.32,19.952 132.692,20.192 C132.776,20.252 132.836,20.312 132.836,20.384 C132.836,20.444 132.8,20.528 132.716,20.624 C132.5,20.9 132.356,21.272 132.224,21.62 C131.552,23.456 130.916,25.22 130.16,27.02 C132.008,26.864 133.016,26.768 134.36,26.564 C133.988,25.904 133.544,25.244 133.028,24.644 C133.388,24.452 133.736,24.248 134.072,24.068 C134.204,23.996 134.276,24.044 134.36,24.14 C135.296,25.232 136.196,26.732 136.784,28.064 C136.82,28.124 136.832,28.172 136.832,28.22 C136.832,28.292 136.784,28.364 136.676,28.424 C136.388,28.616 136.088,28.772 135.764,28.916 C135.716,28.94 135.668,28.952 135.62,28.952 C135.548,28.952 135.488,28.892 135.452,28.784 C135.308,28.448 135.176,28.136 135.032,27.824 C133.112,28.112 131.288,28.316 129.332,28.52 C128.54,28.604 128.216,28.664 127.928,28.808 C127.772,28.88 127.64,28.856 127.58,28.688 C127.484,28.484 127.328,27.884 127.16,27.14 C127.64,27.176 128.144,27.164 128.624,27.152 C129.476,25.004 130.1,23.228 130.724,21.212 C130.916,20.588 131.036,20.168 131.072,19.568 Z" id="合同会社ピクセルグラム"></path>
                        </g>
                        <rect id="border" stroke="#979797" stroke-width="0.5" x="52.25" y="32.25" width="138.5" height="31.5"></rect>
                        <rect id="outborder" stroke="#979797" stroke-width="0.5" x="20.25" y="0.25" width="202.5" height="95.5"></rect>
                        <g id="4" transform="translate(190.000000, 63.000000)">
                            <g id="base" transform="translate(16.500000, 16.500000) rotate(180.000000) translate(-16.500000, -16.500000) " fill="black" fill-opacity="1">
                                <use filter="url(#filter-18)" xlink:href="#path-17"></use>
                            </g>
                            <text id="h" font-family=".AppleSystemUIFont" font-size="12" font-weight="normal" fill="#000000">
                                <tspan x="13" y="25">h</tspan>
                            </text>
                        </g>
                        <g id="3" transform="translate(20.000000, 63.000000)">
                            <g id="base" transform="translate(16.500000, 16.500000) rotate(-90.000000) translate(-16.500000, -16.500000) " fill="black" fill-opacity="1">
                                <use filter="url(#filter-20)" xlink:href="#path-19"></use>
                            </g>
                            <text id="h" font-family=".AppleSystemUIFont" font-size="12" font-weight="normal" fill="#000000">
                                <tspan x="13" y="25">h</tspan>
                            </text>
                        </g>
                        <g id="2" transform="translate(190.000000, 0.000000)">
                            <g id="base" transform="translate(16.500000, 16.500000) rotate(90.000000) translate(-16.500000, -16.500000) " fill="black" fill-opacity="1">
                                <use filter="url(#filter-22)" xlink:href="#path-21"></use>
                            </g>
                            <text id="h" font-family=".AppleSystemUIFont" font-size="12" font-weight="normal" fill="#000000">
                                <tspan x="13" y="21">h</tspan>
                            </text>
                        </g>
                        <g id="1" transform="translate(20.000000, 0.000000)">
                            <g id="base" fill="black" fill-opacity="1">
                                <use filter="url(#filter-24)" xlink:href="#path-23"></use>
                            </g>
                            <text id="h" font-family=".AppleSystemUIFont" font-size="12" font-weight="normal" fill="#000000">
                                <tspan x="13" y="21">h</tspan>
                            </text>
                        </g>
                        <g id="h" transform="translate(0.000000, 32.000000)">
                            <g id="base" fill="black" fill-opacity="1">
                                <use filter="url(#filter-26)" xlink:href="#path-25"></use>
                            </g>
                            <text font-family=".AppleSystemUIFont" font-size="12" font-weight="normal" fill="#000000">
                                <tspan x="0" y="20">h</tspan>
                            </text>
                        </g>
                    </g>
                </g>
            </g>
        </g>
    </g>
</svg>