<?xml version="1.0" encoding="UTF-8"?>
<svg width="137px" height="178px" viewBox="0 0 137 178" version="1.1" xmlns="http://www.w3.org/2000/svg" xmlns:xlink="http://www.w3.org/1999/xlink">
    <!-- Generator: Sketch 48.2 (47327) - http://www.bohemiancoding.com/sketch -->
    <title>Group 2</title>
    <desc>Created with Sketch.</desc>
    <defs></defs>
    <g id="Artboard" stroke="none" stroke-width="1" fill="none" fill-rule="evenodd" transform="translate(-242.000000, -1754.000000)">
        <g id="サイズ" transform="translate(0.000000, 1545.000000)" fill="#000000">
            <g id="社名ロゴ" transform="translate(160.000000, 209.000000)">
                <g id="Group-2" transform="translate(82.000000, 0.000000)">
                    <g id="社名ロゴ" transform="translate(0.000000, 85.000000)" fill-rule="nonzero">
                        <path d="M3.024,12 L1.264,12 L1.264,1.328 L5.488,1.328 C6.7146728,1.328 7.65866336,1.61333048 8.32,2.184 C8.98133664,2.75466952 9.312,3.59466112 9.312,4.704 C9.312,5.81333888 8.97867,6.66933032 8.312,7.272 C7.64533,7.8746697 6.70400608,8.176 5.488,8.176 L3.024,8.176 L3.024,12 Z M5.264,6.672 C6.10667088,6.672 6.68533176,6.4986684 7,6.152 C7.31466824,5.8053316 7.472,5.34400288 7.472,4.768 C7.472,4.17066368 7.31466824,3.69600176 7,3.344 C6.68533176,2.99199824 6.10667088,2.816 5.264,2.816 L3.024,2.816 L3.024,6.672 L5.264,6.672 Z M13.4439999,1.168 L15.2359999,1.168 L15.2359999,2.688 L13.4439999,2.688 L13.4439999,1.168 Z M13.4919999,4.016 L15.1719999,4.016 L15.1879999,12 L13.4919999,12 L13.4919999,4.016 Z M23.9919998,7.952 L26.9359998,12 L24.8879998,12 L22.8559998,9.184 L20.8079998,12 L18.9839998,12 L21.9919998,8 L19.0639998,3.968 L21.0959998,3.968 L23.1279998,6.752 L25.1279998,3.968 L26.9679998,3.968 L23.9919998,7.952 Z M33.6439997,3.776 C34.892006,3.776 35.8066635,4.17866264 36.3879997,4.984 C36.969336,5.78933736 37.2546664,6.91732608 37.2439997,8.368 L31.6119997,8.368 C31.6653333,9.1573373 31.897331,9.7573313 32.3079997,10.168 C32.7186684,10.5786687 33.3026626,10.784 34.0599997,10.784 C34.5506688,10.784 35.0199975,10.7226673 35.4679997,10.6 C35.916002,10.4773327 36.3106647,10.320001 36.6519997,10.128 L36.6519997,11.696 C35.8199956,12.0586685 34.8653384,12.24 33.7879997,12.24 C32.5826604,12.24 31.6360032,11.8746703 30.9479997,11.144 C30.2599963,10.4133297 29.9159997,9.3760067 29.9159997,8.032 C29.9159997,6.65599312 30.2413298,5.60267032 30.8919997,4.872 C31.5426696,4.14132968 32.4599938,3.776 33.6439997,3.776 Z M33.5959997,5.152 C33.0306636,5.152 32.5880013,5.30133184 32.2679997,5.6 C31.9479981,5.89866816 31.7400002,6.40532976 31.6439997,7.12 L35.5319997,7.12 C35.4573327,6.43732992 35.2653346,5.93866824 34.9559997,5.624 C34.6466648,5.30933176 34.193336,5.152 33.5959997,5.152 Z M41.2799996,12 L41.2799996,0.928 L42.9439996,0.928 L42.9439996,12 L41.2799996,12 Z M51.2199995,3.792 C52.1266707,3.792 52.8759966,3.96799824 53.4679995,4.32 C54.0600025,4.67200176 54.3559995,5.18932992 54.3559995,5.872 L54.3559995,12.24 C54.3559995,13.1573379 54.0573358,13.9039971 53.4599995,14.48 C52.8626632,15.0560029 51.9133394,15.344 50.6119995,15.344 C49.6626614,15.344 48.7986701,15.2000014 48.0199995,14.912 L48.0199995,13.376 C48.9053373,13.7066683 49.7266624,13.872 50.4839995,13.872 C51.3373371,13.872 51.9186646,13.7200015 52.2279995,13.416 C52.5373344,13.1119985 52.6919995,12.7093358 52.6919995,12.208 L52.6919995,11.664 C52.3826646,11.8346675 52.0440014,11.9733328 51.6759995,12.08 C51.3079977,12.1866672 50.9480013,12.24 50.5959995,12.24 C49.4226603,12.2186666 48.5293359,11.8613368 47.9159995,11.168 C47.3026631,10.4746632 46.9959995,9.4880064 46.9959995,8.208 C46.9959995,6.54399168 47.3799957,5.3920032 48.1479995,4.752 C48.9160034,4.1119968 49.9399931,3.792 51.2199995,3.792 Z M48.7079995,8.16 C48.7079995,8.9920042 48.889331,9.6506642 49.2519995,10.136 C49.614668,10.6213358 50.1533293,10.864 50.8679995,10.864 C51.5613363,10.864 52.1693302,10.7093349 52.6919995,10.4 L52.6919995,6.192 C52.6919995,5.8186648 52.5506676,5.56266736 52.2679995,5.424 C51.9853314,5.28533264 51.6040019,5.216 51.1239995,5.216 C50.2173283,5.216 49.5880013,5.47733072 49.2359995,6 C48.8839978,6.52266928 48.7079995,7.2426621 48.7079995,8.16 Z M58.7759994,4.704 C59.0746676,4.52266576 59.5813292,4.3253344 60.2959994,4.112 C61.0106697,3.8986656 61.7199959,3.792 62.4239994,3.792 C62.8506682,3.792 63.2133313,3.86133264 63.5119994,4 L63.5119994,5.344 C63.2133313,5.30133312 62.8560015,5.28 62.4399994,5.28 C61.7359959,5.28 61.0746692,5.3333328 60.4559994,5.44 L60.4559994,12 L58.7759994,12 L58.7759994,4.704 Z M70.7319993,3.792 C71.6066704,3.792 72.3506629,4.00266456 72.9639993,4.424 C73.5773357,4.84533544 73.8786661,5.52532864 73.8679993,6.464 L73.8679993,10.304 C73.8679993,11.029337 73.5480025,11.5333319 72.9079993,11.816 C72.2679961,12.0986681 71.3560053,12.24 70.1719993,12.24 C69.2226613,12.24 68.4386691,12.0426686 67.8199993,11.648 C67.2013296,11.2533314 66.8919993,10.5920046 66.8919993,9.664 C66.8919993,8.789329 67.1453301,8.1333355 67.6519993,7.696 C68.1586685,7.2586645 68.8759947,7.04 69.8039993,7.04 C70.7640041,7.04 71.5639961,7.2319981 72.2039993,7.616 L72.2039993,6.848 C72.2039993,5.75999456 71.5480059,5.216 70.2359993,5.216 C69.7666637,5.216 69.297335,5.28799928 68.8279993,5.432 C68.3586637,5.57600072 67.9693342,5.77599872 67.6599993,6.032 L67.6599993,4.464 C67.9586675,4.27199904 68.3933298,4.11200064 68.9639993,3.984 C69.5346689,3.85599936 70.1239963,3.792 70.7319993,3.792 Z M70.3639993,10.928 C71.0360027,10.928 71.5106646,10.8800005 71.7879993,10.784 C72.0653341,10.6879995 72.2039993,10.4960014 72.2039993,10.208 L72.2039993,8.656 C71.6599966,8.4213322 71.0626693,8.304 70.4119993,8.304 C69.8039963,8.304 69.3426676,8.4106656 69.0279993,8.624 C68.7133311,8.8373344 68.5559993,9.1573312 68.5559993,9.584 C68.5559993,10.0320022 68.7346642,10.3679989 69.0919993,10.592 C69.4493345,10.8160011 69.8733302,10.928 70.3639993,10.928 Z M87.1039992,3.792 C88.2240048,3.792 89.0426633,4.02666432 89.5599992,4.496 C90.0773352,4.96533568 90.3359992,5.69599504 90.3359992,6.688 L90.3359992,12 L88.6559992,12 L88.6559992,6.912 C88.6559992,5.7919944 88.0213389,5.232 86.7519992,5.232 C86.1866631,5.232 85.6693349,5.37599856 85.1999992,5.664 C85.2746663,5.95200144 85.3119992,6.29333136 85.3119992,6.688 L85.3119992,12 L83.6319992,12 L83.6319992,6.912 C83.6319992,5.7919944 82.9973389,5.232 81.7279992,5.232 C81.1519964,5.232 80.5866687,5.33333232 80.0319992,5.536 L80.0319992,12 L78.3519992,12 L78.3519992,4.624 C78.8320016,4.37866544 79.4159958,4.17866744 80.1039992,4.024 C80.7920027,3.86933256 81.4506628,3.792 82.0799992,3.792 C83.1253378,3.792 83.9039967,3.99466464 84.4159992,4.4 C85.2800036,3.99466464 86.1759946,3.792 87.1039992,3.792 Z M101.527999,1.328 L103.303999,1.328 L103.303999,10.496 L108.407999,10.496 L108.407999,12 L101.527999,12 L101.527999,1.328 Z M112.219999,1.328 L113.995999,1.328 L113.995999,10.496 L119.099999,10.496 L119.099999,12 L112.219999,12 L112.219999,1.328 Z M127.487999,12.16 C124.106649,12.16 122.415999,10.3253517 122.415999,6.656 C122.415999,2.98664832 124.106649,1.152 127.487999,1.152 C128.586671,1.152 129.69066,1.41333072 130.799999,1.936 L130.799999,3.52 C129.775994,2.92266368 128.746671,2.624 127.711999,2.624 C126.517326,2.624 125.640002,2.9439968 125.079999,3.584 C124.519996,4.2240032 124.239999,5.25332624 124.239999,6.672 C124.239999,8.0906738 124.522663,9.1119969 125.087999,9.736 C125.653335,10.3600031 126.543993,10.672 127.759999,10.672 C128.805337,10.672 129.818661,10.3840029 130.799999,9.808 L130.799999,11.392 C130.30933,11.6373346 129.773335,11.826666 129.191999,11.96 C128.610663,12.093334 128.042668,12.16 127.487999,12.16 Z M134.883999,10.128 L136.787999,10.128 L136.787999,12 L134.883999,12 L134.883999,10.128 Z" id="Pixelgram-LLC."></path>
                        <path d="M3.46000006,29.9 L2.44000006,29.9 C2.32000006,29.9 2.30800006,29.888 2.30800006,29.768 C2.30800006,29.696 2.33200006,29.372 2.33200006,27.632 L2.33200006,26.6 C2.33200006,25.568 2.30800006,25.22 2.30800006,25.148 C2.30800006,25.028 2.32000006,25.016 2.44000006,25.016 C2.51200006,25.016 2.93200006,25.04 4.08400006,25.04 L7.92400006,25.04 C9.0760001,25.04 9.4960001,25.016 9.5680001,25.016 C9.7000001,25.016 9.7120001,25.028 9.7120001,25.148 C9.7120001,25.22 9.6880001,25.568 9.6880001,26.42 L9.6880001,27.596 C9.6880001,29.324 9.7120001,29.648 9.7120001,29.708 C9.7120001,29.828 9.7000001,29.84 9.5680001,29.84 L8.54800006,29.84 C8.42800006,29.84 8.41600006,29.828 8.41600006,29.708 L8.41600006,29.312 L3.60400006,29.312 L3.60400006,29.768 C3.60400006,29.888 3.59200006,29.9 3.46000006,29.9 Z M3.60400006,26.132 L3.60400006,28.22 L8.41600006,28.22 L8.41600006,26.132 L3.60400006,26.132 Z M3.58000006,23.768 L3.58000006,22.904 C2.88400006,23.444 2.14000006,23.912 1.36000006,24.32 C1.21600006,24.392 1.14400006,24.44 1.08400006,24.44 C1.00000006,24.44 0.95200006,24.356 0.85600006,24.14 C0.70000006,23.816 0.50800006,23.552 0.29200006,23.336 C2.50000006,22.34 3.92800006,21.092 4.91200006,19.664 C5.12800006,19.352 5.26000006,19.124 5.38000006,18.812 C5.84800006,18.884 6.29200006,18.956 6.64000006,19.04 C6.78400006,19.088 6.85600006,19.124 6.85600006,19.232 C6.85600006,19.292 6.83200006,19.352 6.73600006,19.412 C6.70000006,19.436 6.66400006,19.46 6.64000006,19.496 C8.06800006,21.32 9.7360001,22.436 11.7640001,23.156 C11.5600001,23.408 11.3800001,23.732 11.2600001,24.068 C11.1880001,24.296 11.1400001,24.38 11.0440001,24.38 C10.9840001,24.38 10.8880001,24.344 10.7560001,24.272 C9.9040001,23.888 9.1240001,23.444 8.41600006,22.928 L8.41600006,23.768 C8.41600006,23.888 8.40400006,23.9 8.28400006,23.9 C8.21200006,23.9 7.88800006,23.876 6.92800006,23.876 L5.06800006,23.876 C4.10800006,23.876 3.79600006,23.9 3.71200006,23.9 C3.59200006,23.9 3.58000006,23.888 3.58000006,23.768 Z M5.06800006,22.76 L6.92800006,22.76 C7.63600006,22.76 7.99600006,22.748 8.16400006,22.748 C7.30000006,22.088 6.56800006,21.32 5.95600006,20.468 C5.33200006,21.332 4.58800006,22.076 3.77200006,22.736 C3.91600006,22.748 4.25200006,22.76 5.06800006,22.76 Z M23.684,22.136 L23.684,26.432 C23.684,27.476 23.708,28.1 23.708,28.508 C23.696,28.952 23.576,29.264 23.324,29.492 C23.084,29.684 22.64,29.816 21.512,29.816 C21.14,29.816 21.14,29.828 21.056,29.432 C20.984,29.108 20.876,28.76 20.72,28.484 C21.248,28.544 21.692,28.556 21.944,28.556 C22.292,28.556 22.412,28.436 22.412,28.148 L22.412,20.624 L15.032,20.624 L15.032,27.596 C15.032,28.988 15.056,29.696 15.056,29.768 C15.056,29.888 15.044,29.9 14.912,29.9 L13.868,29.9 C13.748,29.9 13.736,29.888 13.736,29.768 C13.736,29.684 13.76,28.892 13.76,27.26 L13.76,22.1 C13.76,20.468 13.736,19.652 13.736,19.568 C13.736,19.448 13.748,19.436 13.868,19.436 C13.952,19.436 14.348,19.46 15.464,19.46 L21.98,19.46 C23.096,19.46 23.492,19.436 23.576,19.436 C23.696,19.436 23.708,19.448 23.708,19.568 C23.708,19.652 23.684,20.504 23.684,22.136 Z M17.408,28.268 L16.496,28.268 C16.376,28.268 16.364,28.256 16.364,28.136 C16.364,28.052 16.388,27.752 16.388,26.12 L16.388,25.136 C16.388,24.188 16.364,23.876 16.364,23.792 C16.364,23.672 16.376,23.66 16.496,23.66 C16.58,23.66 16.892,23.684 17.816,23.684 L19.532,23.684 C20.48,23.684 20.78,23.66 20.864,23.66 C20.984,23.66 20.996,23.672 20.996,23.792 C20.996,23.864 20.972,24.176 20.972,24.92 L20.972,25.928 C20.972,27.524 20.996,27.812 20.996,27.884 C20.996,28.016 20.984,28.028 20.864,28.028 L19.952,28.028 C19.832,28.028 19.82,28.016 19.82,27.884 L19.82,27.5 L17.54,27.5 L17.54,28.136 C17.54,28.256 17.528,28.268 17.408,28.268 Z M17.54,24.74 L17.54,26.444 L19.82,26.444 L19.82,24.74 L17.54,24.74 Z M19.952,22.688 L17.432,22.688 C16.376,22.688 16.016,22.712 15.932,22.712 C15.812,22.712 15.8,22.7 15.8,22.568 L15.8,21.68 C15.8,21.56 15.812,21.548 15.932,21.548 C16.016,21.548 16.376,21.572 17.432,21.572 L19.952,21.572 C21.008,21.572 21.38,21.548 21.452,21.548 C21.572,21.548 21.584,21.56 21.584,21.68 L21.584,22.568 C21.584,22.7 21.572,22.712 21.452,22.712 C21.38,22.712 21.008,22.688 19.952,22.688 Z M29.472,26.012 L28.224,26.012 C27.096,26.012 26.712,26.036 26.64,26.036 C26.508,26.036 26.496,26.024 26.496,25.904 L26.496,25.004 C26.496,24.884 26.508,24.872 26.64,24.872 C26.712,24.872 27.096,24.896 28.224,24.896 L34.62,24.896 C35.748,24.896 36.132,24.872 36.204,24.872 C36.336,24.872 36.348,24.884 36.348,25.004 L36.348,25.904 C36.348,26.024 36.336,26.036 36.204,26.036 C36.132,26.036 35.748,26.012 34.62,26.012 L30.912,26.012 C30.612,26.756 30.252,27.512 29.844,28.268 C31.092,28.196 32.4,28.088 33.54,27.968 C33.264,27.632 32.988,27.296 32.664,26.948 C32.58,26.852 32.592,26.804 32.736,26.732 L33.504,26.336 C33.636,26.264 33.672,26.276 33.756,26.36 C34.572,27.212 35.256,28.076 35.988,29.144 C36.048,29.24 36.048,29.288 35.928,29.372 L35.1,29.912 C35.028,29.96 34.992,29.984 34.956,29.984 C34.92,29.984 34.896,29.96 34.86,29.9 C34.656,29.564 34.452,29.252 34.26,28.964 C32.268,29.216 29.82,29.42 27.78,29.576 C27.588,29.588 27.432,29.636 27.348,29.684 C27.288,29.732 27.228,29.756 27.144,29.756 C27.06,29.756 27,29.696 26.976,29.588 C26.868,29.192 26.796,28.772 26.724,28.352 C27.168,28.388 27.564,28.376 28.032,28.352 C28.152,28.352 28.284,28.34 28.416,28.34 C28.848,27.524 29.196,26.756 29.472,26.012 Z M28.992,23.672 L28.992,22.76 C28.32,23.252 27.588,23.684 26.82,24.056 C26.676,24.128 26.592,24.164 26.532,24.164 C26.448,24.164 26.412,24.08 26.316,23.864 C26.172,23.564 26.004,23.3 25.776,23.072 C27.864,22.244 29.424,20.972 30.384,19.58 C30.588,19.28 30.696,19.076 30.804,18.8 C31.272,18.86 31.716,18.944 32.1,19.052 C32.244,19.088 32.316,19.136 32.316,19.22 C32.316,19.292 32.292,19.364 32.196,19.412 C32.124,19.448 32.076,19.484 32.028,19.52 C33.384,21.176 35.004,22.22 37.104,22.952 C36.876,23.24 36.72,23.528 36.588,23.852 C36.504,24.068 36.468,24.152 36.384,24.152 C36.324,24.152 36.24,24.116 36.108,24.056 C35.292,23.696 34.512,23.276 33.816,22.784 L33.816,23.672 C33.816,23.792 33.804,23.804 33.684,23.804 C33.612,23.804 33.288,23.78 32.328,23.78 L30.48,23.78 C29.52,23.78 29.196,23.804 29.124,23.804 C29.004,23.804 28.992,23.792 28.992,23.672 Z M30.48,22.664 L32.328,22.664 C33.132,22.664 33.492,22.652 33.624,22.64 C32.76,22.016 32.004,21.284 31.356,20.444 C30.72,21.284 29.988,22.016 29.16,22.64 C29.268,22.652 29.604,22.664 30.48,22.664 Z M47.824,29.504 L44.452,29.504 C43.312,29.504 42.916,29.528 42.844,29.528 C42.724,29.528 42.712,29.516 42.712,29.396 L42.712,28.448 C42.712,28.328 42.724,28.316 42.844,28.316 C42.916,28.316 43.312,28.34 44.452,28.34 L45.46,28.34 L45.46,23.852 L44.92,23.852 C43.852,23.852 43.48,23.864 43.408,23.864 C43.3,23.864 43.288,23.864 43.288,23.744 L43.288,22.796 C43.288,22.676 43.3,22.676 43.408,22.676 C43.48,22.676 43.852,22.688 44.92,22.688 L45.46,22.688 L45.46,20.78 C45.46,19.928 45.448,19.52 45.364,18.968 C45.82,18.98 46.276,19.004 46.696,19.052 C46.804,19.064 46.888,19.112 46.888,19.172 C46.888,19.268 46.876,19.328 46.828,19.424 C46.756,19.568 46.732,19.868 46.732,20.744 L46.732,22.688 L47.488,22.688 C48.556,22.688 48.928,22.676 49,22.676 C49.12,22.676 49.132,22.676 49.132,22.796 L49.132,23.744 C49.132,23.864 49.12,23.864 49,23.864 C48.928,23.864 48.556,23.852 47.488,23.852 L46.732,23.852 L46.732,28.34 L47.824,28.34 C48.964,28.34 49.348,28.316 49.42,28.316 C49.552,28.316 49.564,28.328 49.564,28.448 L49.564,29.396 C49.564,29.516 49.552,29.528 49.42,29.528 C49.348,29.528 48.964,29.504 47.824,29.504 Z M40.444,28.412 L40.444,25.544 C40.072,25.904 39.7,26.24 39.304,26.54 C39.184,26.636 39.112,26.696 39.052,26.696 C38.98,26.696 38.932,26.6 38.86,26.42 C38.74,26.084 38.596,25.772 38.44,25.568 C39.844,24.68 40.972,23.384 41.572,22.016 L40.216,22.016 C39.304,22.016 39.016,22.04 38.944,22.04 C38.824,22.04 38.812,22.028 38.812,21.908 L38.812,21.02 C38.812,20.9 38.824,20.888 38.944,20.888 C39.016,20.888 39.304,20.912 40.216,20.912 L40.444,20.912 L40.444,20.42 C40.444,19.784 40.432,19.4 40.348,18.956 C40.804,18.968 41.164,18.992 41.596,19.04 C41.716,19.052 41.788,19.112 41.788,19.16 C41.788,19.268 41.752,19.328 41.716,19.412 C41.644,19.556 41.644,19.76 41.644,20.372 L41.644,20.912 L42.148,20.912 C42.256,20.912 42.316,20.9 42.376,20.864 C42.424,20.84 42.472,20.816 42.508,20.816 C42.58,20.816 42.7,20.888 42.952,21.128 C43.18,21.356 43.276,21.476 43.276,21.56 C43.276,21.62 43.252,21.68 43.156,21.752 C43.048,21.86 42.976,21.92 42.88,22.1 C42.592,22.712 42.244,23.3 41.86,23.852 C42.328,24.392 42.892,24.824 43.624,25.256 C43.444,25.448 43.276,25.736 43.144,26.036 C43.06,26.216 43,26.3 42.916,26.3 C42.856,26.3 42.784,26.252 42.676,26.156 C42.292,25.808 41.944,25.424 41.644,25.04 L41.644,28.412 C41.644,29.3 41.668,29.768 41.668,29.828 C41.668,29.948 41.656,29.96 41.524,29.96 L40.564,29.96 C40.432,29.96 40.42,29.948 40.42,29.828 C40.42,29.756 40.444,29.3 40.444,28.412 Z M54.596,21.932 L54.596,23.6 C55.652,23.252 56.564,22.904 57.524,22.436 C58.172,22.124 58.472,21.932 58.808,21.572 C59.228,21.92 59.624,22.412 59.804,22.652 C59.948,22.82 59.936,23.024 59.696,23.084 C59.36,23.168 59.024,23.336 58.7,23.48 C57.512,24.02 56.168,24.5 54.584,24.968 L54.584,26.564 C54.584,27.128 54.668,27.32 54.98,27.416 C55.292,27.5 55.76,27.548 56.492,27.548 C57.62,27.548 58.628,27.464 59.876,27.272 C60.056,27.248 60.08,27.296 60.092,27.44 C60.128,27.776 60.164,28.232 60.164,28.484 C60.164,28.64 60.092,28.688 59.912,28.7 C58.556,28.868 57.86,28.916 56.348,28.916 C55.28,28.916 54.572,28.808 54.068,28.592 C53.468,28.34 53.216,27.776 53.216,26.792 L53.216,22.364 C53.216,21.224 53.192,20.768 53.096,20.168 C53.66,20.228 54.224,20.3 54.608,20.408 C54.872,20.468 54.824,20.672 54.716,20.852 C54.62,21.044 54.596,21.368 54.596,21.932 Z M60.944,19.64 C61.664,19.64 62.24,20.204 62.24,20.924 C62.24,21.644 61.664,22.208 60.944,22.208 C60.224,22.208 59.648,21.644 59.648,20.924 C59.648,20.18 60.224,19.64 60.944,19.64 Z M60.944,20.216 C60.536,20.216 60.236,20.516 60.236,20.924 C60.236,21.332 60.536,21.632 60.944,21.632 C61.352,21.632 61.652,21.332 61.652,20.924 C61.652,20.516 61.352,20.216 60.944,20.216 Z M68.904,21.332 L71.064,21.284 C71.376,21.272 71.532,21.224 71.664,21.14 C71.712,21.104 71.76,21.092 71.82,21.092 C71.88,21.092 71.94,21.116 72.012,21.164 C72.312,21.356 72.588,21.584 72.828,21.812 C72.936,21.908 72.984,22.004 72.984,22.088 C72.984,22.184 72.924,22.268 72.84,22.34 C72.672,22.472 72.552,22.64 72.444,22.856 C71.64,24.488 70.872,25.652 70.068,26.564 C69.036,27.728 67.608,28.892 66.42,29.552 C66.348,29.6 66.288,29.612 66.228,29.612 C66.132,29.612 66.048,29.564 65.952,29.48 C65.652,29.24 65.28,29.06 64.812,28.928 C66.684,27.896 67.632,27.14 68.808,25.868 C69.756,24.812 70.308,23.996 71.028,22.46 L68.124,22.544 C67.14,23.756 66.54,24.44 65.856,25.004 C65.772,25.088 65.688,25.136 65.604,25.136 C65.544,25.136 65.484,25.112 65.424,25.064 C65.124,24.848 64.68,24.632 64.272,24.548 C65.832,23.276 66.756,22.16 67.5,20.984 C67.896,20.312 68.076,19.94 68.208,19.364 C68.892,19.604 69.348,19.808 69.612,20 C69.696,20.06 69.732,20.132 69.732,20.204 C69.732,20.276 69.696,20.348 69.6,20.408 C69.48,20.48 69.396,20.612 69.3,20.732 C69.168,20.936 69.048,21.116 68.904,21.332 Z M79.528,23.096 L79.528,21.944 C79.528,20.996 79.504,20.504 79.372,19.832 C79.972,19.88 80.548,19.964 80.92,20.072 C81.076,20.108 81.148,20.18 81.148,20.288 C81.148,20.336 81.124,20.408 81.076,20.48 C80.944,20.732 80.92,20.984 80.92,21.548 L80.92,22.784 L84.052,22.052 C84.58,21.932 84.688,21.872 84.904,21.704 C84.964,21.656 85.024,21.632 85.072,21.632 C85.132,21.632 85.18,21.656 85.24,21.704 C85.492,21.86 85.876,22.196 86.128,22.484 C86.2,22.556 86.236,22.628 86.236,22.7 C86.236,22.784 86.176,22.868 86.08,22.94 C85.912,23.06 85.816,23.24 85.708,23.408 C85.096,24.44 84.496,25.316 83.8,26 C83.692,26.108 83.596,26.18 83.488,26.18 C83.416,26.18 83.344,26.156 83.26,26.096 C82.912,25.892 82.612,25.736 82.264,25.64 C83.092,24.92 83.68,24.116 84.22,23.24 L80.92,24.08 L80.92,26.804 C80.92,27.44 81.136,27.644 82.432,27.644 C83.404,27.644 84.52,27.524 85.336,27.38 C85.504,27.356 85.516,27.44 85.54,27.62 C85.6,27.944 85.648,28.304 85.648,28.628 C85.648,28.748 85.576,28.796 85.396,28.808 C84.676,28.892 83.848,28.952 82.528,28.952 C80.236,28.952 79.528,28.46 79.528,26.84 L79.528,24.416 L78.76,24.62 C78.112,24.788 77.44,24.968 77.068,25.136 C77.008,25.16 76.96,25.184 76.924,25.184 C76.84,25.184 76.792,25.124 76.732,24.992 C76.564,24.68 76.384,24.164 76.252,23.768 C77.008,23.672 77.692,23.552 78.508,23.348 L79.528,23.096 Z M95.504,22.46 L95.504,26.468 C96.092,26.156 96.644,25.784 97.208,25.352 C97.928,24.8 98.636,24.164 99.308,23.312 C99.356,23.732 99.476,24.128 99.68,24.524 C99.716,24.608 99.752,24.668 99.752,24.728 C99.752,24.812 99.704,24.896 99.572,25.028 C98.972,25.64 98.42,26.132 97.796,26.6 C97.172,27.08 96.5,27.548 95.66,28.04 C95.444,28.184 95.42,28.208 95.312,28.292 C95.24,28.352 95.156,28.388 95.072,28.388 C95,28.388 94.916,28.352 94.82,28.292 C94.556,28.112 94.28,27.8 94.1,27.56 C94.028,27.452 93.992,27.38 93.992,27.308 C93.992,27.248 94.004,27.2 94.04,27.128 C94.124,26.972 94.112,26.828 94.112,26.216 L94.112,22.46 C94.112,21.416 94.112,20.924 93.992,20.372 C94.472,20.432 95.132,20.516 95.492,20.624 C95.648,20.66 95.708,20.732 95.708,20.828 C95.708,20.9 95.672,21.008 95.612,21.128 C95.504,21.356 95.504,21.596 95.504,22.46 Z M91.316,21.128 C92,21.212 92.552,21.296 92.84,21.392 C93.044,21.452 93.068,21.596 92.996,21.764 C92.864,22.028 92.852,22.292 92.852,22.58 C92.828,24.08 92.6,25.22 92.204,26.108 C91.892,26.84 91.364,27.62 90.5,28.364 C90.38,28.46 90.284,28.52 90.188,28.52 C90.116,28.52 90.044,28.484 89.96,28.424 C89.66,28.22 89.372,28.076 88.94,27.92 C89.876,27.212 90.512,26.48 90.932,25.532 C91.268,24.716 91.424,24.056 91.436,22.136 C91.436,21.68 91.412,21.488 91.316,21.128 Z M106.752,21.44 L108.912,21.392 C109.224,21.38 109.38,21.332 109.512,21.248 C109.56,21.212 109.608,21.2 109.668,21.2 C109.728,21.2 109.788,21.224 109.86,21.272 C110.16,21.464 110.436,21.692 110.676,21.92 C110.784,22.016 110.832,22.112 110.832,22.196 C110.832,22.292 110.772,22.376 110.688,22.448 C110.52,22.58 110.4,22.748 110.292,22.964 C109.488,24.596 108.72,25.76 107.916,26.672 C106.884,27.836 105.456,29 104.268,29.66 C104.196,29.708 104.136,29.72 104.076,29.72 C103.98,29.72 103.896,29.672 103.8,29.588 C103.5,29.348 103.128,29.168 102.66,29.036 C104.532,28.004 105.48,27.248 106.656,25.976 C107.604,24.92 108.156,24.104 108.876,22.568 L105.972,22.652 C104.988,23.864 104.388,24.548 103.704,25.112 C103.62,25.196 103.536,25.244 103.452,25.244 C103.392,25.244 103.332,25.22 103.272,25.172 C102.972,24.956 102.528,24.74 102.12,24.656 C103.68,23.384 104.604,22.268 105.348,21.092 C105.744,20.42 105.924,20.048 106.056,19.472 C106.74,19.712 107.196,19.916 107.46,20.108 C107.544,20.168 107.58,20.24 107.58,20.312 C107.58,20.384 107.544,20.456 107.448,20.516 C107.328,20.588 107.244,20.72 107.148,20.84 C107.016,21.044 106.896,21.224 106.752,21.44 Z M109.764,20.216 L110.4,19.772 C110.46,19.724 110.508,19.736 110.58,19.796 C110.952,20.084 111.384,20.564 111.72,21.08 C111.768,21.152 111.768,21.212 111.684,21.272 L111.18,21.644 C111.096,21.704 111.036,21.692 110.976,21.608 C110.616,21.056 110.232,20.6 109.764,20.216 Z M110.868,19.424 L111.468,18.992 C111.54,18.944 111.576,18.956 111.648,19.016 C112.092,19.352 112.524,19.832 112.788,20.252 C112.836,20.324 112.848,20.396 112.752,20.468 L112.272,20.84 C112.176,20.912 112.116,20.876 112.068,20.804 C111.744,20.288 111.36,19.832 110.868,19.424 Z M120.532,21.152 L118.156,21.152 C117.616,21.152 117.016,21.164 116.512,21.2 C116.392,21.2 116.356,21.128 116.344,20.936 C116.308,20.684 116.284,20.156 116.284,19.784 C117.016,19.856 117.376,19.868 118.252,19.868 L120.412,19.868 C121.192,19.868 121.828,19.832 122.296,19.808 C122.404,19.808 122.44,19.868 122.44,20 C122.464,20.3 122.464,20.636 122.44,20.936 C122.44,21.14 122.404,21.188 122.224,21.176 C121.828,21.176 121.264,21.152 120.532,21.152 Z M121.444,23.72 L117.352,23.732 C116.752,23.732 116.152,23.744 115.552,23.78 C115.444,23.78 115.396,23.708 115.372,23.552 C115.3,23.252 115.276,22.808 115.24,22.34 C115.924,22.412 116.656,22.436 117.448,22.436 L121.564,22.436 C121.768,22.436 122.008,22.412 122.2,22.304 C122.26,22.256 122.308,22.232 122.356,22.232 C122.416,22.232 122.476,22.268 122.536,22.316 C122.824,22.544 123.148,22.844 123.34,23.06 C123.424,23.144 123.46,23.228 123.46,23.312 C123.46,23.384 123.424,23.468 123.328,23.54 C123.136,23.696 123.052,23.828 122.92,24.104 C121.72,26.66 120.34,28.16 118.024,29.408 C117.928,29.456 117.856,29.492 117.784,29.492 C117.7,29.492 117.616,29.444 117.52,29.348 C117.196,29.06 116.812,28.88 116.404,28.724 C118.624,27.692 120.58,26.036 121.444,23.72 Z M131.072,19.568 C131.804,19.784 132.32,19.952 132.692,20.192 C132.776,20.252 132.836,20.312 132.836,20.384 C132.836,20.444 132.8,20.528 132.716,20.624 C132.5,20.9 132.356,21.272 132.224,21.62 C131.552,23.456 130.916,25.22 130.16,27.02 C132.008,26.864 133.016,26.768 134.36,26.564 C133.988,25.904 133.544,25.244 133.028,24.644 C133.388,24.452 133.736,24.248 134.072,24.068 C134.204,23.996 134.276,24.044 134.36,24.14 C135.296,25.232 136.196,26.732 136.784,28.064 C136.82,28.124 136.832,28.172 136.832,28.22 C136.832,28.292 136.784,28.364 136.676,28.424 C136.388,28.616 136.088,28.772 135.764,28.916 C135.716,28.94 135.668,28.952 135.62,28.952 C135.548,28.952 135.488,28.892 135.452,28.784 C135.308,28.448 135.176,28.136 135.032,27.824 C133.112,28.112 131.288,28.316 129.332,28.52 C128.54,28.604 128.216,28.664 127.928,28.808 C127.772,28.88 127.64,28.856 127.58,28.688 C127.484,28.484 127.328,27.884 127.16,27.14 C127.64,27.176 128.144,27.164 128.624,27.152 C129.476,25.004 130.1,23.228 130.724,21.212 C130.916,20.588 131.036,20.168 131.072,19.568 Z" id="合同会社ピクセルグラム"></path>
                    </g>
                    <path d="M38.3010157,8.4432133 L38.3010157,13.654663 C38.3010157,14.3139428 38.33241,14.7691597 38.3951985,15.1929825 L37.2336103,15.1929825 C37.2963989,14.7377655 37.3277932,14.2982456 37.3277932,13.6389658 L37.3277932,8.75715605 C36.5586334,9.52631579 36.1348107,9.88734995 35.1615882,10.6094183 C34.9889197,10.232687 34.8633426,10.0443213 34.5807941,9.73037858 C35.6795937,9.03970452 36.5429363,8.33333333 37.4062789,7.40720222 C38.22253,6.52816251 38.7405355,5.75900277 39.3527239,4.48753463 L36.4173592,4.48753463 C35.9464451,4.48753463 35.601108,4.50323176 35.1615882,4.55032318 L35.1615882,3.5143121 C35.5854109,3.56140351 35.9307479,3.57710065 36.3859649,3.57710065 L37.312096,3.57710065 L37.312096,2.11726685 C37.312096,1.66204986 37.2807018,1.25392428 37.2336103,0.908587258 L38.4108957,0.908587258 C38.3481071,1.23822715 38.3167128,1.64635272 38.3167128,2.13296399 L38.3167128,3.57710065 L39.2271468,3.57710065 C39.6980609,3.57710065 39.9492151,3.56140351 40.1375808,3.53000923 L40.6241921,4.07940905 C40.5143121,4.25207756 40.4201293,4.42474608 40.2474608,4.75438596 C39.7765466,5.71191136 39.2585411,6.51246537 38.5207756,7.42289935 C39.3213296,8.34903047 39.9649123,8.89843029 41.0480148,9.55771006 C40.8125577,9.85595568 40.6712835,10.0757156 40.5143121,10.4210526 C39.5253924,9.73037858 38.9445983,9.21237304 38.3010157,8.4432133 Z M43.7479224,5.77469991 L43.7479224,2.38411819 C43.7479224,1.85041551 43.7165282,1.5521699 43.6380425,0.95567867 L44.8781163,0.95567867 C44.7839335,1.50507849 44.7682364,1.85041551 44.7682364,2.38411819 L44.7682364,5.77469991 L46.8245614,5.77469991 C47.4995383,5.77469991 47.923361,5.74330563 48.3628809,5.68051708 L48.3628809,6.77931671 C47.8762696,6.7322253 47.3739612,6.70083102 46.8245614,6.70083102 L44.7682364,6.70083102 L44.7682364,13.4035088 L47.2483841,13.4035088 C48.0646353,13.4035088 48.5355494,13.3721145 48.943675,13.3093259 L48.943675,14.4866113 C48.4256694,14.4081256 47.9390582,14.3767313 47.2483841,14.3767313 L41.5974146,14.3767313 C40.9067405,14.3767313 40.4201293,14.4081256 39.9178209,14.4866113 L39.9178209,13.3093259 C40.3259464,13.3721145 40.7968606,13.4035088 41.6131117,13.4035088 L43.7479224,13.4035088 L43.7479224,6.70083102 L42.1939058,6.70083102 C41.6602031,6.70083102 41.1421976,6.7322253 40.6555863,6.77931671 L40.6555863,5.68051708 C41.0637119,5.74330563 41.534626,5.77469991 42.1939058,5.77469991 L43.7479224,5.77469991 Z M54.5004617,5.58633426 L55.2382271,5.0212373 C56.3841182,5.74330563 56.7451524,5.99445983 57.5457064,6.70083102 C58.7857802,5.60203139 59.5078486,4.80147738 60.5752539,3.35734072 L55.8818098,3.35734072 C54.6888273,4.73868883 53.3859649,5.82179132 51.5807941,6.92059095 C51.3924284,6.62234534 51.2511542,6.43397969 50.9215143,6.16712835 C52.5069252,5.28808864 53.7469991,4.31486611 54.7987073,3.15327793 C55.6934441,2.14866113 56.242844,1.37950139 56.5410896,0.657433056 L57.6084949,1.06555863 C56.8864266,2.08587258 56.8864266,2.08587258 56.588181,2.47830102 L60.0415512,2.47830102 C60.6537396,2.47830102 61.0775623,2.44690674 61.501385,2.39981533 L62.066482,3.07479224 C61.8938135,3.26315789 61.8153278,3.37303786 61.5327793,3.74976916 C60.1357341,5.64912281 58.5974146,7.18744229 56.478301,8.75715605 L62.2391505,8.75715605 C62.7414589,8.75715605 63.0397045,8.74145891 63.3693444,8.6943675 C63.3065559,9.0710988 63.2908587,9.4478301 63.2908587,9.9501385 L63.2908587,13.7488458 C63.2908587,14.2354571 63.322253,14.800554 63.3850416,15.145891 L62.2862419,15.145891 L62.2862419,14.2668513 L55.7248384,14.2668513 L55.7248384,15.145891 L54.6260388,15.145891 C54.6888273,14.7377655 54.7202216,14.1726685 54.7202216,13.7488458 L54.7202216,9.9501385 C53.6528163,10.6251154 52.6952909,11.1274238 51.2197599,11.7867036 C51.0470914,11.4099723 50.9215143,11.2059095 50.5918744,10.8605725 C53.0249307,9.93444137 54.8301016,8.89843029 56.7765466,7.32871653 C56.0073869,6.59095106 55.6149584,6.29270545 54.5004617,5.58633426 Z M55.7248384,9.66759003 L55.7248384,13.3878116 L62.2862419,13.3878116 L62.2862419,9.66759003 L55.7248384,9.66759003 Z M77.4496768,12.7128347 L69.0360111,12.7128347 L69.0360111,13.8273315 L67.8273315,13.8273315 C67.8744229,13.4819945 67.89012,13.1680517 67.89012,12.6500462 L67.89012,4.12650046 C67.89012,3.48291782 67.8744229,3.27885503 67.8273315,2.90212373 C68.1412742,2.93351801 68.4395199,2.94921514 69.0517082,2.94921514 L77.4182825,2.94921514 C78.0932595,2.94921514 78.2816251,2.94921514 78.6426593,2.90212373 C78.5955679,3.27885503 78.5955679,3.48291782 78.5955679,4.12650046 L78.5955679,12.6186519 C78.5955679,13.089566 78.611265,13.4976916 78.6426593,13.8273315 L77.4496768,13.8273315 L77.4496768,12.7128347 Z M77.4496768,11.6925208 L77.4496768,3.98522622 L69.0360111,3.98522622 L69.0360111,11.6925208 L77.4496768,11.6925208 Z M92.4247461,12.9482918 L84.9215143,12.9482918 L84.199446,12.9639889 C83.6657433,12.9639889 83.6186519,12.9796861 83.2419206,13.0267775 L83.2419206,11.7710065 C83.7285319,11.8651893 83.9639889,11.8808864 84.9529086,11.8808864 L92.4247461,11.8808864 L92.4247461,4.31486611 L85.2825485,4.31486611 C84.2622345,4.31486611 83.9796861,4.33056325 83.4773777,4.3933518 L83.4773777,3.13758079 C83.9796861,3.23176362 84.2465374,3.24746076 85.2825485,3.24746076 L92.3619575,3.24746076 C93.0212373,3.23176362 93.4293629,3.21606648 93.6020314,3.21606648 L93.6020314,12.4616805 C93.6177285,13.4819945 93.6334257,13.6232687 93.6805171,13.9058172 L92.4247461,13.9058172 L92.4247461,12.9482918 Z M92.5660203,1.52077562 L93.3508772,1.11265005 C94.0415512,1.96029548 94.4810711,2.61957525 94.9519852,3.54570637 L94.1671283,4.0166205 C93.7119114,3.05909511 93.1311173,2.14866113 92.5660203,1.52077562 Z M94.3397969,0.688827331 L95.1089566,0.265004617 C95.8310249,1.12834718 96.2077562,1.70914127 96.7414589,2.69806094 L95.956602,3.15327793 C95.611265,2.41551247 94.9519852,1.39519852 94.3397969,0.688827331 Z" id="社名ロゴ"></path>
                    <text id="138px" font-family=".AppleSystemUIFont" font-size="11" font-weight="normal">
                        <tspan x="52" y="176">138px</tspan>
                    </text>
                </g>
            </g>
        </g>
    </g>
</svg>