<?xml version="1.0" encoding="UTF-8"?>
<svg width="114px" height="176px" viewBox="0 0 114 176" version="1.1" xmlns="http://www.w3.org/2000/svg" xmlns:xlink="http://www.w3.org/1999/xlink">
    <!-- Generator: Sketch 48.2 (47327) - http://www.bohemiancoding.com/sketch -->
    <title>Group 3</title>
    <desc>Created with Sketch.</desc>
    <defs></defs>
    <g id="Artboard" stroke="none" stroke-width="1" fill="none" fill-rule="evenodd" transform="translate(-583.000000, -1756.000000)">
        <g id="サイズ" transform="translate(0.000000, 1545.000000)" fill="#000000">
            <g id="シンボルロゴ1" transform="translate(490.000000, 209.000000)">
                <g id="Group-3" transform="translate(93.000000, 2.000000)">
                    <g id="Symbol-Logo1" transform="translate(0.000000, 63.000000)" fill-rule="nonzero">
                        <g id="Logo" transform="translate(39.000000, 0.000000)">
                            <rect id="1" x="0" y="0" width="11.2" height="8.4"></rect>
                            <rect id="2" x="0" y="9.8" width="11.2" height="25.2"></rect>
                            <rect id="3" x="12.6" y="0" width="22.4" height="22.4"></rect>
                            <rect id="4" x="12.6" y="23.8" width="22.4" height="11.2"></rect>
                        </g>
                        <g id="Text" transform="translate(0.000000, 46.000000)">
                            <path d="M5.876,23.6750061 L5.111,23.6750061 C5.021,23.6750061 5.012,23.6660061 5.012,23.5760061 C5.012,23.5220061 5.03,23.2790061 5.03,21.9740061 L5.03,21.2000061 C5.03,20.4260061 5.012,20.1650061 5.012,20.1110061 C5.012,20.0210061 5.021,20.0120061 5.111,20.0120061 C5.165,20.0120061 5.48,20.0300061 6.344,20.0300061 L9.224,20.0300061 C10.088,20.0300061 10.403,20.0120061 10.457,20.0120061 C10.556,20.0120061 10.565,20.0210061 10.565,20.1110061 C10.565,20.1650061 10.547,20.4260061 10.547,21.0650061 L10.547,21.9470061 C10.547,23.2430061 10.565,23.4860061 10.565,23.5310061 C10.565,23.6210061 10.556,23.6300061 10.457,23.6300061 L9.692,23.6300061 C9.602,23.6300061 9.593,23.6210061 9.593,23.5310061 L9.593,23.2340061 L5.984,23.2340061 L5.984,23.5760061 C5.984,23.6660061 5.975,23.6750061 5.876,23.6750061 Z M5.984,20.8490061 L5.984,22.4150061 L9.593,22.4150061 L9.593,20.8490061 L5.984,20.8490061 Z M5.966,19.0760061 L5.966,18.4280061 C5.444,18.8330061 4.886,19.1840061 4.301,19.4900061 C4.193,19.5440061 4.139,19.5800061 4.094,19.5800061 C4.031,19.5800061 3.995,19.5170061 3.923,19.3550061 C3.806,19.1120061 3.662,18.9140061 3.5,18.7520061 C5.156,18.0050061 6.227,17.0690061 6.965,15.9980061 C7.127,15.7640061 7.226,15.5930061 7.316,15.3590061 C7.667,15.4130061 8,15.4670061 8.261,15.5300061 C8.369,15.5660061 8.423,15.5930061 8.423,15.6740061 C8.423,15.7190061 8.405,15.7640061 8.333,15.8090061 C8.306,15.8270061 8.279,15.8450061 8.261,15.8720061 C9.332,17.2400061 10.583,18.0770061 12.104,18.6170061 C11.951,18.8060061 11.816,19.0490061 11.726,19.3010061 C11.672,19.4720061 11.636,19.5350061 11.564,19.5350061 C11.519,19.5350061 11.447,19.5080061 11.348,19.4540061 C10.709,19.1660061 10.124,18.8330061 9.593,18.4460061 L9.593,19.0760061 C9.593,19.1660061 9.584,19.1750061 9.494,19.1750061 C9.44,19.1750061 9.197,19.1570061 8.477,19.1570061 L7.082,19.1570061 C6.362,19.1570061 6.128,19.1750061 6.065,19.1750061 C5.975,19.1750061 5.966,19.1660061 5.966,19.0760061 Z M7.082,18.3200061 L8.477,18.3200061 C9.008,18.3200061 9.278,18.3110061 9.404,18.3110061 C8.756,17.8160061 8.207,17.2400061 7.748,16.6010061 C7.28,17.2490061 6.722,17.8070061 6.11,18.3020061 C6.218,18.3110061 6.47,18.3200061 7.082,18.3200061 Z M21.329,17.8520061 L21.329,21.0740061 C21.329,21.8570061 21.347,22.3250061 21.347,22.6310061 C21.338,22.9640061 21.248,23.1980061 21.059,23.3690061 C20.879,23.5130061 20.546,23.6120061 19.7,23.6120061 C19.421,23.6120061 19.421,23.6210061 19.358,23.3240061 C19.304,23.0810061 19.223,22.8200061 19.106,22.6130061 C19.502,22.6580061 19.835,22.6670061 20.024,22.6670061 C20.285,22.6670061 20.375,22.5770061 20.375,22.3610061 L20.375,16.7180061 L14.84,16.7180061 L14.84,21.9470061 C14.84,22.9910061 14.858,23.5220061 14.858,23.5760061 C14.858,23.6660061 14.849,23.6750061 14.75,23.6750061 L13.967,23.6750061 C13.877,23.6750061 13.868,23.6660061 13.868,23.5760061 C13.868,23.5130061 13.886,22.9190061 13.886,21.6950061 L13.886,17.8250061 C13.886,16.6010061 13.868,15.9890061 13.868,15.9260061 C13.868,15.8360061 13.877,15.8270061 13.967,15.8270061 C14.03,15.8270061 14.327,15.8450061 15.164,15.8450061 L20.051,15.8450061 C20.888,15.8450061 21.185,15.8270061 21.248,15.8270061 C21.338,15.8270061 21.347,15.8360061 21.347,15.9260061 C21.347,15.9890061 21.329,16.6280061 21.329,17.8520061 Z M16.622,22.4510061 L15.938,22.4510061 C15.848,22.4510061 15.839,22.4420061 15.839,22.3520061 C15.839,22.2890061 15.857,22.0640061 15.857,20.8400061 L15.857,20.1020061 C15.857,19.3910061 15.839,19.1570061 15.839,19.0940061 C15.839,19.0040061 15.848,18.9950061 15.938,18.9950061 C16.001,18.9950061 16.235,19.0130061 16.928,19.0130061 L18.215,19.0130061 C18.926,19.0130061 19.151,18.9950061 19.214,18.9950061 C19.304,18.9950061 19.313,19.0040061 19.313,19.0940061 C19.313,19.1480061 19.295,19.3820061 19.295,19.9400061 L19.295,20.6960061 C19.295,21.8930061 19.313,22.1090061 19.313,22.1630061 C19.313,22.2620061 19.304,22.2710061 19.214,22.2710061 L18.53,22.2710061 C18.44,22.2710061 18.431,22.2620061 18.431,22.1630061 L18.431,21.8750061 L16.721,21.8750061 L16.721,22.3520061 C16.721,22.4420061 16.712,22.4510061 16.622,22.4510061 Z M16.721,19.8050061 L16.721,21.0830061 L18.431,21.0830061 L18.431,19.8050061 L16.721,19.8050061 Z M18.53,18.2660061 L16.64,18.2660061 C15.848,18.2660061 15.578,18.2840061 15.515,18.2840061 C15.425,18.2840061 15.416,18.2750061 15.416,18.1760061 L15.416,17.5100061 C15.416,17.4200061 15.425,17.4110061 15.515,17.4110061 C15.578,17.4110061 15.848,17.4290061 16.64,17.4290061 L18.53,17.4290061 C19.322,17.4290061 19.601,17.4110061 19.655,17.4110061 C19.745,17.4110061 19.754,17.4200061 19.754,17.5100061 L19.754,18.1760061 C19.754,18.2750061 19.745,18.2840061 19.655,18.2840061 C19.601,18.2840061 19.322,18.2660061 18.53,18.2660061 Z M25.955,20.7590061 L25.019,20.7590061 C24.173,20.7590061 23.885,20.7770061 23.831,20.7770061 C23.732,20.7770061 23.723,20.7680061 23.723,20.6780061 L23.723,20.0030061 C23.723,19.9130061 23.732,19.9040061 23.831,19.9040061 C23.885,19.9040061 24.173,19.9220061 25.019,19.9220061 L29.816,19.9220061 C30.662,19.9220061 30.95,19.9040061 31.004,19.9040061 C31.103,19.9040061 31.112,19.9130061 31.112,20.0030061 L31.112,20.6780061 C31.112,20.7680061 31.103,20.7770061 31.004,20.7770061 C30.95,20.7770061 30.662,20.7590061 29.816,20.7590061 L27.035,20.7590061 C26.81,21.3170061 26.54,21.8840061 26.234,22.4510061 C27.17,22.3970061 28.151,22.3160061 29.006,22.2260061 C28.799,21.9740061 28.592,21.7220061 28.349,21.4610061 C28.286,21.3890061 28.295,21.3530061 28.403,21.2990061 L28.979,21.0020061 C29.078,20.9480061 29.105,20.9570061 29.168,21.0200061 C29.78,21.6590061 30.293,22.3070061 30.842,23.1080061 C30.887,23.1800061 30.887,23.2160061 30.797,23.2790061 L30.176,23.6840061 C30.122,23.7200061 30.095,23.7380061 30.068,23.7380061 C30.041,23.7380061 30.023,23.7200061 29.996,23.6750061 C29.843,23.4230061 29.69,23.1890061 29.546,22.9730061 C28.052,23.1620061 26.216,23.3150061 24.686,23.4320061 C24.542,23.4410061 24.425,23.4770061 24.362,23.5130061 C24.317,23.5490061 24.272,23.5670061 24.209,23.5670061 C24.146,23.5670061 24.101,23.5220061 24.083,23.4410061 C24.002,23.1440061 23.948,22.8290061 23.894,22.5140061 C24.227,22.5410061 24.524,22.5320061 24.875,22.5140061 C24.965,22.5140061 25.064,22.5050061 25.163,22.5050061 C25.487,21.8930061 25.748,21.3170061 25.955,20.7590061 Z M25.595,19.0040061 L25.595,18.3200061 C25.091,18.6890061 24.542,19.0130061 23.966,19.2920061 C23.858,19.3460061 23.795,19.3730061 23.75,19.3730061 C23.687,19.3730061 23.66,19.3100061 23.588,19.1480061 C23.48,18.9230061 23.354,18.7250061 23.183,18.5540061 C24.749,17.9330061 25.919,16.9790061 26.639,15.9350061 C26.792,15.7100061 26.873,15.5570061 26.954,15.3500061 C27.305,15.3950061 27.638,15.4580061 27.926,15.5390061 C28.034,15.5660061 28.088,15.6020061 28.088,15.6650061 C28.088,15.7190061 28.07,15.7730061 27.998,15.8090061 C27.944,15.8360061 27.908,15.8630061 27.872,15.8900061 C28.889,17.1320061 30.104,17.9150061 31.679,18.4640061 C31.508,18.6800061 31.391,18.8960061 31.292,19.1390061 C31.229,19.3010061 31.202,19.3640061 31.139,19.3640061 C31.094,19.3640061 31.031,19.3370061 30.932,19.2920061 C30.32,19.0220061 29.735,18.7070061 29.213,18.3380061 L29.213,19.0040061 C29.213,19.0940061 29.204,19.1030061 29.114,19.1030061 C29.06,19.1030061 28.817,19.0850061 28.097,19.0850061 L26.711,19.0850061 C25.991,19.0850061 25.748,19.1030061 25.694,19.1030061 C25.604,19.1030061 25.595,19.0940061 25.595,19.0040061 Z M26.711,18.2480061 L28.097,18.2480061 C28.7,18.2480061 28.97,18.2390061 29.069,18.2300061 C28.421,17.7620061 27.854,17.2130061 27.368,16.5830061 C26.891,17.2130061 26.342,17.7620061 25.721,18.2300061 C25.802,18.2390061 26.054,18.2480061 26.711,18.2480061 Z M40.004,23.3780061 L37.475,23.3780061 C36.62,23.3780061 36.323,23.3960061 36.269,23.3960061 C36.179,23.3960061 36.17,23.3870061 36.17,23.2970061 L36.17,22.5860061 C36.17,22.4960061 36.179,22.4870061 36.269,22.4870061 C36.323,22.4870061 36.62,22.5050061 37.475,22.5050061 L38.231,22.5050061 L38.231,19.1390061 L37.826,19.1390061 C37.025,19.1390061 36.746,19.1480061 36.692,19.1480061 C36.611,19.1480061 36.602,19.1480061 36.602,19.0580061 L36.602,18.3470061 C36.602,18.2570061 36.611,18.2570061 36.692,18.2570061 C36.746,18.2570061 37.025,18.2660061 37.826,18.2660061 L38.231,18.2660061 L38.231,16.8350061 C38.231,16.1960061 38.222,15.8900061 38.159,15.4760061 C38.501,15.4850061 38.843,15.5030061 39.158,15.5390061 C39.239,15.5480061 39.302,15.5840061 39.302,15.6290061 C39.302,15.7010061 39.293,15.7460061 39.257,15.8180061 C39.203,15.9260061 39.185,16.1510061 39.185,16.8080061 L39.185,18.2660061 L39.752,18.2660061 C40.553,18.2660061 40.832,18.2570061 40.886,18.2570061 C40.976,18.2570061 40.985,18.2570061 40.985,18.3470061 L40.985,19.0580061 C40.985,19.1480061 40.976,19.1480061 40.886,19.1480061 C40.832,19.1480061 40.553,19.1390061 39.752,19.1390061 L39.185,19.1390061 L39.185,22.5050061 L40.004,22.5050061 C40.859,22.5050061 41.147,22.4870061 41.201,22.4870061 C41.3,22.4870061 41.309,22.4960061 41.309,22.5860061 L41.309,23.2970061 C41.309,23.3870061 41.3,23.3960061 41.201,23.3960061 C41.147,23.3960061 40.859,23.3780061 40.004,23.3780061 Z M34.469,22.5590061 L34.469,20.4080061 C34.19,20.6780061 33.911,20.9300061 33.614,21.1550061 C33.524,21.2270061 33.47,21.2720061 33.425,21.2720061 C33.371,21.2720061 33.335,21.2000061 33.281,21.0650061 C33.191,20.8130061 33.083,20.5790061 32.966,20.4260061 C34.019,19.7600061 34.865,18.7880061 35.315,17.7620061 L34.298,17.7620061 C33.614,17.7620061 33.398,17.7800061 33.344,17.7800061 C33.254,17.7800061 33.245,17.7710061 33.245,17.6810061 L33.245,17.0150061 C33.245,16.9250061 33.254,16.9160061 33.344,16.9160061 C33.398,16.9160061 33.614,16.9340061 34.298,16.9340061 L34.469,16.9340061 L34.469,16.5650061 C34.469,16.0880061 34.46,15.8000061 34.397,15.4670061 C34.739,15.4760061 35.009,15.4940061 35.333,15.5300061 C35.423,15.5390061 35.477,15.5840061 35.477,15.6200061 C35.477,15.7010061 35.45,15.7460061 35.423,15.8090061 C35.369,15.9170061 35.369,16.0700061 35.369,16.5290061 L35.369,16.9340061 L35.747,16.9340061 C35.828,16.9340061 35.873,16.9250061 35.918,16.8980061 C35.954,16.8800061 35.99,16.8620061 36.017,16.8620061 C36.071,16.8620061 36.161,16.9160061 36.35,17.0960061 C36.521,17.2670061 36.593,17.3570061 36.593,17.4200061 C36.593,17.4650061 36.575,17.5100061 36.503,17.5640061 C36.422,17.6450061 36.368,17.6900061 36.296,17.8250061 C36.08,18.2840061 35.819,18.7250061 35.531,19.1390061 C35.882,19.5440061 36.305,19.8680061 36.854,20.1920061 C36.719,20.3360061 36.593,20.5520061 36.494,20.7770061 C36.431,20.9120061 36.386,20.9750061 36.323,20.9750061 C36.278,20.9750061 36.224,20.9390061 36.143,20.8670061 C35.855,20.6060061 35.594,20.3180061 35.369,20.0300061 L35.369,22.5590061 C35.369,23.2250061 35.387,23.5760061 35.387,23.6210061 C35.387,23.7110061 35.378,23.7200061 35.279,23.7200061 L34.559,23.7200061 C34.46,23.7200061 34.451,23.7110061 34.451,23.6210061 C34.451,23.5670061 34.469,23.2250061 34.469,22.5590061 Z M45.368,17.6990061 L45.368,18.9500061 C46.16,18.6890061 46.844,18.4280061 47.564,18.0770061 C48.05,17.8430061 48.275,17.6990061 48.527,17.4290061 C48.842,17.6900061 49.139,18.0590061 49.274,18.2390061 C49.382,18.3650061 49.373,18.5180061 49.193,18.5630061 C48.941,18.6260061 48.689,18.7520061 48.446,18.8600061 C47.555,19.2650061 46.547,19.6250061 45.359,19.9760061 L45.359,21.1730061 C45.359,21.5960061 45.422,21.7400061 45.656,21.8120061 C45.89,21.8750061 46.241,21.9110061 46.79,21.9110061 C47.636,21.9110061 48.392,21.8480061 49.328,21.7040061 C49.463,21.6860061 49.481,21.7220061 49.49,21.8300061 C49.517,22.0820061 49.544,22.4240061 49.544,22.6130061 C49.544,22.7300061 49.49,22.7660061 49.355,22.7750061 C48.338,22.9010061 47.816,22.9370061 46.682,22.9370061 C45.881,22.9370061 45.35,22.8560061 44.972,22.6940061 C44.522,22.5050061 44.333,22.0820061 44.333,21.3440061 L44.333,18.0230061 C44.333,17.1680061 44.315,16.8260061 44.243,16.3760061 C44.666,16.4210061 45.089,16.4750061 45.377,16.5560061 C45.575,16.6010061 45.539,16.7540061 45.458,16.8890061 C45.386,17.0330061 45.368,17.2760061 45.368,17.6990061 Z M50.129,15.9800061 C50.669,15.9800061 51.101,16.4030061 51.101,16.9430061 C51.101,17.4830061 50.669,17.9060061 50.129,17.9060061 C49.589,17.9060061 49.157,17.4830061 49.157,16.9430061 C49.157,16.3850061 49.589,15.9800061 50.129,15.9800061 Z M50.129,16.4120061 C49.823,16.4120061 49.598,16.6370061 49.598,16.9430061 C49.598,17.2490061 49.823,17.4740061 50.129,17.4740061 C50.435,17.4740061 50.66,17.2490061 50.66,16.9430061 C50.66,16.6370061 50.435,16.4120061 50.129,16.4120061 Z M56.384,17.2490061 L58.004,17.2130061 C58.238,17.2040061 58.355,17.1680061 58.454,17.1050061 C58.49,17.0780061 58.526,17.0690061 58.571,17.0690061 C58.616,17.0690061 58.661,17.0870061 58.715,17.1230061 C58.94,17.2670061 59.147,17.4380061 59.327,17.6090061 C59.408,17.6810061 59.444,17.7530061 59.444,17.8160061 C59.444,17.8880061 59.399,17.9510061 59.336,18.0050061 C59.21,18.1040061 59.12,18.2300061 59.039,18.3920061 C58.436,19.6160061 57.86,20.4890061 57.257,21.1730061 C56.483,22.0460061 55.412,22.9190061 54.521,23.4140061 C54.467,23.4500061 54.422,23.4590061 54.377,23.4590061 C54.305,23.4590061 54.242,23.4230061 54.17,23.3600061 C53.945,23.1800061 53.666,23.0450061 53.315,22.9460061 C54.719,22.1720061 55.43,21.6050061 56.312,20.6510061 C57.023,19.8590061 57.437,19.2470061 57.977,18.0950061 L55.799,18.1580061 C55.061,19.0670061 54.611,19.5800061 54.098,20.0030061 C54.035,20.0660061 53.972,20.1020061 53.909,20.1020061 C53.864,20.1020061 53.819,20.0840061 53.774,20.0480061 C53.549,19.8860061 53.216,19.7240061 52.91,19.6610061 C54.08,18.7070061 54.773,17.8700061 55.331,16.9880061 C55.628,16.4840061 55.763,16.2050061 55.862,15.7730061 C56.375,15.9530061 56.717,16.1060061 56.915,16.2500061 C56.978,16.2950061 57.005,16.3490061 57.005,16.4030061 C57.005,16.4570061 56.978,16.5110061 56.906,16.5560061 C56.816,16.6100061 56.753,16.7090061 56.681,16.7990061 C56.582,16.9520061 56.492,17.0870061 56.384,17.2490061 Z M64.637,18.5720061 L64.637,17.7080061 C64.637,16.9970061 64.619,16.6280061 64.52,16.1240061 C64.97,16.1600061 65.402,16.2230061 65.681,16.3040061 C65.798,16.3310061 65.852,16.3850061 65.852,16.4660061 C65.852,16.5020061 65.834,16.5560061 65.798,16.6100061 C65.699,16.7990061 65.681,16.9880061 65.681,17.4110061 L65.681,18.3380061 L68.03,17.7890061 C68.426,17.6990061 68.507,17.6540061 68.669,17.5280061 C68.714,17.4920061 68.759,17.4740061 68.795,17.4740061 C68.84,17.4740061 68.876,17.4920061 68.921,17.5280061 C69.11,17.6450061 69.398,17.8970061 69.587,18.1130061 C69.641,18.1670061 69.668,18.2210061 69.668,18.2750061 C69.668,18.3380061 69.623,18.4010061 69.551,18.4550061 C69.425,18.5450061 69.353,18.6800061 69.272,18.8060061 C68.813,19.5800061 68.363,20.2370061 67.841,20.7500061 C67.76,20.8310061 67.688,20.8850061 67.607,20.8850061 C67.553,20.8850061 67.499,20.8670061 67.436,20.8220061 C67.175,20.6690061 66.95,20.5520061 66.689,20.4800061 C67.31,19.9400061 67.751,19.3370061 68.156,18.6800061 L65.681,19.3100061 L65.681,21.3530061 C65.681,21.8300061 65.843,21.9830061 66.815,21.9830061 C67.544,21.9830061 68.381,21.8930061 68.993,21.7850061 C69.119,21.7670061 69.128,21.8300061 69.146,21.9650061 C69.191,22.2080061 69.227,22.4780061 69.227,22.7210061 C69.227,22.8110061 69.173,22.8470061 69.038,22.8560061 C68.498,22.9190061 67.877,22.9640061 66.887,22.9640061 C65.168,22.9640061 64.637,22.5950061 64.637,21.3800061 L64.637,19.5620061 L64.061,19.7150061 C63.575,19.8410061 63.071,19.9760061 62.792,20.1020061 C62.747,20.1200061 62.711,20.1380061 62.684,20.1380061 C62.621,20.1380061 62.585,20.0930061 62.54,19.9940061 C62.414,19.7600061 62.279,19.3730061 62.18,19.0760061 C62.747,19.0040061 63.26,18.9140061 63.872,18.7610061 L64.637,18.5720061 Z M76.904,18.0950061 L76.904,21.1010061 C77.345,20.8670061 77.759,20.5880061 78.182,20.2640061 C78.722,19.8500061 79.253,19.3730061 79.757,18.7340061 C79.793,19.0490061 79.883,19.3460061 80.036,19.6430061 C80.063,19.7060061 80.09,19.7510061 80.09,19.7960061 C80.09,19.8590061 80.054,19.9220061 79.955,20.0210061 C79.505,20.4800061 79.091,20.8490061 78.623,21.2000061 C78.155,21.5600061 77.651,21.9110061 77.021,22.2800061 C76.859,22.3880061 76.841,22.4060061 76.76,22.4690061 C76.706,22.5140061 76.643,22.5410061 76.58,22.5410061 C76.526,22.5410061 76.463,22.5140061 76.391,22.4690061 C76.193,22.3340061 75.986,22.1000061 75.851,21.9200061 C75.797,21.8390061 75.77,21.7850061 75.77,21.7310061 C75.77,21.6860061 75.779,21.6500061 75.806,21.5960061 C75.869,21.4790061 75.86,21.3710061 75.86,20.9120061 L75.86,18.0950061 C75.86,17.3120061 75.86,16.9430061 75.77,16.5290061 C76.13,16.5740061 76.625,16.6370061 76.895,16.7180061 C77.012,16.7450061 77.057,16.7990061 77.057,16.8710061 C77.057,16.9250061 77.03,17.0060061 76.985,17.0960061 C76.904,17.2670061 76.904,17.4470061 76.904,18.0950061 Z M73.763,17.0960061 C74.276,17.1590061 74.69,17.2220061 74.906,17.2940061 C75.059,17.3390061 75.077,17.4470061 75.023,17.5730061 C74.924,17.7710061 74.915,17.9690061 74.915,18.1850061 C74.897,19.3100061 74.726,20.1650061 74.429,20.8310061 C74.195,21.3800061 73.799,21.9650061 73.151,22.5230061 C73.061,22.5950061 72.989,22.6400061 72.917,22.6400061 C72.863,22.6400061 72.809,22.6130061 72.746,22.5680061 C72.521,22.4150061 72.305,22.3070061 71.981,22.1900061 C72.683,21.6590061 73.16,21.1100061 73.475,20.3990061 C73.727,19.7870061 73.844,19.2920061 73.853,17.8520061 C73.853,17.5100061 73.835,17.3660061 73.763,17.0960061 Z M85.625,17.3300061 L87.245,17.2940061 C87.479,17.2850061 87.596,17.2490061 87.695,17.1860061 C87.731,17.1590061 87.767,17.1500061 87.812,17.1500061 C87.857,17.1500061 87.902,17.1680061 87.956,17.2040061 C88.181,17.3480061 88.388,17.5190061 88.568,17.6900061 C88.649,17.7620061 88.685,17.8340061 88.685,17.8970061 C88.685,17.9690061 88.64,18.0320061 88.577,18.0860061 C88.451,18.1850061 88.361,18.3110061 88.28,18.4730061 C87.677,19.6970061 87.101,20.5700061 86.498,21.2540061 C85.724,22.1270061 84.653,23.0000061 83.762,23.4950061 C83.708,23.5310061 83.663,23.5400061 83.618,23.5400061 C83.546,23.5400061 83.483,23.5040061 83.411,23.4410061 C83.186,23.2610061 82.907,23.1260061 82.556,23.0270061 C83.96,22.2530061 84.671,21.6860061 85.553,20.7320061 C86.264,19.9400061 86.678,19.3280061 87.218,18.1760061 L85.04,18.2390061 C84.302,19.1480061 83.852,19.6610061 83.339,20.0840061 C83.276,20.1470061 83.213,20.1830061 83.15,20.1830061 C83.105,20.1830061 83.06,20.1650061 83.015,20.1290061 C82.79,19.9670061 82.457,19.8050061 82.151,19.7420061 C83.321,18.7880061 84.014,17.9510061 84.572,17.0690061 C84.869,16.5650061 85.004,16.2860061 85.103,15.8540061 C85.616,16.0340061 85.958,16.1870061 86.156,16.3310061 C86.219,16.3760061 86.246,16.4300061 86.246,16.4840061 C86.246,16.5380061 86.219,16.5920061 86.147,16.6370061 C86.057,16.6910061 85.994,16.7900061 85.922,16.8800061 C85.823,17.0330061 85.733,17.1680061 85.625,17.3300061 Z M87.884,16.4120061 L88.361,16.0790061 C88.406,16.0430061 88.442,16.0520061 88.496,16.0970061 C88.775,16.3130061 89.099,16.6730061 89.351,17.0600061 C89.387,17.1140061 89.387,17.1590061 89.324,17.2040061 L88.946,17.4830061 C88.883,17.5280061 88.838,17.5190061 88.793,17.4560061 C88.523,17.0420061 88.235,16.7000061 87.884,16.4120061 Z M88.712,15.8180061 L89.162,15.4940061 C89.216,15.4580061 89.243,15.4670061 89.297,15.5120061 C89.63,15.7640061 89.954,16.1240061 90.152,16.4390061 C90.188,16.4930061 90.197,16.5470061 90.125,16.6010061 L89.765,16.8800061 C89.693,16.9340061 89.648,16.9070061 89.612,16.8530061 C89.369,16.4660061 89.081,16.1240061 88.712,15.8180061 Z M96.245,17.1140061 L94.463,17.1140061 C94.058,17.1140061 93.608,17.1230061 93.23,17.1500061 C93.14,17.1500061 93.113,17.0960061 93.104,16.9520061 C93.077,16.7630061 93.059,16.3670061 93.059,16.0880061 C93.608,16.1420061 93.878,16.1510061 94.535,16.1510061 L96.155,16.1510061 C96.74,16.1510061 97.217,16.1240061 97.568,16.1060061 C97.649,16.1060061 97.676,16.1510061 97.676,16.2500061 C97.694,16.4750061 97.694,16.7270061 97.676,16.9520061 C97.676,17.1050061 97.649,17.1410061 97.514,17.1320061 C97.217,17.1320061 96.794,17.1140061 96.245,17.1140061 Z M96.929,19.0400061 L93.86,19.0490061 C93.41,19.0490061 92.96,19.0580061 92.51,19.0850061 C92.429,19.0850061 92.393,19.0310061 92.375,18.9140061 C92.321,18.6890061 92.303,18.3560061 92.276,18.0050061 C92.789,18.0590061 93.338,18.0770061 93.932,18.0770061 L97.019,18.0770061 C97.172,18.0770061 97.352,18.0590061 97.496,17.9780061 C97.541,17.9420061 97.577,17.9240061 97.613,17.9240061 C97.658,17.9240061 97.703,17.9510061 97.748,17.9870061 C97.964,18.1580061 98.207,18.3830061 98.351,18.5450061 C98.414,18.6080061 98.441,18.6710061 98.441,18.7340061 C98.441,18.7880061 98.414,18.8510061 98.342,18.9050061 C98.198,19.0220061 98.135,19.1210061 98.036,19.3280061 C97.136,21.2450061 96.101,22.3700061 94.364,23.3060061 C94.292,23.3420061 94.238,23.3690061 94.184,23.3690061 C94.121,23.3690061 94.058,23.3330061 93.986,23.2610061 C93.743,23.0450061 93.455,22.9100061 93.149,22.7930061 C94.814,22.0190061 96.281,20.7770061 96.929,19.0400061 Z M103.985,15.9260061 C104.534,16.0880061 104.921,16.2140061 105.2,16.3940061 C105.263,16.4390061 105.308,16.4840061 105.308,16.5380061 C105.308,16.5830061 105.281,16.6460061 105.218,16.7180061 C105.056,16.9250061 104.948,17.2040061 104.849,17.4650061 C104.345,18.8420061 103.868,20.1650061 103.301,21.5150061 C104.687,21.3980061 105.443,21.3260061 106.451,21.1730061 C106.172,20.6780061 105.839,20.1830061 105.452,19.7330061 C105.722,19.5890061 105.983,19.4360061 106.235,19.3010061 C106.334,19.2470061 106.388,19.2830061 106.451,19.3550061 C107.153,20.1740061 107.828,21.2990061 108.269,22.2980061 C108.296,22.3430061 108.305,22.3790061 108.305,22.4150061 C108.305,22.4690061 108.269,22.5230061 108.188,22.5680061 C107.972,22.7120061 107.747,22.8290061 107.504,22.9370061 C107.468,22.9550061 107.432,22.9640061 107.396,22.9640061 C107.342,22.9640061 107.297,22.9190061 107.27,22.8380061 C107.162,22.5860061 107.063,22.3520061 106.955,22.1180061 C105.515,22.3340061 104.147,22.4870061 102.68,22.6400061 C102.086,22.7030061 101.843,22.7480061 101.627,22.8560061 C101.51,22.9100061 101.411,22.8920061 101.366,22.7660061 C101.294,22.6130061 101.177,22.1630061 101.051,21.6050061 C101.411,21.6320061 101.789,21.6230061 102.149,21.6140061 C102.788,20.0030061 103.256,18.6710061 103.724,17.1590061 C103.868,16.6910061 103.958,16.3760061 103.985,15.9260061 Z" id="合同会社ピクセルグラム"></path>
                            <path d="M1.457,9 L0.027,9 L0.027,0.329 L3.459,0.329 C4.45567165,0.329 5.22266398,0.560831015 5.76,1.0245 C6.29733602,1.48816899 6.566,2.17066216 6.566,3.072 C6.566,3.97333784 6.29516937,4.66883089 5.7535,5.1585 C5.21183062,5.64816912 4.44700494,5.893 3.459,5.893 L1.457,5.893 L1.457,9 Z M3.277,4.671 C3.96167009,4.671 4.43183205,4.53016808 4.6875,4.2485 C4.94316794,3.96683193 5.071,3.59200234 5.071,3.124 C5.071,2.63866424 4.94316794,2.25300143 4.6875,1.967 C4.43183205,1.68099857 3.96167009,1.538 3.277,1.538 L1.457,1.538 L1.457,4.671 L3.277,4.671 Z M10.1669999,0.199 L11.6229999,0.199 L11.6229999,1.434 L10.1669999,1.434 L10.1669999,0.199 Z M10.2059999,2.513 L11.5709999,2.513 L11.5839999,9 L10.2059999,9 L10.2059999,2.513 Z M18.9809999,5.711 L21.3729999,9 L19.7089999,9 L18.0579999,6.712 L16.3939999,9 L14.9119999,9 L17.3559999,5.75 L14.9769999,2.474 L16.6279999,2.474 L18.2789999,4.736 L19.9039999,2.474 L21.3989999,2.474 L18.9809999,5.711 Z M27.0669998,2.318 C28.0810049,2.318 28.8241641,2.6451634 29.2964998,3.2995 C29.7688355,3.95383661 30.0006665,4.87032744 29.9919998,6.049 L25.4159998,6.049 C25.4593333,6.69033654 25.6478315,7.17783167 25.9814998,7.5115 C26.3151681,7.84516834 26.7896634,8.012 27.4049998,8.012 C27.8036684,8.012 28.184998,7.96216717 28.5489998,7.8625 C28.9130016,7.76283284 29.2336651,7.63500078 29.5109998,7.479 L29.5109998,8.753 C28.8349964,9.04766814 28.0593375,9.195 27.1839998,9.195 C26.2046616,9.195 25.4355026,8.89816964 24.8764998,8.3045 C24.317497,7.71083037 24.0379998,6.86800546 24.0379998,5.776 C24.0379998,4.65799441 24.3023305,3.80216964 24.8309998,3.2085 C25.3596691,2.61483037 26.104995,2.318 27.0669998,2.318 Z M27.0279998,3.436 C26.5686642,3.436 26.2090011,3.55733212 25.9489998,3.8 C25.6889985,4.04266788 25.5200002,4.45433043 25.4419998,5.035 L28.6009998,5.035 C28.5403328,4.48033056 28.3843344,4.07516795 28.1329998,3.8195 C27.8816652,3.56383206 27.5133355,3.436 27.0279998,3.436 Z M33.5149997,9 L33.5149997,0.004 L34.8669997,0.004 L34.8669997,9 L33.5149997,9 Z M41.8349996,2.331 C42.57167,2.331 43.1804972,2.47399857 43.6614996,2.76 C44.142502,3.04600143 44.3829996,3.46633056 44.3829996,4.021 L44.3829996,9.195 C44.3829996,9.94033706 44.1403354,10.5469977 43.6549996,11.015 C43.1696639,11.4830023 42.3983383,11.717 41.3409996,11.717 C40.5696625,11.717 39.8676695,11.6000012 39.2349996,11.366 L39.2349996,10.118 C39.9543366,10.386668 40.6216632,10.521 41.2369996,10.521 C41.9303364,10.521 42.4026651,10.3975012 42.6539996,10.1505 C42.9053342,9.90349877 43.0309996,9.57633537 43.0309996,9.169 L43.0309996,8.727 C42.7796651,8.86566736 42.5045011,8.9783329 42.2054996,9.065 C41.9064981,9.1516671 41.6140011,9.195 41.3279996,9.195 C40.3746615,9.17766658 39.6488355,8.88733615 39.1504996,8.324 C38.6521638,7.76066385 38.4029996,6.9590052 38.4029996,5.919 C38.4029996,4.56699324 38.7149965,3.6310026 39.3389996,3.111 C39.9630028,2.5909974 40.7949944,2.331 41.8349996,2.331 Z M39.7939996,5.88 C39.7939996,6.55600338 39.9413315,7.0911647 40.2359996,7.4855 C40.5306678,7.87983531 40.9683301,8.077 41.5489996,8.077 C42.1123358,8.077 42.6063309,7.95133459 43.0309996,7.7 L43.0309996,4.281 C43.0309996,3.97766515 42.9161675,3.76966723 42.6864996,3.657 C42.4568318,3.54433277 42.1470016,3.488 41.7569996,3.488 C41.0203293,3.488 40.5090011,3.70033121 40.2229996,4.125 C39.9369982,4.54966879 39.7939996,5.13466294 39.7939996,5.88 Z M48.2179996,3.072 C48.4606675,2.92466593 48.87233,2.7643342 49.4529996,2.591 C50.0336691,2.4176658 50.6099967,2.331 51.1819996,2.331 C51.528668,2.331 51.8233317,2.38733277 52.0659996,2.5 L52.0659996,3.592 C51.8233317,3.55733316 51.5330013,3.54 51.1949996,3.54 C50.6229967,3.54 50.0856688,3.5833329 49.5829996,3.67 L49.5829996,9 L48.2179996,9 L48.2179996,3.072 Z M58.1759995,2.331 C58.8866697,2.331 59.4911637,2.50216496 59.9894995,2.8445 C60.4878353,3.18683505 60.7326662,3.73932952 60.7239995,4.502 L60.7239995,7.622 C60.7239995,8.21133628 60.4640021,8.62083219 59.9439995,8.8505 C59.4239969,9.08016782 58.6830043,9.195 57.7209995,9.195 C56.9496623,9.195 56.3126687,9.03466827 55.8099995,8.714 C55.3073303,8.39333173 55.0559995,7.85600377 55.0559995,7.102 C55.0559995,6.39132978 55.2618308,5.85833511 55.6734995,5.503 C56.0851682,5.14766489 56.6679957,4.97 57.4219995,4.97 C58.2020034,4.97 58.8519969,5.12599844 59.3719995,5.438 L59.3719995,4.814 C59.3719995,3.92999558 58.8390048,3.488 57.7729995,3.488 C57.3916643,3.488 57.0103347,3.54649942 56.6289995,3.6635 C56.2476643,3.78050059 55.9313341,3.94299896 55.6799995,4.151 L55.6799995,2.877 C55.9226674,2.72099922 56.2758305,2.59100052 56.7394995,2.487 C57.2031685,2.38299948 57.681997,2.331 58.1759995,2.331 Z M57.8769995,8.129 C58.4230022,8.129 58.808665,8.09000039 59.0339995,8.012 C59.259334,7.93399961 59.3719995,7.77800117 59.3719995,7.544 L59.3719995,6.283 C58.9299973,6.09233238 58.4446688,5.997 57.9159995,5.997 C57.421997,5.997 57.0471674,6.0836658 56.7914995,6.257 C56.5358316,6.4303342 56.4079995,6.6903316 56.4079995,7.037 C56.4079995,7.40100182 56.5531647,7.67399909 56.8434995,7.856 C57.1338343,8.03800091 57.4783308,8.129 57.8769995,8.129 Z M71.7219994,2.331 C72.632004,2.331 73.297164,2.52166476 73.7174994,2.903 C74.1378349,3.28433524 74.3479994,3.87799597 74.3479994,4.684 L74.3479994,9 L72.9829994,9 L72.9829994,4.866 C72.9829994,3.95599545 72.4673379,3.501 71.4359994,3.501 C70.9766638,3.501 70.5563347,3.61799883 70.1749994,3.852 C70.2356664,4.08600117 70.2659994,4.36333173 70.2659994,4.684 L70.2659994,9 L68.9009994,9 L68.9009994,4.866 C68.9009994,3.95599545 68.3853379,3.501 67.3539994,3.501 C66.8859971,3.501 66.4266683,3.58333251 65.9759994,3.748 L65.9759994,9 L64.6109994,9 L64.6109994,3.007 C65.0010014,2.80766567 65.4754966,2.6451673 66.0344994,2.5195 C66.5935022,2.39383271 67.1286635,2.331 67.6399994,2.331 C68.489337,2.331 69.1219973,2.49566502 69.5379994,2.825 C70.2400029,2.49566502 70.9679957,2.331 71.7219994,2.331 Z M83.9289993,0.329 L85.3719993,0.329 L85.3719993,7.778 L89.5189993,7.778 L89.5189993,9 L83.9289993,9 L83.9289993,0.329 Z M92.8599992,0.329 L94.3029992,0.329 L94.3029992,7.778 L98.4499992,7.778 L98.4499992,9 L92.8599992,9 L92.8599992,0.329 Z M105.508999,9.13 C102.761652,9.13 101.387999,7.63934824 101.387999,4.658 C101.387999,1.67665176 102.761652,0.186 105.508999,0.186 C106.40167,0.186 107.298661,0.39833121 108.199999,0.823 L108.199999,2.11 C107.367995,1.62466424 106.53167,1.382 105.690999,1.382 C104.720328,1.382 104.007501,1.6419974 103.552499,2.162 C103.097497,2.6820026 102.869999,3.51832757 102.869999,4.671 C102.869999,5.82367243 103.099664,6.65349747 103.558999,7.1605 C104.018335,7.66750254 104.741994,7.921 105.729999,7.921 C106.579337,7.921 107.402662,7.68700234 108.199999,7.219 L108.199999,8.506 C107.80133,8.70533433 107.365835,8.85916613 106.893499,8.9675 C106.421163,9.07583388 105.959668,9.13 105.508999,9.13 Z M111.761999,7.479 L113.308999,7.479 L113.308999,9 L111.761999,9 L111.761999,7.479 Z" id="Pixelgram-LLC."></path>
                        </g>
                    </g>
                    <path d="M1.50046168,2.88642659 L2.11265005,1.9289012 C3.65096953,2.5567867 4.67128347,3.07479224 6.00554017,3.90674054 L5.36195753,4.95844875 C4.27885503,4.15789474 2.64635272,3.27885503 1.50046168,2.88642659 Z M0.260387812,6.63804247 L0.888273315,5.68051708 C2.37950139,6.29270545 3.50969529,6.87349954 4.87534626,7.73684211 L4.26315789,8.78855032 C3.11726685,7.95660203 1.68882733,7.17174515 0.260387812,6.63804247 Z M0.794090489,14.1569714 L0.480147738,12.854109 C1.50046168,12.854109 3.13296399,12.4773777 4.70267775,11.8808864 C6.64912281,11.143121 8.14035088,10.0286242 9.41181902,8.38042475 C10.2908587,7.2345337 10.8088643,6.24561404 11.2954755,4.86426593 C11.687904,5.27239151 11.8448753,5.41366574 12.2686981,5.69621422 C10.9030471,8.96121884 8.98799631,11.0960295 6.22530009,12.4616805 C5.12650046,13.0110803 3.54108957,13.544783 2.25392428,13.8116343 C2.00277008,13.8587258 1.72022161,13.9215143 1.40627886,13.9843029 C1.0923361,14.0470914 1.02954755,14.0784857 0.794090489,14.1569714 Z M16.145891,3.74976916 L16.9150508,2.90212373 C18.5946445,3.96952909 19.567867,4.73868883 20.6980609,5.8531856 L19.8818098,6.82640813 C18.7516159,5.60203139 17.511542,4.58171745 16.145891,3.74976916 Z M16.255771,13.9529086 L15.910434,12.634349 C17.1348107,12.5872576 19.0184672,12.1006464 20.478301,11.4256694 C23.5078486,10.0757156 25.611265,7.76823638 26.8827331,4.44044321 C27.2437673,4.92705448 27.4007387,5.06832872 27.8402585,5.36657433 C26.5844875,8.09787627 25.1246537,9.93444137 23.0526316,11.3628809 C21.4358264,12.4616805 19.8190212,13.1052632 17.1975993,13.7017544 C16.7737765,13.7959372 16.6481994,13.8273315 16.255771,13.9529086 Z M36.567867,4.22068329 L36.567867,3.16897507 C36.567867,2.21144968 36.5521699,1.9289012 36.4736842,1.56786704 L37.7608495,1.56786704 C37.6980609,1.94459834 37.6823638,2.22714681 37.6823638,3.20036934 L37.6823638,4.22068329 L41.6380425,4.22068329 C42.6583564,4.22068329 42.9722992,4.20498615 43.4746076,4.12650046 L43.4746076,5.31948292 C42.9879963,5.25669437 42.6740536,5.24099723 41.6694367,5.24099723 L37.6823638,5.24099723 L37.6823638,13.0581717 C37.6823638,14.0156971 37.6980609,14.3610342 37.7608495,14.7220683 L36.4736842,14.7220683 C36.5364728,14.3610342 36.567867,14.0313943 36.567867,13.0738689 L36.567867,5.24099723 L32.7220683,5.24099723 C31.7174515,5.24099723 31.4035088,5.25669437 30.9168975,5.31948292 L30.9168975,4.12650046 C31.4192059,4.20498615 31.7174515,4.22068329 32.7377655,4.22068329 L36.567867,4.22068329 Z M33.1772853,6.68513389 L34.3702678,7.01477378 C34.3074792,7.17174515 34.3074792,7.17174515 34.2760849,7.28162512 L34.1819021,7.59556787 L34.1034164,7.94090489 C33.5383195,10.0286242 32.5807941,11.9279778 31.3564174,13.3564174 C30.9953832,13.0267775 30.8070175,12.9168975 30.3204063,12.6814404 C31.2465374,11.7867036 31.9529086,10.6094183 32.6278855,8.8199446 C32.9575254,7.94090489 33.145891,7.20313943 33.1772853,6.68513389 Z M39.8799631,6.99907664 L40.9787627,6.70083102 C41.0572484,7.09325946 41.1985226,7.53277932 41.5595568,8.47460757 C42.2973223,10.3111727 43.0193906,11.5669437 43.9926131,12.6814404 C43.5530933,12.9168975 43.3804247,13.0424746 43.0036934,13.4192059 C41.9048938,11.9750693 41.0729455,10.3111727 40.2723915,8.01939058 C40.1311173,7.59556787 39.989843,7.25023084 39.8799631,6.99907664 Z M40.6491228,1.28531856 L41.4339797,0.877192982 C42.0932595,1.66204986 42.5170822,2.28993536 43.0350877,3.24746076 L42.2345337,3.70267775 C41.7636196,2.77654663 41.0729455,1.74053555 40.6491228,1.28531856 Z M42.611265,0.735918744 L43.3804247,0.296398892 C44.0867959,1.1754386 44.4792244,1.75623269 44.9972299,2.74515235 L44.212373,3.20036934 C43.867036,2.44690674 43.2234534,1.44228994 42.611265,0.735918744 Z M49.3139428,2.03878116 L50.6168052,2.11726685 C50.5540166,2.50969529 50.5540166,2.50969529 50.5226223,3.46722068 C50.3970452,7.72114497 50.2714681,8.88273315 49.6749769,10.468144 C49.1412742,11.9279778 48.3878116,12.9796861 46.9593721,14.345337 C46.6454294,13.9372114 46.488458,13.7959372 46.0175439,13.4976916 C47.3047091,12.4773777 48.1523546,11.3471837 48.6703601,9.88734995 C49.1569714,8.52169898 49.3767313,6.46537396 49.3767313,3.15327793 C49.3767313,2.58818098 49.3610342,2.39981533 49.3139428,2.03878116 Z M53.22253,1.9289012 L54.5096953,1.94459834 C54.4312096,2.32132964 54.4155125,2.60387812 54.4155125,3.32594645 L54.3213296,12.8070175 C55.6241921,12.3204063 56.4247461,11.8180979 57.2409972,10.9861496 C58.1043398,10.0914127 58.7165282,9.05540166 59.0932595,7.84672207 C59.4228994,8.27054478 59.5484765,8.41181902 59.9722992,8.75715605 C59.2031394,10.5623269 58.1671283,11.8651893 56.8171745,12.7913204 C56.1265005,13.2622345 55.498615,13.5761773 54.5724838,13.9372114 C54.2899354,14.0470914 54.2899354,14.0470914 54.0701754,14.1255771 C53.8818098,14.2040628 53.8504155,14.2197599 53.7091413,14.2982456 L53.0812558,13.5761773 C53.1754386,13.3093259 53.1911357,13.1837488 53.1911357,12.5087719 L53.2853186,3.32594645 C53.2853186,2.3056325 53.2853186,2.3056325 53.22253,1.9289012 Z M72.843952,12.7128347 L64.4302862,12.7128347 L64.4302862,13.8273315 L63.2216066,13.8273315 C63.2686981,13.4819945 63.2843952,13.1680517 63.2843952,12.6500462 L63.2843952,4.12650046 C63.2843952,3.48291782 63.2686981,3.27885503 63.2216066,2.90212373 C63.5355494,2.93351801 63.833795,2.94921514 64.4459834,2.94921514 L72.8125577,2.94921514 C73.4875346,2.94921514 73.6759003,2.94921514 74.0369344,2.90212373 C73.989843,3.27885503 73.989843,3.48291782 73.989843,4.12650046 L73.989843,12.6186519 C73.989843,13.089566 74.0055402,13.4976916 74.0369344,13.8273315 L72.843952,13.8273315 L72.843952,12.7128347 Z M72.843952,11.6925208 L72.843952,3.98522622 L64.4302862,3.98522622 L64.4302862,11.6925208 L72.843952,11.6925208 Z M87.8190212,12.9482918 L80.3157895,12.9482918 L79.5937211,12.9639889 C79.0600185,12.9639889 79.0129271,12.9796861 78.6361958,13.0267775 L78.6361958,11.7710065 C79.122807,11.8651893 79.3582641,11.8808864 80.3471837,11.8808864 L87.8190212,11.8808864 L87.8190212,4.31486611 L80.6768236,4.31486611 C79.6565097,4.31486611 79.3739612,4.33056325 78.8716528,4.3933518 L78.8716528,3.13758079 C79.3739612,3.23176362 79.6408126,3.24746076 80.6768236,3.24746076 L87.7562327,3.24746076 C88.4155125,3.23176362 88.823638,3.21606648 88.9963066,3.21606648 L88.9963066,12.4616805 C89.0120037,13.4819945 89.0277008,13.6232687 89.0747922,13.9058172 L87.8190212,13.9058172 L87.8190212,12.9482918 Z M87.9602955,1.52077562 L88.7451524,1.11265005 C89.4358264,1.96029548 89.8753463,2.61957525 90.3462604,3.54570637 L89.5614035,4.0166205 C89.1061865,3.05909511 88.5253924,2.14866113 87.9602955,1.52077562 Z M89.734072,0.688827331 L90.5032318,0.265004617 C91.2253001,1.12834718 91.6020314,1.70914127 92.1357341,2.69806094 L91.3508772,3.15327793 C91.0055402,2.41551247 90.3462604,1.39519852 89.734072,0.688827331 Z M100.782435,14 L100.782435,3.68212891 L100.649622,3.68212891 L100.188929,4.01416016 C99.8817986,4.23551543 99.5276354,4.49283708 99.126429,4.78613281 C98.7252226,5.07942855 98.3710594,5.3367502 98.063929,5.55810547 L97.6032356,5.89013672 L97.6032356,4.31298828 L98.084681,3.96850586 C98.4056461,3.73884976 98.7764106,3.47184397 99.1969856,3.16748047 C99.6175607,2.86311697 99.9883252,2.59611117 100.30929,2.36645508 L100.790736,2.02197266 L102.276575,2.02197266 L102.276575,14 L100.782435,14 Z" id="シンボルロゴ-1"></path>
                    <text id="114px" font-family=".AppleSystemUIFont" font-size="11" font-weight="normal">
                        <tspan x="42" y="174">114px</tspan>
                    </text>
                </g>
            </g>
        </g>
    </g>
</svg>