<?xml version="1.0" encoding="UTF-8"?>
<svg width="166px" height="35px" viewBox="0 0 166 35" version="1.1" xmlns="http://www.w3.org/2000/svg" xmlns:xlink="http://www.w3.org/1999/xlink">
    <!-- Generator: Sketch 48.2 (47327) - http://www.bohemiancoding.com/sketch -->
    <title>社名ロゴ</title>
    <desc>Created with Sketch.</desc>
    <defs></defs>
    <g id="Page-1" stroke="none" stroke-width="1" fill="none" fill-rule="evenodd">
        <g id="社名ロゴ" fill="#000000" fill-rule="nonzero">
            <path d="M4.12980728,13.0566038 L2,13.0566038 L2,0.471698113 L7.11153748,0.471698113 C8.59595604,0.471698113 9.73829579,0.808172736 10.538591,1.48113208 C11.3388862,2.15409142 11.7390278,3.14464755 11.7390278,4.45283019 C11.7390278,5.76101283 11.3356593,6.7704367 10.5289101,7.48113208 C9.72216086,8.19182748 8.58304805,8.54716981 7.11153748,8.54716981 L4.12980728,8.54716981 L4.12980728,13.0566038 Z M6.8404711,6.77358491 C7.86020211,6.77358491 8.56044992,6.56918443 8.94123555,6.16037736 C9.32202118,5.75157028 9.51241114,5.20755057 9.51241114,4.52830189 C9.51241114,3.82389585 9.32202118,3.26415302 8.94123555,2.8490566 C8.56044992,2.43396019 7.86020211,2.22641509 6.8404711,2.22641509 L4.12980728,2.22641509 L4.12980728,6.77358491 L6.8404711,6.77358491 Z M16.7392344,0.283018868 L18.9077654,0.283018868 L18.9077654,2.0754717 L16.7392344,2.0754717 L16.7392344,0.283018868 Z M16.79732,3.64150943 L18.8303179,3.64150943 L18.8496798,13.0566038 L16.79732,13.0566038 L16.79732,3.64150943 Z M29.5035565,8.28301887 L33.0661433,13.0566038 L30.5878221,13.0566038 L28.1288627,9.73584906 L25.6505415,13.0566038 L23.4432867,13.0566038 L27.083321,8.33962264 L23.5400961,3.58490566 L25.9990555,3.58490566 L28.4580148,6.86792453 L30.8782503,3.58490566 L33.104867,3.58490566 L29.5035565,8.28301887 Z M41.1836132,3.35849057 C42.6938478,3.35849057 43.8006911,3.83332858 44.5041763,4.78301887 C45.2076617,5.73270915 45.5529451,7.06288453 45.5400371,8.77358491 L38.7246538,8.77358491 C38.7891938,9.70440719 39.0699383,10.4119473 39.5668958,10.8962264 C40.0638533,11.3805055 40.7705551,11.6226415 41.6870222,11.6226415 C42.2807896,11.6226415 42.8487326,11.5503152 43.390868,11.4056604 C43.9330035,11.2610055 44.4105919,11.0754729 44.8236474,10.8490566 L44.8236474,12.6981132 C43.8168245,13.1257883 42.6615768,13.3396226 41.3578701,13.3396226 C39.8992676,13.3396226 38.7537009,12.9088093 37.9211356,12.0471698 C37.0885705,11.1855303 36.6722941,9.96227205 36.6722941,8.37735849 C36.6722941,6.75470887 37.0659818,5.51258292 37.853369,4.6509434 C38.6407563,3.78930387 39.7508266,3.35849057 41.1836132,3.35849057 Z M41.1255275,4.98113208 C40.4414042,4.98113208 39.9057307,5.15723094 39.5184911,5.50943396 C39.1312515,5.86163698 38.8795495,6.45911528 38.7633776,7.30188679 L43.4683155,7.30188679 C43.3779597,6.49685132 43.1456193,5.90880689 42.7712877,5.53773585 C42.396956,5.16666481 41.8483748,4.98113208 41.1255275,4.98113208 Z M50.4240724,13.0566038 L50.4240724,0 L52.4377083,0 L52.4377083,13.0566038 L50.4240724,13.0566038 Z M62.4526429,3.37735849 C63.5498218,3.37735849 64.4565944,3.58490358 65.1729877,4 C65.889381,4.41509642 66.2475723,5.02515321 66.2475723,5.83018868 L66.2475723,13.3396226 C66.2475723,14.421389 65.886154,15.3018834 65.1633067,15.9811321 C64.4404595,16.6603808 63.2916659,17 61.7168913,17 C60.5680804,17 59.5225492,16.8301903 58.580266,16.490566 L58.580266,14.6792453 C59.651629,15.0691843 60.6455291,15.2641509 61.5619962,15.2641509 C62.5946352,15.2641509 63.29811,15.0849074 63.6724416,14.7264151 C64.0467733,14.3679228 64.2339363,13.8930847 64.2339363,13.3018868 L64.2339363,12.6603774 C63.8596046,12.8616362 63.4497823,13.0251566 63.0044566,13.1509434 C62.5591311,13.2767302 62.1234931,13.3396226 61.6975294,13.3396226 C60.2776508,13.3144653 59.1966231,12.8930858 58.4544138,12.0754717 C57.7122045,11.2578575 57.3411054,10.0943472 57.3411054,8.58490566 C57.3411054,6.6226317 57.8057861,5.26415472 58.7351611,4.50943396 C59.6645363,3.75471321 60.9036844,3.37735849 62.4526429,3.37735849 Z M59.4128271,8.52830189 C59.4128271,9.50943892 59.6322595,10.2861606 60.0711311,10.8584906 C60.5100027,11.4308205 61.1618463,11.7169811 62.0266815,11.7169811 C62.8657006,11.7169811 63.6014449,11.534593 64.2339363,11.1698113 L64.2339363,6.20754717 C64.2339363,5.7672934 64.062908,5.46540962 63.7208463,5.30188679 C63.3787847,5.13836396 62.917331,5.05660377 62.3364716,5.05660377 C61.2392927,5.05660377 60.4777329,5.36477679 60.0517693,5.98113208 C59.6258057,6.59748736 59.4128271,7.4465355 59.4128271,8.52830189 Z M71.5962927,4.45283019 C71.9577164,4.23899264 72.5708366,4.00629057 73.4356717,3.75471698 C74.3005069,3.5031434 75.1588752,3.37735849 76.0108023,3.37735849 C76.5271218,3.37735849 76.9659869,3.45911868 77.3274105,3.62264151 L77.3274105,5.20754717 C76.9659869,5.15723245 76.5335758,5.13207547 76.0301642,5.13207547 C75.1782371,5.13207547 74.3779539,5.19496792 73.6292906,5.32075472 L73.6292906,13.0566038 L71.5962927,13.0566038 L71.5962927,4.45283019 Z M86.0644607,3.37735849 C87.1229157,3.37735849 88.0232343,3.62578368 88.7654436,4.12264151 C89.5076528,4.61949934 89.8722981,5.42137811 89.85939,6.52830189 L89.85939,11.0566038 C89.85939,11.911954 89.4721562,12.5062876 88.697677,12.8396226 C87.9231977,13.1729577 86.8195814,13.3396226 85.3867947,13.3396226 C84.2379839,13.3396226 83.289261,13.1069205 82.5405977,12.6415094 C81.7919345,12.1760983 81.4176084,11.3962318 81.4176084,10.3018868 C81.4176084,9.27043514 81.7241685,8.4968579 82.3372979,7.98113208 C82.9504273,7.46540625 83.8184765,7.20754717 84.9414714,7.20754717 C86.1031903,7.20754717 87.0712748,7.43396002 87.845754,7.88679245 L87.845754,6.98113208 C87.845754,5.69810679 87.0519248,5.05660377 85.4642423,5.05660377 C84.8962909,5.05660377 84.3283479,5.14150858 83.7603964,5.31132075 C83.1924451,5.48113292 82.7213105,5.71697962 82.3469789,6.01886792 L82.3469789,4.16981132 C82.7084026,3.94339509 83.2343952,3.75471774 83.9249725,3.60377358 C84.6155499,3.45282943 85.3287054,3.37735849 86.0644607,3.37735849 Z M85.6191373,11.7924528 C86.4323406,11.7924528 87.0067374,11.7358496 87.342345,11.6226415 C87.6779528,11.5094334 87.845754,11.2830205 87.845754,10.9433962 L87.845754,9.11320755 C87.1874467,8.83647665 86.4646103,8.69811321 85.677223,8.69811321 C84.9414678,8.69811321 84.3832057,8.82389811 84.00242,9.0754717 C83.6216344,9.32704528 83.4312444,9.7044 83.4312444,10.2075472 C83.4312444,10.7358517 83.64745,11.1320742 84.0798675,11.3962264 C84.5122852,11.6603787 85.0253699,11.7924528 85.6191373,11.7924528 Z M105.876509,3.37735849 C107.231847,3.37735849 108.222521,3.65408528 108.848558,4.20754717 C109.474595,4.76100906 109.787609,5.62263566 109.787609,6.79245283 L109.787609,13.0566038 L107.754612,13.0566038 L107.754612,7.05660377 C107.754612,5.73584245 106.986598,5.0754717 105.450547,5.0754717 C104.766424,5.0754717 104.140396,5.24528132 103.572445,5.58490566 C103.6628,5.92453 103.707978,6.3270417 103.707978,6.79245283 L103.707978,13.0566038 L101.67498,13.0566038 L101.67498,7.05660377 C101.67498,5.73584245 100.906966,5.0754717 99.3709156,5.0754717 C98.6738844,5.0754717 97.9897713,5.19496736 97.3185559,5.43396226 L97.3185559,13.0566038 L95.285558,13.0566038 L95.285558,4.35849057 C95.8664174,4.06918094 96.5731192,3.83333425 97.4056843,3.6509434 C98.2382496,3.46855255 99.0353059,3.37735849 99.7968771,3.37735849 C101.06186,3.37735849 102.004129,3.61634981 102.623712,4.09433962 C103.669259,3.61634981 104.753514,3.37735849 105.876509,3.37735849 Z M123.331247,0.471698113 L125.480416,0.471698113 L125.480416,11.2830189 L131.656858,11.2830189 L131.656858,13.0566038 L123.331247,13.0566038 L123.331247,0.471698113 Z M136.269827,0.471698113 L138.418996,0.471698113 L138.418996,11.2830189 L144.595437,11.2830189 L144.595437,13.0566038 L136.269827,13.0566038 L136.269827,0.471698113 Z M154.745905,13.245283 C150.654073,13.245283 148.608187,11.0817827 148.608187,6.75471698 C148.608187,2.42765132 150.654073,0.264150943 154.745905,0.264150943 C156.075427,0.264150943 157.411384,0.572323962 158.753815,1.18867925 L158.753815,3.05660377 C157.514648,2.35219774 156.269046,2 155.016971,2 C153.571276,2 152.509611,2.37735472 151.831941,3.13207547 C151.154272,3.88679623 150.815442,5.10062057 150.815442,6.77358491 C150.815442,8.44654929 151.157499,9.65093974 151.841622,10.3867925 C152.525745,11.1226452 153.603546,11.490566 155.075057,11.490566 C156.340039,11.490566 157.56628,11.1509468 158.753815,10.4716981 L158.753815,12.3396226 C158.160047,12.6289323 157.51143,12.8522005 156.807945,13.009434 C156.10446,13.1666675 155.41712,13.245283 154.745905,13.245283 Z M163.695936,10.8490566 L166,10.8490566 L166,13.0566038 L163.695936,13.0566038 L163.695936,10.8490566 Z" id="Pixelgram-LLC."></path>
            <path d="M3.8283287,34.9023605 L2.59572287,34.9023605 C2.45071042,34.9023605 2.43620917,34.888412 2.43620917,34.748927 C2.43620917,34.6652361 2.46521166,34.2886266 2.46521166,32.2660944 L2.46521166,31.0665236 C2.46521166,29.8669528 2.43620917,29.4624464 2.43620917,29.3787554 C2.43620917,29.2392704 2.45071042,29.2253219 2.59572287,29.2253219 C2.68273034,29.2253219 3.19027391,29.2532189 4.58239344,29.2532189 L9.22279186,29.2532189 C10.6149114,29.2532189 11.122455,29.2253219 11.2094625,29.2253219 C11.3689762,29.2253219 11.3834774,29.2392704 11.3834774,29.3787554 C11.3834774,29.4624464 11.3544749,29.8669528 11.3544749,30.8572961 L11.3544749,32.2242489 C11.3544749,34.2328326 11.3834774,34.6094421 11.3834774,34.6791845 C11.3834774,34.8186695 11.3689762,34.832618 11.2094625,34.832618 L9.9768566,34.832618 C9.83184415,34.832618 9.81734291,34.8186695 9.81734291,34.6791845 L9.81734291,34.2188841 L4.00234364,34.2188841 L4.00234364,34.748927 C4.00234364,34.888412 3.98784239,34.9023605 3.8283287,34.9023605 Z M4.00234364,30.5225322 L4.00234364,32.9495708 L9.81734291,32.9495708 L9.81734291,30.5225322 L4.00234364,30.5225322 Z M3.97334115,27.7746781 L3.97334115,26.7703863 C3.13226893,27.3980687 2.23319174,27.9420601 1.29061081,28.416309 C1.11659587,28.5 1.0295884,28.555794 0.957082174,28.555794 C0.855573459,28.555794 0.797568478,28.4581545 0.681558518,28.2070815 C0.493042332,27.8304721 0.261022411,27.5236052 0,27.2725322 C2.66822909,26.1148069 4.39387725,24.6641631 5.58297935,23.0042918 C5.84400176,22.6416309 6.00351546,22.3766094 6.14852791,22.0139485 C6.71407646,22.0976395 7.25062253,22.1813305 7.67115864,22.27897 C7.84517358,22.3347639 7.93218105,22.3766094 7.93218105,22.5021459 C7.93218105,22.5718884 7.90317856,22.6416309 7.7871686,22.7113734 C7.74366486,22.7392704 7.70016113,22.7671674 7.67115864,22.8090129 C9.3968068,24.9291845 11.4124799,26.2263948 13.8631903,27.0633047 C13.6166692,27.3562232 13.3991505,27.7328326 13.254138,28.1233906 C13.1671306,28.388412 13.1091256,28.4860515 12.9931156,28.4860515 C12.9206094,28.4860515 12.8045994,28.444206 12.6450857,28.360515 C11.6154973,27.9141631 10.6729164,27.3980687 9.81734291,26.7982833 L9.81734291,27.7746781 C9.81734291,27.9141631 9.80284166,27.9281116 9.65782921,27.9281116 C9.57082174,27.9281116 9.17928812,27.9002146 8.01918852,27.9002146 L5.77149553,27.9002146 C4.61139593,27.9002146 4.23436356,27.9281116 4.13285484,27.9281116 C3.98784239,27.9281116 3.97334115,27.9141631 3.97334115,27.7746781 Z M5.77149553,26.6030043 L8.01918852,26.6030043 C8.87476198,26.6030043 9.30979933,26.5890558 9.51281676,26.5890558 C8.46872712,25.8218884 7.58415117,24.9291845 6.84458767,23.9388412 C6.09052293,24.943133 5.19144573,25.8079399 4.20536107,26.5751073 C4.37937601,26.5890558 4.78541087,26.6030043 5.77149553,26.6030043 Z M28.2677603,25.8776824 L28.2677603,30.8712446 C28.2677603,32.0847639 28.2967628,32.8100858 28.2967628,33.2843348 C28.2822615,33.8004292 28.1372491,34.1630901 27.832723,34.4281116 C27.5426981,34.6512876 27.006152,34.804721 25.6430349,34.804721 C25.1934963,34.804721 25.1934963,34.8186695 25.0919876,34.3583691 C25.0049802,33.9817597 24.874469,33.5772532 24.6859528,33.2564378 C25.3240076,33.3261803 25.8605536,33.3401288 26.1650798,33.3401288 C26.5856159,33.3401288 26.7306283,33.2006438 26.7306283,32.8658798 L26.7306283,24.1201717 L17.8123626,24.1201717 L17.8123626,32.2242489 C17.8123626,33.8422747 17.8413651,34.6652361 17.8413651,34.748927 C17.8413651,34.888412 17.8268639,34.9023605 17.6673502,34.9023605 L16.4057418,34.9023605 C16.2607294,34.9023605 16.2462281,34.888412 16.2462281,34.748927 C16.2462281,34.6512876 16.2752306,33.7306867 16.2752306,31.833691 L16.2752306,25.8358369 C16.2752306,23.9388412 16.2462281,22.9903433 16.2462281,22.8927039 C16.2462281,22.7532189 16.2607294,22.7392704 16.4057418,22.7392704 C16.5072506,22.7392704 16.9857916,22.7671674 18.3344074,22.7671674 L26.2085835,22.7671674 C27.5571993,22.7671674 28.0357404,22.7392704 28.1372491,22.7392704 C28.2822615,22.7392704 28.2967628,22.7532189 28.2967628,22.8927039 C28.2967628,22.9903433 28.2677603,23.9806867 28.2677603,25.8776824 Z M20.6836091,33.0053648 L19.5815145,33.0053648 C19.4365021,33.0053648 19.4220008,32.9914163 19.4220008,32.8519313 C19.4220008,32.7542918 19.4510033,32.4055794 19.4510033,30.5085837 L19.4510033,29.3648069 C19.4510033,28.2628755 19.4220008,27.9002146 19.4220008,27.8025751 C19.4220008,27.6630901 19.4365021,27.6491416 19.5815145,27.6491416 C19.6830232,27.6491416 20.0600556,27.6770386 21.1766515,27.6770386 L23.2503295,27.6770386 C24.3959279,27.6770386 24.758459,27.6491416 24.8599677,27.6491416 C25.0049802,27.6491416 25.0194814,27.6630901 25.0194814,27.8025751 C25.0194814,27.8862661 24.9904789,28.248927 24.9904789,29.1137339 L24.9904789,30.2854077 C24.9904789,32.1405579 25.0194814,32.4753219 25.0194814,32.5590129 C25.0194814,32.7124464 25.0049802,32.7263948 24.8599677,32.7263948 L23.7578731,32.7263948 C23.6128606,32.7263948 23.5983594,32.7124464 23.5983594,32.5590129 L23.5983594,32.1126609 L20.8431228,32.1126609 L20.8431228,32.8519313 C20.8431228,32.9914163 20.8286216,33.0053648 20.6836091,33.0053648 Z M20.8431228,28.9045064 L20.8431228,30.8851931 L23.5983594,30.8851931 L23.5983594,28.9045064 L20.8431228,28.9045064 Z M23.7578731,26.5193133 L20.7126116,26.5193133 C19.4365021,26.5193133 19.0014647,26.5472103 18.899956,26.5472103 C18.7549435,26.5472103 18.7404423,26.5332618 18.7404423,26.3798283 L18.7404423,25.3476395 C18.7404423,25.2081545 18.7549435,25.194206 18.899956,25.194206 C19.0014647,25.194206 19.4365021,25.222103 20.7126116,25.222103 L23.7578731,25.222103 C25.0339827,25.222103 25.4835213,25.194206 25.5705287,25.194206 C25.7155412,25.194206 25.7300424,25.2081545 25.7300424,25.3476395 L25.7300424,26.3798283 C25.7300424,26.5332618 25.7155412,26.5472103 25.5705287,26.5472103 C25.4835213,26.5472103 25.0339827,26.5193133 23.7578731,26.5193133 Z M35.2621942,30.3830472 L33.7540647,30.3830472 C32.3909476,30.3830472 31.9269078,30.4109442 31.8399003,30.4109442 C31.6803866,30.4109442 31.6658854,30.3969957 31.6658854,30.2575107 L31.6658854,29.2113734 C31.6658854,29.0718884 31.6803866,29.0579399 31.8399003,29.0579399 C31.9269078,29.0579399 32.3909476,29.0858369 33.7540647,29.0858369 L41.4832283,29.0858369 C42.8463453,29.0858369 43.3103852,29.0579399 43.3973927,29.0579399 C43.5569063,29.0579399 43.5714076,29.0718884 43.5714076,29.2113734 L43.5714076,30.2575107 C43.5714076,30.3969957 43.5569063,30.4109442 43.3973927,30.4109442 C43.3103852,30.4109442 42.8463453,30.3830472 41.4832283,30.3830472 L37.0023436,30.3830472 C36.6398125,31.2478541 36.2047751,32.1266094 35.7117328,33.0053648 C37.2198623,32.9216738 38.800498,32.7961373 40.1781162,32.6566524 C39.8445876,32.2660944 39.511059,31.8755365 39.1195254,31.47103 C39.0180166,31.3594421 39.0325179,31.3036481 39.2065328,31.2199571 L40.1346125,30.7596567 C40.2941262,30.6759657 40.3376299,30.6899142 40.4391387,30.7875536 C41.4252233,31.777897 42.2517943,32.7821888 43.1363702,34.0236052 C43.2088765,34.1351931 43.2088765,34.1909871 43.063864,34.2886266 L42.0632781,34.916309 C41.9762706,34.972103 41.9327669,35 41.8892632,35 C41.8457594,35 41.8167569,34.972103 41.7732532,34.9023605 C41.526732,34.5118026 41.2802109,34.1491416 41.048191,33.8143777 C38.6409843,34.1072961 35.6827303,34.3444206 33.2175186,34.5257511 C32.9854987,34.5396996 32.7969825,34.5954936 32.6954738,34.6512876 C32.6229676,34.7070815 32.5504613,34.7349785 32.4489526,34.7349785 C32.3474439,34.7349785 32.2749377,34.6652361 32.2459352,34.5396996 C32.115424,34.0793991 32.0284165,33.5912017 31.9414091,33.1030043 C32.4779551,33.1448498 32.9564962,33.1309013 33.5220448,33.1030043 C33.6670572,33.1030043 33.8265709,33.0890558 33.9860846,33.0890558 C34.5081294,32.1405579 34.9286655,31.2478541 35.2621942,30.3830472 Z M34.6821444,27.6630901 L34.6821444,26.6030043 C33.8700746,27.1748927 32.9854987,27.6770386 32.057419,28.1094421 C31.8834041,28.193133 31.7818954,28.2349785 31.7093891,28.2349785 C31.6078804,28.2349785 31.5643767,28.1373391 31.4483667,27.8862661 C31.2743518,27.5375536 31.0713343,27.2306867 30.7958107,26.9656652 C33.3190273,26.0032189 35.2041892,24.5246781 36.3642888,22.9066524 C36.61081,22.5579399 36.7413212,22.3208155 36.8718324,22 C37.4373809,22.0697425 37.973927,22.167382 38.4379668,22.2929185 C38.6119818,22.3347639 38.6989893,22.3905579 38.6989893,22.4881974 C38.6989893,22.5718884 38.6699868,22.6555794 38.5539768,22.7113734 C38.4669693,22.7532189 38.4089644,22.7950644 38.3509594,22.8369099 C39.9896001,24.7618026 41.9472681,25.9753219 44.484986,26.8261803 C44.2094624,27.1609442 44.0209462,27.4957082 43.8614325,27.8723176 C43.7599238,28.1233906 43.71642,28.22103 43.6149113,28.22103 C43.5424051,28.22103 43.4408964,28.1791845 43.2813827,28.1094421 C42.295298,27.6909871 41.3527171,27.2027897 40.5116449,26.6309013 L40.5116449,27.6630901 C40.5116449,27.8025751 40.4971436,27.8165236 40.3521312,27.8165236 C40.2651237,27.8165236 39.8735901,27.7886266 38.7134905,27.7886266 L36.4802988,27.7886266 C35.3201992,27.7886266 34.9286655,27.8165236 34.8416581,27.8165236 C34.6966456,27.8165236 34.6821444,27.8025751 34.6821444,27.6630901 Z M36.4802988,26.4914163 L38.7134905,26.4914163 C39.6850739,26.4914163 40.1201113,26.4774678 40.279625,26.4635193 C39.2355353,25.7381974 38.3219569,24.8873391 37.5388896,23.9109442 C36.7703237,24.8873391 35.8857477,25.7381974 34.8851618,26.4635193 C35.015673,26.4774678 35.4217079,26.4914163 36.4802988,26.4914163 Z M57.4394316,34.4420601 L53.3645818,34.4420601 C51.9869635,34.4420601 51.5084224,34.4699571 51.4214149,34.4699571 C51.2764025,34.4699571 51.2619012,34.4560086 51.2619012,34.3165236 L51.2619012,33.2145923 C51.2619012,33.0751073 51.2764025,33.0611588 51.4214149,33.0611588 C51.5084224,33.0611588 51.9869635,33.0890558 53.3645818,33.0890558 L54.5826863,33.0890558 L54.5826863,27.8723176 L53.9301303,27.8723176 C52.6395195,27.8723176 52.1899809,27.8862661 52.1029734,27.8862661 C51.9724622,27.8862661 51.957961,27.8862661 51.957961,27.7467811 L51.957961,26.6448498 C51.957961,26.5053648 51.9724622,26.5053648 52.1029734,26.5053648 C52.1899809,26.5053648 52.6395195,26.5193133 53.9301303,26.5193133 L54.5826863,26.5193133 L54.5826863,24.3015021 C54.5826863,23.3111588 54.5681851,22.8369099 54.4666764,22.195279 C55.0177237,22.2092275 55.568771,22.2371245 56.0763146,22.2929185 C56.2068258,22.306867 56.3083345,22.3626609 56.3083345,22.4324034 C56.3083345,22.5439914 56.2938333,22.6137339 56.2358283,22.7253219 C56.1488208,22.8927039 56.1198183,23.2414163 56.1198183,24.2596567 L56.1198183,26.5193133 L57.0333968,26.5193133 C58.3240076,26.5193133 58.7735462,26.5053648 58.8605536,26.5053648 C59.0055661,26.5053648 59.0200673,26.5053648 59.0200673,26.6448498 L59.0200673,27.7467811 C59.0200673,27.8862661 59.0055661,27.8862661 58.8605536,27.8862661 C58.7735462,27.8862661 58.3240076,27.8723176 57.0333968,27.8723176 L56.1198183,27.8723176 L56.1198183,33.0890558 L57.4394316,33.0890558 C58.8170499,33.0890558 59.2810897,33.0611588 59.3680972,33.0611588 C59.5276109,33.0611588 59.5421122,33.0751073 59.5421122,33.2145923 L59.5421122,34.3165236 C59.5421122,34.4560086 59.5276109,34.4699571 59.3680972,34.4699571 C59.2810897,34.4699571 58.8170499,34.4420601 57.4394316,34.4420601 Z M48.5211659,33.1727468 L48.5211659,29.8390558 C48.0716273,30.2575107 47.6220887,30.6480687 47.1435476,30.9967811 C46.9985352,31.1083691 46.9115277,31.1781116 46.8390215,31.1781116 C46.752014,31.1781116 46.694009,31.0665236 46.6070016,30.8572961 C46.4619891,30.4667382 46.2879742,30.1040773 46.099458,29.8669528 C47.7961037,28.8347639 49.1592207,27.3283262 49.8842829,25.7381974 L48.2456423,25.7381974 C47.1435476,25.7381974 46.7955177,25.7660944 46.7085103,25.7660944 C46.5634978,25.7660944 46.5489966,25.7521459 46.5489966,25.6126609 L46.5489966,24.5804721 C46.5489966,24.4409871 46.5634978,24.4270386 46.7085103,24.4270386 C46.7955177,24.4270386 47.1435476,24.4549356 48.2456423,24.4549356 L48.5211659,24.4549356 L48.5211659,23.8830472 C48.5211659,23.1437768 48.5066647,22.6974249 48.4051559,22.1813305 C48.9562033,22.195279 49.3912406,22.223176 49.9132854,22.27897 C50.0582979,22.2929185 50.1453054,22.3626609 50.1453054,22.4184549 C50.1453054,22.5439914 50.1018016,22.6137339 50.0582979,22.7113734 C49.9712904,22.8787554 49.9712904,23.1158798 49.9712904,23.8272532 L49.9712904,24.4549356 L50.5803427,24.4549356 C50.7108539,24.4549356 50.7833601,24.4409871 50.8558664,24.3991416 C50.9138713,24.3712446 50.9718763,24.3433476 51.0153801,24.3433476 C51.1023875,24.3433476 51.2474,24.4270386 51.5519261,24.7060086 C51.8274498,24.97103 51.9434597,25.110515 51.9434597,25.2081545 C51.9434597,25.277897 51.9144573,25.3476395 51.7984473,25.4313305 C51.6679361,25.556867 51.5809286,25.6266094 51.4649187,25.8358369 C51.1168888,26.5472103 50.6963527,27.2306867 50.2323128,27.8723176 C50.7978614,28.5 51.4794199,29.0021459 52.3639958,29.5042918 C52.1464772,29.7274678 51.9434597,30.0622318 51.783946,30.4109442 C51.6824373,30.6201717 51.6099311,30.7178112 51.5084224,30.7178112 C51.4359162,30.7178112 51.3489087,30.6620172 51.2183975,30.5504292 C50.7543576,30.1459227 50.3338215,29.6995708 49.9712904,29.2532189 L49.9712904,33.1727468 C49.9712904,34.2049356 50.0002929,34.748927 50.0002929,34.8186695 C50.0002929,34.9581545 49.9857917,34.972103 49.826278,34.972103 L48.6661784,34.972103 C48.5066647,34.972103 48.4921634,34.9581545 48.4921634,34.8186695 C48.4921634,34.7349785 48.5211659,34.2049356 48.5211659,33.1727468 Z M65.6229676,25.6405579 L65.6229676,27.5793991 C66.8990772,27.1748927 68.0011718,26.7703863 69.1612714,26.2263948 C69.9443386,25.8637339 70.3068697,25.6405579 70.7129046,25.222103 C71.2204482,25.6266094 71.6989893,26.1984979 71.9165079,26.4774678 C72.0905229,26.6727468 72.0760216,26.9098712 71.7859967,26.9796137 C71.3799619,27.0772532 70.973927,27.2725322 70.5823934,27.4399142 C69.1467701,28.0675966 67.5226307,28.6255365 65.6084663,29.1695279 L65.6084663,31.0246781 C65.6084663,31.6802575 65.7099751,31.9034335 66.0870074,32.0150215 C66.4640398,32.1126609 67.0295884,32.1684549 67.9141643,32.1684549 C69.2772813,32.1684549 70.4953859,32.0708155 72.0035154,31.8476395 C72.2210341,31.8197425 72.2500366,31.8755365 72.2645378,32.0429185 C72.3080416,32.4334764 72.3515453,32.9635193 72.3515453,33.2564378 C72.3515453,33.4377682 72.2645378,33.4935622 72.0470191,33.5075107 C70.4083785,33.7027897 69.5673062,33.7585837 67.7401494,33.7585837 C66.4495386,33.7585837 65.5939651,33.6330472 64.9849128,33.3819742 C64.2598505,33.0890558 63.9553244,32.4334764 63.9553244,31.2896996 L63.9553244,26.1427039 C63.9553244,24.8175966 63.9263219,24.2875536 63.810312,23.5901288 C64.4918705,23.6598712 65.173429,23.7435622 65.6374688,23.8690987 C65.9564962,23.9388412 65.8984912,24.1759657 65.76798,24.3851931 C65.6519701,24.6083691 65.6229676,24.9849785 65.6229676,25.6405579 Z M73.2941262,22.9763948 C74.1642009,22.9763948 74.8602607,23.6319742 74.8602607,24.4688841 C74.8602607,25.305794 74.1642009,25.9613734 73.2941262,25.9613734 C72.4240515,25.9613734 71.7279918,25.305794 71.7279918,24.4688841 C71.7279918,23.6040773 72.4240515,22.9763948 73.2941262,22.9763948 Z M73.2941262,23.6459227 C72.8010839,23.6459227 72.4385528,23.9946352 72.4385528,24.4688841 C72.4385528,24.943133 72.8010839,25.2918455 73.2941262,25.2918455 C73.7871686,25.2918455 74.1496997,24.943133 74.1496997,24.4688841 C74.1496997,23.9946352 73.7871686,23.6459227 73.2941262,23.6459227 Z M82.9132854,24.943133 L85.5235096,24.8873391 C85.9005419,24.8733906 86.0890581,24.8175966 86.2485718,24.7199571 C86.3065768,24.6781116 86.3645818,24.6641631 86.437088,24.6641631 C86.5095942,24.6641631 86.5821004,24.6920601 86.6691079,24.7478541 C87.031639,24.97103 87.3651677,25.2360515 87.6551926,25.501073 C87.7857038,25.6126609 87.8437088,25.7242489 87.8437088,25.8218884 C87.8437088,25.9334764 87.7712025,26.0311159 87.6696938,26.1148069 C87.4666764,26.2682403 87.3216639,26.4635193 87.1911527,26.7145923 C86.2195693,28.611588 85.2914896,29.9645923 84.3199062,31.0246781 C83.0727991,32.3776824 81.347151,33.7306867 79.9115277,34.4978541 C79.8245202,34.5536481 79.752014,34.5675966 79.6795078,34.5675966 C79.5634978,34.5675966 79.4619891,34.5118026 79.3459792,34.4141631 C78.983448,34.1351931 78.5339094,33.9259657 77.9683609,33.7725322 C80.2305551,32.5729614 81.3761535,31.694206 82.7972755,30.2156652 C83.9428738,28.9881974 84.6099311,28.0396996 85.4800058,26.2542918 L81.9707045,26.3519313 C80.7816024,27.7607296 80.0565402,28.555794 79.2299692,29.2113734 C79.1284605,29.3090129 79.0269518,29.3648069 78.9254431,29.3648069 C78.8529368,29.3648069 78.7804306,29.3369099 78.7079244,29.2811159 C78.3453933,29.0300429 77.8088472,28.77897 77.3158049,28.6813305 C79.2009667,27.2027897 80.3175626,25.9055794 81.2166398,24.5386266 C81.6951809,23.7575107 81.9126995,23.3251073 82.0722132,22.6555794 C82.8987842,22.9345494 83.4498315,23.1716738 83.7688589,23.3948498 C83.8703676,23.4645923 83.9138714,23.5482833 83.9138714,23.6319742 C83.9138714,23.7156652 83.8703676,23.7993562 83.7543577,23.8690987 C83.6093452,23.9527897 83.5078365,24.1062232 83.3918265,24.2457082 C83.2323128,24.4828326 83.0873004,24.6920601 82.9132854,24.943133 Z M95.7517211,26.9935622 L95.7517211,25.6545064 C95.7517211,24.5525751 95.7227186,23.9806867 95.5632049,23.1995708 C96.2882671,23.2553648 96.9843269,23.3530043 97.4338655,23.4785408 C97.6223817,23.5203863 97.7093892,23.6040773 97.7093892,23.7296137 C97.7093892,23.7854077 97.6803867,23.8690987 97.6223817,23.9527897 C97.462868,24.2457082 97.4338655,24.5386266 97.4338655,25.194206 L97.4338655,26.6309013 L101.21869,25.7800429 C101.856745,25.6405579 101.987256,25.5708155 102.248279,25.3755365 C102.320785,25.3197425 102.393291,25.2918455 102.451296,25.2918455 C102.523803,25.2918455 102.581808,25.3197425 102.654314,25.3755365 C102.95884,25.556867 103.42288,25.9474249 103.727406,26.2821888 C103.814413,26.3658798 103.857917,26.4495708 103.857917,26.5332618 C103.857917,26.6309013 103.785411,26.7285408 103.669401,26.8122318 C103.466383,26.9517167 103.350373,27.1609442 103.219862,27.3562232 C102.480299,28.555794 101.755237,29.5740343 100.914164,30.3690987 C100.783653,30.4946352 100.667643,30.5783262 100.537132,30.5783262 C100.450124,30.5783262 100.363117,30.5504292 100.261608,30.4806867 C99.8410722,30.2435622 99.4785411,30.0622318 99.058005,29.9506438 C100.058591,29.1137339 100.769152,28.1791845 101.421708,27.1609442 L97.4338655,28.1373391 L97.4338655,31.3036481 C97.4338655,32.0429185 97.6948879,32.2800429 99.2610224,32.2800429 C100.435623,32.2800429 101.784239,32.1405579 102.770324,31.973176 C102.973341,31.945279 102.987842,32.0429185 103.016845,32.2521459 C103.089351,32.6287554 103.147356,33.0472103 103.147356,33.4238197 C103.147356,33.5633047 103.060349,33.6190987 102.84283,33.6330472 C101.972755,33.7306867 100.972169,33.8004292 99.3770323,33.8004292 C96.6072945,33.8004292 95.7517211,33.2285408 95.7517211,31.3454936 L95.7517211,28.527897 L94.8236414,28.7650215 C94.0405742,28.9603004 93.2285044,29.1695279 92.7789658,29.3648069 C92.7064596,29.3927039 92.6484546,29.4206009 92.6049509,29.4206009 C92.5034422,29.4206009 92.4454372,29.3508584 92.372931,29.1974249 C92.1699135,28.8347639 91.9523949,28.2349785 91.7928812,27.7746781 C92.7064596,27.6630901 93.5330306,27.5236052 94.5191152,27.2864807 L95.7517211,26.9935622 Z M115.057712,26.2542918 L115.057712,30.9130901 C115.768273,30.5504292 116.43533,30.1180258 117.116889,29.6158798 C117.986964,28.9742489 118.842537,28.2349785 119.654607,27.2446352 C119.712612,27.7328326 119.857624,28.193133 120.104145,28.6534335 C120.147649,28.751073 120.191153,28.8208155 120.191153,28.8905579 C120.191153,28.9881974 120.133148,29.0858369 119.973634,29.2392704 C119.248572,29.9506438 118.581515,30.5225322 117.82745,31.0665236 C117.073385,31.6244635 116.261315,32.1684549 115.246228,32.7403433 C114.985206,32.9077253 114.956203,32.9356223 114.825692,33.0332618 C114.738685,33.1030043 114.637176,33.1448498 114.535667,33.1448498 C114.44866,33.1448498 114.347151,33.1030043 114.231141,33.0332618 C113.912114,32.8240343 113.578585,32.4613734 113.361066,32.1824034 C113.274059,32.056867 113.230555,31.973176 113.230555,31.889485 C113.230555,31.8197425 113.245056,31.7639485 113.28856,31.6802575 C113.390069,31.498927 113.375568,31.3315451 113.375568,30.6201717 L113.375568,26.2542918 C113.375568,25.0407725 113.375568,24.4688841 113.230555,23.8272532 C113.810605,23.8969957 114.608173,23.9946352 115.043211,24.1201717 C115.231727,24.1620172 115.304233,24.2457082 115.304233,24.3572961 C115.304233,24.4409871 115.260729,24.5665236 115.188223,24.7060086 C115.057712,24.97103 115.057712,25.25 115.057712,26.2542918 Z M109.996777,24.7060086 C110.823348,24.8036481 111.490406,24.9012876 111.838436,25.0128755 C112.084957,25.082618 112.113959,25.25 112.026952,25.445279 C111.867438,25.7521459 111.852937,26.0590129 111.852937,26.3937768 C111.823934,28.1373391 111.548411,29.4624464 111.06987,30.4946352 C110.692837,31.3454936 110.054782,32.2521459 109.010693,33.1169528 C108.86568,33.2285408 108.74967,33.2982833 108.63366,33.2982833 C108.546653,33.2982833 108.459646,33.2564378 108.358137,33.1866953 C107.995606,32.9495708 107.647576,32.7821888 107.125531,32.6008584 C108.256628,31.777897 109.025194,30.9270386 109.532738,29.8251073 C109.938772,28.8766094 110.127289,28.1094421 110.14179,25.8776824 C110.14179,25.3476395 110.112787,25.1244635 109.996777,24.7060086 Z M128.650212,25.0686695 L131.260436,25.0128755 C131.637469,24.998927 131.825985,24.943133 131.985499,24.8454936 C132.043504,24.8036481 132.101509,24.7896996 132.174015,24.7896996 C132.246521,24.7896996 132.319027,24.8175966 132.406035,24.8733906 C132.768566,25.0965665 133.102095,25.361588 133.39212,25.6266094 C133.522631,25.7381974 133.580636,25.8497854 133.580636,25.9474249 C133.580636,26.0590129 133.508129,26.1566524 133.406621,26.2403433 C133.203603,26.3937768 133.058591,26.5890558 132.92808,26.8401288 C131.956496,28.7371245 131.028417,30.0901288 130.056833,31.1502146 C128.809726,32.5032189 127.084078,33.8562232 125.648455,34.6233906 C125.561447,34.6791845 125.488941,34.693133 125.416435,34.693133 C125.300425,34.693133 125.198916,34.6373391 125.082906,34.5396996 C124.720375,34.2607296 124.270836,34.0515021 123.705288,33.8980687 C125.967482,32.6984979 127.11308,31.8197425 128.534202,30.3412017 C129.679801,29.1137339 130.346858,28.1652361 131.216933,26.3798283 L127.707631,26.4774678 C126.518529,27.8862661 125.793467,28.6813305 124.966896,29.3369099 C124.865387,29.4345494 124.763879,29.4903433 124.66237,29.4903433 C124.589864,29.4903433 124.517358,29.4624464 124.444851,29.4066524 C124.08232,29.1555794 123.545774,28.9045064 123.052732,28.806867 C124.937894,27.3283262 126.05449,26.0311159 126.953567,24.6641631 C127.432108,23.8830472 127.649626,23.4506438 127.80914,22.7811159 C128.635711,23.0600858 129.186758,23.2972103 129.505786,23.5203863 C129.607295,23.5901288 129.650798,23.6738197 129.650798,23.7575107 C129.650798,23.8412017 129.607295,23.9248927 129.491285,23.9946352 C129.346272,24.0783262 129.244763,24.2317597 129.128753,24.3712446 C128.96924,24.6083691 128.824227,24.8175966 128.650212,25.0686695 Z M132.290025,23.6459227 L133.058591,23.1298283 C133.131097,23.0740343 133.189102,23.0879828 133.27611,23.1577253 C133.725648,23.4924893 134.247693,24.0504292 134.653728,24.6502146 C134.711733,24.7339056 134.711733,24.8036481 134.610224,24.8733906 L134.001172,25.305794 C133.899663,25.3755365 133.827157,25.361588 133.754651,25.2639485 C133.319613,24.6223176 132.855573,24.0922747 132.290025,23.6459227 Z M133.624139,22.7253219 L134.349202,22.223176 C134.436209,22.167382 134.479713,22.1813305 134.56672,22.251073 C135.103266,22.6416309 135.625311,23.1995708 135.944339,23.6877682 C136.002344,23.7714592 136.016845,23.8551502 135.900835,23.9388412 L135.320785,24.3712446 C135.204775,24.4549356 135.132269,24.4130901 135.074264,24.3293991 C134.68273,23.7296137 134.21869,23.1995708 133.624139,22.7253219 Z M145.302475,24.7339056 L142.431229,24.7339056 C141.778673,24.7339056 141.053611,24.7478541 140.444558,24.7896996 C140.299546,24.7896996 140.256042,24.7060086 140.241541,24.4828326 C140.198037,24.1899142 140.169035,23.5761803 140.169035,23.1437768 C141.053611,23.2274678 141.488648,23.2414163 142.547239,23.2414163 L145.157463,23.2414163 C146.100044,23.2414163 146.86861,23.1995708 147.434158,23.1716738 C147.56467,23.1716738 147.608173,23.2414163 147.608173,23.3948498 C147.637176,23.7435622 147.637176,24.1341202 147.608173,24.4828326 C147.608173,24.7199571 147.56467,24.7757511 147.347151,24.7618026 C146.86861,24.7618026 146.187051,24.7339056 145.302475,24.7339056 Z M146.40457,27.7188841 L141.459646,27.7328326 C140.734583,27.7328326 140.009521,27.7467811 139.284459,27.7886266 C139.153948,27.7886266 139.095943,27.7049356 139.06694,27.5236052 C138.979933,27.1748927 138.95093,26.6587983 138.907426,26.1148069 C139.733997,26.1984979 140.618573,26.2263948 141.575655,26.2263948 L146.549583,26.2263948 C146.796104,26.2263948 147.086129,26.1984979 147.318149,26.0729614 C147.390655,26.0171674 147.44866,25.9892704 147.506665,25.9892704 C147.579171,25.9892704 147.651677,26.0311159 147.724183,26.0869099 C148.072213,26.3519313 148.463747,26.7006438 148.695767,26.9517167 C148.797276,27.0493562 148.840779,27.1469957 148.840779,27.2446352 C148.840779,27.3283262 148.797276,27.4259657 148.681266,27.5096567 C148.449246,27.6909871 148.347737,27.8444206 148.188223,28.1652361 C146.738099,31.1362661 145.070456,32.8798283 142.271715,34.3304721 C142.155705,34.3862661 142.068698,34.4281116 141.98169,34.4281116 C141.880182,34.4281116 141.778673,34.3723176 141.662663,34.2607296 C141.271129,33.9259657 140.807089,33.7167382 140.314047,33.5354077 C142.996777,32.3358369 145.36048,30.4109442 146.40457,27.7188841 Z M158.039402,22.8927039 C158.923978,23.1437768 159.547532,23.3390558 159.99707,23.6180258 C160.098579,23.6877682 160.171085,23.7575107 160.171085,23.8412017 C160.171085,23.9109442 160.127582,24.0085837 160.026073,24.1201717 C159.765051,24.4409871 159.591036,24.8733906 159.431522,25.277897 C158.619452,27.4120172 157.850886,29.4624464 156.937308,31.554721 C159.170499,31.3733906 160.388604,31.2618026 162.012744,31.0246781 C161.563205,30.2575107 161.026659,29.4903433 160.403105,28.7929185 C160.838143,28.5697425 161.258679,28.332618 161.664714,28.1233906 C161.824227,28.0396996 161.911235,28.0954936 162.012744,28.2070815 C163.143841,29.4763948 164.231434,31.2199571 164.941995,32.7682403 C164.985499,32.8379828 165,32.8937768 165,32.9495708 C165,33.0332618 164.941995,33.1169528 164.811484,33.1866953 C164.463454,33.4098712 164.100923,33.5912017 163.709389,33.7585837 C163.651384,33.7864807 163.593379,33.8004292 163.535374,33.8004292 C163.448367,33.8004292 163.375861,33.7306867 163.332357,33.6051502 C163.158342,33.2145923 162.998828,32.8519313 162.824813,32.4892704 C160.504614,32.8240343 158.300425,33.0611588 155.936722,33.2982833 C154.97964,33.3959227 154.588106,33.4656652 154.240076,33.6330472 C154.05156,33.7167382 153.892046,33.6888412 153.81954,33.4935622 C153.70353,33.2564378 153.515014,32.5590129 153.311996,31.694206 C153.892046,31.7360515 154.501099,31.722103 155.081148,31.7081545 C156.110737,29.2113734 156.864802,27.1469957 157.618866,24.8036481 C157.850886,24.0783262 157.995899,23.5901288 158.039402,22.8927039 Z" id="合同会社ピクセルグラム"></path>
        </g>
    </g>
</svg>