<?xml version="1.0" encoding="UTF-8"?>
<svg width="81px" height="18px" viewBox="0 0 81 18" version="1.1" xmlns="http://www.w3.org/2000/svg" xmlns:xlink="http://www.w3.org/1999/xlink">
    <!-- Generator: Sketch 48.2 (47327) - http://www.bohemiancoding.com/sketch -->
    <title>使用目的</title>
    <desc>Created with Sketch.</desc>
    <defs></defs>
    <g id="Artboard" stroke="none" stroke-width="1" fill="none" fill-rule="evenodd" transform="translate(-595.000000, -326.000000)">
        <g id="使用目的" transform="translate(0.000000, 326.000000)" fill="#000000">
            <path d="M605.323176,10.478301 L602.57156,10.478301 C601.888273,10.478301 601.463527,10.4967682 600.946445,10.5521699 C601.001847,10.1274238 601.020314,9.77654663 601.020314,9.29639889 L601.020314,6.76638966 C601.020314,6.10156971 601.001847,5.89843029 600.946445,5.47368421 C601.44506,5.51061865 601.703601,5.52908587 602.608495,5.52908587 L605.637119,5.52908587 L605.655586,4.42105263 L605.655586,3.6823638 L602.146814,3.6823638 C601.371191,3.6823638 600.927978,3.70083102 600.44783,3.77469991 L600.44783,2.53739612 C600.946445,2.611265 601.518929,2.64819945 602.220683,2.64819945 L605.637119,2.64819945 C605.637119,1.52169898 605.618652,1.15235457 605.526316,0.524469067 L606.855956,0.524469067 C606.782087,1.02308403 606.76362,1.48476454 606.76362,2.64819945 L610.660203,2.64819945 C611.398892,2.64819945 611.971376,2.611265 612.506925,2.53739612 L612.506925,3.77469991 C611.989843,3.70083102 611.54663,3.6823638 610.771006,3.6823638 L606.76362,3.6823638 L606.76362,4.2179132 C606.76362,4.29178209 606.76362,4.53185596 606.745152,4.88273315 L606.745152,5.52908587 L609.736842,5.52908587 C610.530933,5.52908587 610.955679,5.51061865 611.454294,5.47368421 C611.417359,5.87996307 611.398892,6.34164358 611.398892,6.85872576 L611.398892,9.07479224 C611.398892,9.86888273 611.398892,10.2012927 611.454294,10.5521699 C610.937211,10.4967682 610.457064,10.478301 609.626039,10.478301 L606.43121,10.478301 C606.191136,11.8633426 605.914127,12.7313019 605.397045,13.5438596 C607.336103,14.8734995 609.607572,15.6306556 612.654663,15.9445983 C612.414589,16.3139428 612.21145,16.7386888 612.082179,17.1634349 C609.072022,16.6832872 606.745152,15.7968606 604.750693,14.3933518 C603.642659,15.66759 602.423823,16.4616805 600.207756,17.2927054 C599.967682,16.8494922 599.78301,16.5724838 599.487535,16.2770083 C601.629732,15.5752539 602.959372,14.8180979 603.956602,13.7654663 C603.310249,13.1745152 603.310249,13.1745152 602.349954,12.0110803 C602.202216,11.8448753 602.183749,11.8079409 602.054478,11.6786704 L603.088643,11.0692521 C603.328717,11.6048015 603.845799,12.232687 604.56602,12.8975069 C604.935365,12.2142198 605.120037,11.6417359 605.323176,10.478301 Z M605.618652,6.56325023 L602.146814,6.56325023 L602.146814,9.44413666 L605.452447,9.44413666 C605.526316,8.72391505 605.581717,7.83748846 605.618652,6.56325023 Z M610.253924,6.56325023 L606.708218,6.56325023 C606.671283,7.81902124 606.634349,8.59464451 606.56048,9.44413666 L610.253924,9.44413666 L610.253924,6.56325023 Z M597.770083,15.1874423 L597.770083,9.14866113 C597.770083,8.20683287 597.770083,8.07756233 597.825485,6.91412742 C597.382271,7.85595568 596.99446,8.46537396 596.163435,9.5734072 C595.923361,9.13019391 595.757156,8.89012004 595.424746,8.55771006 C596.698984,7.11726685 597.751616,5.289012 598.527239,3.16528163 C598.951985,2.03878116 599.099723,1.4478301 599.228994,0.542936288 L600.503232,0.87534626 C600.373961,1.24469067 600.31856,1.41089566 600.170822,1.8910434 C599.727608,3.22068329 599.506002,3.81163435 598.915051,5.12280702 L598.915051,15.242844 C598.915051,16.0923361 598.933518,16.7386888 599.007387,17.4035088 L597.65928,17.4035088 C597.733149,16.7017544 597.770083,16.1292705 597.770083,15.1874423 Z M625.884118,11.2354571 L625.884118,14.7257618 C625.884118,15.7045245 625.902585,16.2954755 625.976454,16.7386888 L624.646814,16.7386888 C624.720683,16.2585411 624.739151,15.7045245 624.739151,14.7257618 L624.739151,11.2354571 L619.679132,11.2354571 C619.402124,14.0240074 618.921976,15.5383195 617.684672,17.2927054 C617.278393,16.9048938 617.093721,16.7756233 616.613573,16.498615 C617.407664,15.4644506 617.813943,14.6334257 618.109418,13.3776547 C618.515697,11.6786704 618.681902,8.98245614 618.681902,4.42105263 C618.681902,2.55586334 618.681902,2.20498615 618.608033,1.41089566 C619.16205,1.46629732 619.716066,1.48476454 620.639428,1.48476454 L630.574792,1.48476454 C631.498153,1.48476454 631.996768,1.46629732 632.532318,1.41089566 C632.476916,1.90951062 632.458449,2.38965836 632.458449,3.22068329 L632.458449,15.6121884 C632.458449,16.7756233 632.033703,17.0526316 630.242382,17.0526316 C629.651431,17.0526316 628.72807,17.0156971 627.952447,16.9602955 C627.915512,16.5355494 627.841644,16.2216066 627.675439,15.7599261 C628.746537,15.8891967 629.651431,15.9630656 630.316251,15.9630656 C631.128809,15.9630656 631.295014,15.8707295 631.295014,15.4090489 L631.295014,11.2354571 L625.884118,11.2354571 Z M625.884118,5.8245614 L631.295014,5.8245614 L631.295014,2.59279778 L625.884118,2.59279778 L625.884118,5.8245614 Z M624.739151,5.8245614 L624.739151,2.59279778 L619.882271,2.59279778 L619.882271,4.79039705 L619.863804,5.8245614 L624.739151,5.8245614 Z M625.884118,6.87719298 L625.884118,10.1643583 L631.295014,10.1643583 L631.295014,6.87719298 L625.884118,6.87719298 Z M624.739151,6.87719298 L619.845337,6.87719298 C619.82687,7.39427516 619.82687,7.83748846 619.82687,8.09602955 C619.808403,9.24099723 619.808403,9.31486611 619.753001,10.1643583 L624.739151,10.1643583 L624.739151,6.87719298 Z M642.031394,1.59556787 L650.304709,1.59556787 C651.172669,1.59556787 651.689751,1.57710065 652.2253,1.50323176 C652.151431,2.03878116 652.132964,2.5189289 652.132964,3.20221607 L652.132964,15.2613112 C652.132964,16.1292705 652.169898,16.6648199 652.243767,17.2188366 L650.89566,17.2188366 L650.89566,16 L641.385042,16 L641.385042,17.2188366 L640.036934,17.2188366 C640.110803,16.6832872 640.147738,16.1477378 640.147738,15.3351801 L640.147738,3.33148661 C640.147738,2.55586334 640.129271,2.05724838 640.055402,1.50323176 C640.646353,1.57710065 641.181902,1.59556787 642.031394,1.59556787 Z M641.385042,5.91689751 L650.89566,5.91689751 L650.89566,2.74053555 L641.385042,2.74053555 L641.385042,5.91689751 Z M641.385042,7.02493075 L641.385042,10.3305633 L650.89566,10.3305633 L650.89566,7.02493075 L641.385042,7.02493075 Z M641.385042,11.4385965 L641.385042,14.8734995 L650.89566,14.8734995 L650.89566,11.4385965 L641.385042,11.4385965 Z M661.50277,3.4976916 C661.909049,2.46352724 662.130656,1.68790397 662.296861,0.709141274 L663.608033,0.949215143 C663.257156,2.00184672 663.017082,2.68513389 662.666205,3.4976916 L663.866574,3.4976916 C664.882271,3.46075716 665.417821,3.44228994 665.49169,3.44228994 C665.454755,3.92243767 665.436288,4.40258541 665.436288,5.06740536 L665.436288,14.4672207 C665.436288,15.2982456 665.473223,15.9261311 665.528624,16.3693444 L664.309788,16.3693444 L664.309788,15.1874423 L660.70868,15.1874423 L660.70868,16.8125577 L659.471376,16.8125577 C659.545245,16.33241 659.563712,15.6491228 659.563712,14.5595568 L659.563712,5.1966759 C659.563712,4.32871653 659.545245,3.90397045 659.489843,3.44228994 C659.748384,3.47922438 660.283934,3.4976916 660.597876,3.4976916 L661.50277,3.4976916 Z M660.70868,4.51338873 L660.70868,8.63157895 L664.309788,8.63157895 L664.309788,4.51338873 L660.70868,4.51338873 Z M660.70868,9.64727608 L660.70868,14.1532779 L664.309788,14.1532779 L664.309788,9.64727608 L660.70868,9.64727608 Z M673.820406,4.5687904 L668.501847,4.5687904 C667.873961,5.84302862 667.338412,6.69252078 666.378116,7.92982456 C666.138042,7.61588181 665.805633,7.30193906 665.49169,7.09879963 C666.61819,5.89843029 667.523084,4.32871653 668.206371,2.44506002 C668.464912,1.74330563 668.649584,1.06001847 668.686519,0.653739612 L669.960757,0.893813481 C669.905355,1.00461681 669.831487,1.20775623 669.702216,1.59556787 C669.443675,2.33425669 669.27747,2.75900277 669.000462,3.47922438 L673.469529,3.47922438 C674.208218,3.47922438 674.7253,3.46075716 675.094645,3.40535549 C675.039243,3.73776547 675.039243,3.88550323 675.020776,4.5687904 C674.854571,11.8818098 674.614497,14.3564174 673.949677,15.833795 C673.580332,16.6832872 672.989381,17.0156971 671.899815,17.0156971 C671.216528,17.0156971 670.717913,16.9787627 669.536011,16.8864266 C669.499077,16.3508772 669.425208,16.0369344 669.222068,15.5752539 C670.348569,15.7968606 671.179594,15.8891967 671.844414,15.8891967 C672.527701,15.8891967 672.786242,15.7229917 673.007849,15.1320406 C673.321791,14.2825485 673.561865,12.5096953 673.691136,10.0350877 C673.783472,8.55771006 673.801939,7.28347184 673.820406,4.5687904 Z M671.585873,11.5309326 L670.533241,12.1772853 C669.499077,9.96121884 668.797322,8.79778393 667.726223,7.50507849 L668.668052,6.93259464 C669.831487,8.33610342 670.60711,9.55493998 671.585873,11.5309326 Z"></path>
        </g>
    </g>
</svg>