<?xml version="1.0" encoding="UTF-8"?>
<svg width="59px" height="18px" viewBox="0 0 59 18" version="1.1" xmlns="http://www.w3.org/2000/svg" xmlns:xlink="http://www.w3.org/1999/xlink">
    <!-- Generator: Sketch 48.2 (47327) - http://www.bohemiancoding.com/sketch -->
    <title>表示色</title>
    <desc>Created with Sketch.</desc>
    <defs></defs>
    <g id="Artboard" stroke="none" stroke-width="1" fill="none" fill-rule="evenodd" transform="translate(-606.000000, -2326.000000)">
        <g id="表示色" transform="translate(0.000000, 2326.000000)" fill="#000000">
            <path d="M611.98338,15.5567867 L611.98338,11.8818098 C610.524469,12.9159741 609.564174,13.4515235 607.588181,14.3379501 C607.421976,13.9870729 607.237304,13.7285319 606.849492,13.2853186 C609.638042,12.3250231 611.854109,10.9953832 613.516159,9.27793167 L609.065559,9.27793167 C608.234534,9.27793167 607.569714,9.31486611 607.015697,9.388735 L607.015697,8.13296399 C607.495845,8.22530009 608.012927,8.24376731 609.065559,8.24376731 L614.513389,8.24376731 L614.513389,6.45244691 L610.690674,6.45244691 C609.638042,6.45244691 609.213296,6.47091413 608.807018,6.52631579 L608.807018,5.34441367 C609.231764,5.39981533 609.65651,5.41828255 610.690674,5.41828255 L614.513389,5.41828255 L614.513389,3.6823638 L609.730379,3.6823638 C608.825485,3.6823638 608.253001,3.70083102 607.772853,3.77469991 L607.772853,2.55586334 C608.253001,2.62973223 608.843952,2.66666667 609.767313,2.66666667 L614.513389,2.66666667 L614.513389,2.24192059 C614.513389,1.4478301 614.476454,1.07848569 614.402585,0.635272392 L615.750693,0.635272392 C615.658356,1.13388735 615.639889,1.48476454 615.639889,2.24192059 L615.639889,2.66666667 L620.718375,2.66666667 C621.660203,2.66666667 622.251154,2.62973223 622.749769,2.55586334 L622.749769,3.77469991 C622.232687,3.70083102 621.67867,3.6823638 620.755309,3.6823638 L615.639889,3.6823638 L615.639889,5.41828255 L619.739612,5.41828255 C620.829178,5.41828255 621.253924,5.39981533 621.697138,5.34441367 L621.697138,6.52631579 C621.253924,6.47091413 620.847645,6.45244691 619.739612,6.45244691 L615.639889,6.45244691 L615.639889,8.24376731 L621.420129,8.24376731 C622.398892,8.24376731 622.971376,8.20683287 623.433056,8.13296399 L623.433056,9.388735 C622.860572,9.31486611 622.21422,9.27793167 621.420129,9.27793167 L616.267775,9.27793167 C616.877193,10.5891043 617.283472,11.2169898 618.188366,12.2696214 C619.407202,11.3277932 620.312096,10.4598338 620.903047,9.68421053 L621.974146,10.4044321 C621.844875,10.5152355 621.844875,10.5152355 621.604801,10.7553093 C620.829178,11.5124654 619.961219,12.2696214 618.927054,13.0452447 C620.238227,14.2640813 621.715605,15.1135734 623.820868,15.9076639 C623.469991,16.2770083 623.248384,16.6094183 623.026777,17.0156971 C618.945522,15.1689751 616.729455,13.0083102 615.10434,9.27793167 L614.9012,9.27793167 C614.162512,10.0720222 613.996307,10.2382271 613.10988,10.9953832 L613.10988,15.3167128 C614.605725,14.9843029 615.399815,14.7626962 617.283472,14.2086796 L617.283472,15.3351801 C614.882733,16.0184672 613.165282,16.4432133 610.432133,16.9787627 C610.136657,17.0526316 609.804247,17.1265005 609.564174,17.2003693 L609.250231,15.9076639 C610.062789,15.8707295 610.838412,15.7783934 611.98338,15.5567867 Z M635.757618,7.19113573 L630.254386,7.19113573 C629.460295,7.19113573 628.906279,7.22807018 628.333795,7.30193906 L628.333795,5.93536473 C628.869344,6.00923361 629.404894,6.04616805 630.272853,6.04616805 L642.221145,6.04616805 C643.05217,6.04616805 643.624654,6.00923361 644.160203,5.93536473 L644.160203,7.30193906 C643.606187,7.22807018 643.015235,7.19113573 642.239612,7.19113573 L636.994922,7.19113573 L636.994922,15.4644506 C636.994922,16.6648199 636.625577,16.9418283 634.981994,16.9418283 C634.261773,16.9418283 633.301477,16.9048938 632.544321,16.8310249 C632.48892,16.2954755 632.415051,16.0554017 632.230379,15.5567867 C633.246076,15.7229917 634.058633,15.7968606 634.871191,15.7968606 C635.628347,15.7968606 635.757618,15.7229917 635.757618,15.3351801 L635.757618,7.19113573 Z M642.313481,1.74330563 L642.313481,3.09141274 C641.740997,3.01754386 641.131579,2.98060942 640.374423,2.98060942 L631.95337,2.98060942 C631.251616,2.98060942 630.62373,3.01754386 630.032779,3.09141274 L630.032779,1.74330563 C630.568329,1.81717452 631.122345,1.85410896 631.971837,1.85410896 L640.39289,1.85410896 C641.186981,1.85410896 641.777932,1.81717452 642.313481,1.74330563 Z M631.861034,8.79778393 L633.042936,9.25946445 C632.064174,11.9741459 630.789935,14.0240074 629.072484,15.6491228 C628.684672,15.2613112 628.5,15.0951062 628.019852,14.7996307 C629.718837,13.3961219 631.196214,11.1061865 631.861034,8.79778393 Z M639.5988,9.25946445 L640.688366,8.77931671 C641.556325,10.7183749 642.184211,11.7710065 643.218375,13.0637119 C643.680055,13.6361958 644.030933,14.0055402 644.677285,14.5964912 C644.289474,14.8734995 644.030933,15.1135734 643.643121,15.5567867 C641.814866,13.5807941 640.891505,12.1403509 639.5988,9.25946445 Z M658.349954,5.58448753 L662.375808,5.58448753 C662.89289,5.58448753 663.299169,5.56602031 663.871653,5.49215143 C663.816251,5.91689751 663.797784,6.24930748 663.797784,6.78485688 L663.797784,9.72114497 C663.797784,10.2382271 663.816251,10.5521699 663.871653,11.0138504 C663.336103,10.9399815 662.874423,10.9215143 662.375808,10.9215143 L652.385042,10.9215143 L652.385042,14.6703601 C652.385042,15.2613112 652.588181,15.4459834 653.308403,15.5198523 C654.047091,15.6121884 655.616805,15.6491228 657.869806,15.6491228 C659.513389,15.6491228 661.526316,15.5937211 662.154201,15.5198523 C663.114497,15.4090489 663.336103,15.2613112 663.502308,14.5964912 C663.613112,14.1532779 663.668513,13.488458 663.705448,12.565097 C664.130194,12.8051708 664.333333,12.8790397 664.942752,13.0452447 C664.739612,15.4829178 664.462604,16.1292705 663.520776,16.4062789 C662.708218,16.6648199 661.156971,16.757156 658.10988,16.757156 C655.284395,16.757156 653.493075,16.6832872 652.643583,16.5540166 C651.517082,16.3693444 651.203139,16.0184672 651.203139,15.0027701 L651.203139,6.3601108 C650.704524,6.78485688 650.372114,7.02493075 649.504155,7.63434903 C649.301016,7.28347184 649.079409,7.02493075 648.728532,6.74792244 C650.778393,5.47368421 652.32964,4.033241 653.622345,2.14958449 C654.12096,1.39242844 654.305633,1.06001847 654.490305,0.487534626 L655.801477,0.85687904 C655.690674,1.00461681 655.65374,1.04155125 655.524469,1.26315789 C655.358264,1.52169898 655.339797,1.55863343 654.970452,2.09418283 L658.349954,2.09418283 C659.291782,2.09418283 659.698061,2.0757156 659.975069,2.00184672 L660.750693,2.66666667 C660.639889,2.79593721 660.510619,2.94367498 659.975069,3.64542936 C659.310249,4.51338873 658.940905,4.95660203 658.349954,5.58448753 Z M652.052632,5.58448753 L656.964912,5.58448753 C657.77747,4.79039705 658.44229,3.99630656 659.051708,3.09141274 L654.287165,3.09141274 C653.566944,4.05170822 653.086796,4.60572484 652.052632,5.58448753 Z M657.869806,6.61865189 L657.869806,9.86888273 L662.634349,9.86888273 L662.634349,6.61865189 L657.869806,6.61865189 Z M656.724838,9.86888273 L656.724838,6.61865189 L652.385042,6.61865189 L652.385042,9.86888273 L656.724838,9.86888273 Z"></path>
        </g>
    </g>
</svg>