<?xml version="1.0" encoding="UTF-8"?>
<svg width="81px" height="18px" viewBox="0 0 81 18" version="1.1" xmlns="http://www.w3.org/2000/svg" xmlns:xlink="http://www.w3.org/1999/xlink">
    <!-- Generator: Sketch 48.2 (47327) - http://www.bohemiancoding.com/sketch -->
    <title>禁止事項</title>
    <desc>Created with Sketch.</desc>
    <defs></defs>
    <g id="Artboard" stroke="none" stroke-width="1" fill="none" fill-rule="evenodd" transform="translate(-595.000000, -830.000000)">
        <g id="禁止事項" transform="translate(0.000000, 830.000000)" fill="#000000">
            <path d="M602.017544,3.53462604 L601.260388,3.53462604 C602.036011,4.58725762 602.719298,5.1966759 603.808864,5.84302862 C603.531856,6.08310249 603.273315,6.37857802 603.10711,6.65558633 C602.017544,5.84302862 601.518929,5.27054478 600.891043,4.19944598 C600.946445,4.7534626 600.964912,5.23361034 600.964912,5.52908587 L600.964912,6.61865189 C600.964912,7.17266851 600.98338,7.52354571 601.038781,7.89289012 L599.856879,7.89289012 C599.912281,7.54201293 599.930748,7.09879963 599.930748,6.60018467 L599.930748,5.56602031 C599.930748,5.23361034 599.949215,4.7534626 600.004617,4.2179132 C599.265928,5.51061865 598.102493,6.710988 596.643583,7.68975069 C596.440443,7.3388735 596.237304,7.08033241 595.923361,6.8033241 C597.493075,5.87996307 598.767313,4.71652816 599.506002,3.53462604 L597.880886,3.53462604 C597.12373,3.53462604 596.754386,3.55309326 596.274238,3.62696214 L596.274238,2.46352724 C596.680517,2.53739612 597.12373,2.55586334 597.899354,2.55586334 L599.930748,2.55586334 L599.930748,2.03878116 C599.930748,1.5401662 599.893813,1.20775623 599.819945,0.727608495 L601.075716,0.727608495 C600.98338,1.15235457 600.964912,1.48476454 600.964912,2.03878116 L600.964912,2.55586334 L601.999077,2.55586334 C602.7747,2.55586334 603.125577,2.53739612 603.587258,2.48199446 L603.587258,3.60849492 C603.144044,3.55309326 602.682364,3.53462604 602.017544,3.53462604 Z M607.022161,3.53462604 L605.951062,3.53462604 C605.286242,3.53462604 604.861496,3.55309326 604.381348,3.60849492 L604.381348,2.48199446 C604.879963,2.53739612 605.249307,2.55586334 605.987996,2.55586334 L607.391505,2.55586334 L607.391505,2.03878116 C607.391505,1.5401662 607.354571,1.18928901 607.280702,0.727608495 L608.536473,0.727608495 C608.444137,1.13388735 608.425669,1.48476454 608.425669,2.03878116 L608.425669,2.55586334 L610.752539,2.55586334 C611.509695,2.55586334 611.934441,2.53739612 612.377655,2.46352724 L612.377655,3.62696214 C611.897507,3.55309326 611.509695,3.53462604 610.752539,3.53462604 L608.813481,3.53462604 C609.773777,4.82733149 610.992613,5.78762696 612.728532,6.67405355 C612.433056,6.98799631 612.248384,7.22807018 612.00831,7.67128347 C610.272392,6.56325023 609.238227,5.56602031 608.351801,4.16251154 C608.388735,4.49492151 608.425669,5.14127424 608.425669,5.62142198 L608.425669,6.61865189 C608.425669,7.20960295 608.444137,7.65281625 608.499538,7.89289012 L607.317636,7.89289012 C607.373038,7.57894737 607.391505,7.13573407 607.391505,6.61865189 L607.391505,5.60295476 C607.391505,5.08587258 607.409972,4.58725762 607.465374,4.2179132 C606.800554,5.38134811 605.821791,6.41551247 604.344414,7.46814404 C604.10434,7.11726685 603.975069,6.95106187 603.587258,6.65558633 C605.083102,5.80609418 606.246537,4.73499538 607.022161,3.53462604 Z M603.734995,12.232687 L598.231764,12.232687 C597.474608,12.232687 596.883657,12.2696214 596.32964,12.3434903 L596.32964,11.1061865 C596.809788,11.1800554 597.437673,11.2169898 598.231764,11.2169898 L610.21699,11.2169898 C610.992613,11.2169898 611.583564,11.1800554 612.082179,11.1061865 L612.082179,12.3434903 C611.583564,12.2696214 610.974146,12.232687 610.235457,12.232687 L604.935365,12.232687 L604.935365,15.8153278 C604.935365,16.8125577 604.547553,17.0710988 603.033241,17.0710988 C602.294552,17.0710988 601.869806,17.0526316 601.149584,17.0341644 C601.094183,16.6094183 600.98338,16.2400739 600.817175,15.8707295 C601.592798,15.9815328 602.146814,16.0184672 603.033241,16.0184672 C603.624192,16.0184672 603.734995,15.9445983 603.734995,15.5567867 L603.734995,12.232687 Z M610.180055,8.52077562 L610.180055,9.75807941 C609.699908,9.68421053 609.145891,9.64727608 608.499538,9.64727608 L600.078486,9.64727608 C599.432133,9.64727608 598.841182,9.68421053 598.379501,9.75807941 L598.379501,8.52077562 C598.841182,8.59464451 599.395199,8.63157895 600.096953,8.63157895 L608.481071,8.63157895 C609.201293,8.63157895 609.68144,8.59464451 610.180055,8.52077562 Z M600.244691,12.6759003 L601.260388,13.2299169 C600.041551,14.8919668 599.173592,15.7045245 597.45614,16.8679594 C597.12373,16.4062789 597.012927,16.3139428 596.551247,15.9630656 C598.3241,15.0027701 599.192059,14.2271468 600.244691,12.6759003 Z M607.409972,13.322253 L608.351801,12.7128347 C609.589104,14.1717452 610.5494,14.9843029 612.174515,15.9076639 C611.805171,16.2031394 611.54663,16.498615 611.251154,16.8864266 C609.662973,15.7229917 608.684211,14.8180979 607.409972,13.322253 Z M626.60434,15.3536473 L631.368883,15.3536473 C632.199908,15.3536473 632.790859,15.3167128 633.38181,15.242844 L633.38181,16.6278855 C632.643121,16.5355494 632.107572,16.498615 631.368883,16.498615 L619.16205,16.498615 C618.441828,16.498615 617.740074,16.5355494 617.056787,16.6278855 L617.056787,15.242844 C617.629271,15.3167128 618.275623,15.3536473 619.16205,15.3536473 L620.28855,15.3536473 L620.28855,6.24930748 C620.28855,5.49215143 620.251616,4.88273315 620.177747,4.31024931 L621.655125,4.31024931 C621.581256,4.88273315 621.544321,5.45521699 621.544321,6.24930748 L621.544321,15.3536473 L625.367036,15.3536473 L625.367036,2.86980609 C625.367036,2.02031394 625.330102,1.48476454 625.256233,0.930747922 L626.715143,0.930747922 C626.641274,1.50323176 626.60434,2.05724838 626.60434,2.86980609 L626.60434,7.11726685 L630.279317,7.11726685 C631.036473,7.11726685 631.645891,7.08033241 632.199908,7.00646353 L632.199908,8.37303786 C631.608957,8.29916898 631.018006,8.26223453 630.279317,8.26223453 L626.60434,8.26223453 L626.60434,15.3536473 Z M645.44783,10.9215143 L645.44783,9.64727608 L641.108033,9.64727608 C640.350877,9.64727608 639.907664,9.66574331 639.372114,9.73961219 L639.372114,8.59464451 C639.833795,8.66851339 640.277008,8.68698061 641.144968,8.68698061 L645.44783,8.68698061 L645.44783,7.48661127 L641.588181,7.48661127 C640.978763,7.48661127 640.480148,7.50507849 640.073869,7.56048015 C640.129271,7.13573407 640.147738,6.8033241 640.147738,6.32317636 L640.147738,5.51061865 C640.147738,5.01200369 640.129271,4.71652816 640.073869,4.25484765 C640.554017,4.31024931 640.960295,4.32871653 641.606648,4.32871653 L645.44783,4.32871653 L645.44783,3.10987996 L640.092336,3.10987996 C639.242844,3.10987996 638.578024,3.1468144 638.024007,3.22068329 L638.024007,2.00184672 C638.522622,2.0757156 639.058172,2.11265005 640.129271,2.11265005 L645.44783,2.11265005 C645.44783,1.20775623 645.429363,0.930747922 645.337027,0.450600185 L646.685134,0.450600185 C646.574331,0.912280702 646.555863,1.17082179 646.555863,2.11265005 L652.206833,2.11265005 C653.277932,2.11265005 653.831948,2.0757156 654.330563,2.00184672 L654.330563,3.22068329 C653.721145,3.1468144 653.111727,3.10987996 652.243767,3.10987996 L646.555863,3.10987996 L646.555863,4.32871653 L650.803324,4.32871653 C651.449677,4.32871653 651.855956,4.31024931 652.317636,4.25484765 C652.262235,4.71652816 652.243767,4.99353647 652.243767,5.51061865 L652.243767,6.32317636 C652.243767,6.84025854 652.262235,7.09879963 652.317636,7.56048015 C651.911357,7.50507849 651.412742,7.48661127 650.821791,7.48661127 L646.555863,7.48661127 L646.555863,8.68698061 L650.581717,8.68698061 C651.652816,8.68698061 652.151431,8.66851339 652.650046,8.61311173 C652.613112,9.00092336 652.594645,9.35180055 652.594645,10.145891 L652.594645,10.9215143 C653.647276,10.9215143 654.145891,10.9030471 654.55217,10.810711 L654.55217,11.9741459 C654.090489,11.900277 653.573407,11.8818098 652.594645,11.8818098 L652.594645,13.0821791 C652.594645,13.9870729 652.631579,14.4856879 652.705448,14.9289012 L651.505078,14.9289012 L651.505078,14.1717452 L646.555863,14.1717452 L646.555863,15.7045245 C646.555863,16.9787627 646.186519,17.2373038 644.395199,17.2373038 C644.007387,17.2373038 643.674977,17.2188366 642.640813,17.1634349 C642.603878,16.7017544 642.530009,16.4616805 642.32687,16 C643.268698,16.1292705 643.915051,16.1846722 644.616805,16.1846722 C645.281625,16.1846722 645.44783,16.0923361 645.44783,15.6860572 L645.44783,14.1717452 L640.99723,14.1717452 C640.147738,14.1717452 639.759926,14.1902124 639.187442,14.2640813 L639.187442,13.1191136 C639.704524,13.1929825 640.073869,13.2114497 640.960295,13.2114497 L645.44783,13.2114497 L645.44783,11.8818098 L639.907664,11.8818098 C638.891967,11.8818098 638.393352,11.900277 637.894737,11.9741459 L637.894737,10.810711 C638.33795,10.8845799 638.855032,10.9215143 639.907664,10.9215143 L645.44783,10.9215143 Z M646.555863,10.9215143 L651.505078,10.9215143 L651.505078,9.64727608 L646.555863,9.64727608 L646.555863,10.9215143 Z M646.555863,11.8818098 L646.555863,13.2114497 L651.505078,13.2114497 L651.505078,11.8818098 L646.555863,11.8818098 Z M645.44783,5.23361034 L641.255771,5.23361034 L641.255771,6.60018467 L645.44783,6.60018467 L645.44783,5.23361034 Z M646.555863,5.23361034 L646.555863,6.60018467 L651.135734,6.60018467 L651.135734,5.23361034 L646.555863,5.23361034 Z M661.078024,3.46075716 L660.246999,3.46075716 C659.748384,3.46075716 659.415974,3.47922438 658.991228,3.53462604 L658.991228,2.33425669 C659.342105,2.38965836 659.729917,2.40812558 660.339335,2.40812558 L662.795476,2.40812558 C663.386427,2.40812558 663.811173,2.38965836 664.125115,2.33425669 L664.125115,3.53462604 C663.718837,3.47922438 663.386427,3.46075716 662.850877,3.46075716 L662.241459,3.46075716 L662.241459,11.8448753 C663.017082,11.5309326 663.423361,11.3462604 664.328255,10.8845799 L664.328255,12.066482 C663.109418,12.7128347 662.204524,13.0821791 659.415974,14.0978763 C659.342105,14.1348107 659.249769,14.1717452 659.04663,14.2640813 L658.677285,12.989843 C659.249769,12.9159741 659.877655,12.7313019 661.078024,12.2880886 L661.078024,3.46075716 Z M669.074331,2.611265 L666.378116,2.611265 C665.676362,2.611265 665.15928,2.62973223 664.605263,2.68513389 L664.605263,1.4478301 C665.140813,1.52169898 665.676362,1.55863343 666.415051,1.55863343 L673.39566,1.55863343 C674.245152,1.55863343 674.632964,1.5401662 675.131579,1.4478301 L675.131579,2.70360111 C674.688366,2.64819945 674.171283,2.611265 673.414127,2.611265 L670.311634,2.611265 C670.053093,3.31301939 669.776085,3.92243767 669.554478,4.38411819 L672.952447,4.38411819 C673.247922,4.38411819 673.857341,4.36565097 674.097415,4.32871653 C674.06048,4.64265928 674.042013,5.34441367 674.042013,6.02770083 L674.042013,11.9926131 C674.042013,12.7682364 674.06048,13.4145891 674.097415,13.7839335 C674.023546,13.7839335 673.949677,13.7654663 673.912742,13.7654663 C673.765005,13.7469991 673.672669,13.7469991 673.672669,13.7469991 L673.39566,13.7469991 L672.453832,13.7285319 L666.969067,13.7285319 C666.28578,13.7285319 665.713296,13.7469991 665.380886,13.7839335 C665.417821,13.3776547 665.436288,12.6943675 665.436288,12.0110803 L665.436288,5.97229917 C665.436288,5.23361034 665.417821,4.7534626 665.362419,4.32871653 C665.713296,4.36565097 665.713296,4.36565097 666.932133,4.38411819 L668.335642,4.38411819 C668.649584,3.79316713 668.871191,3.25761773 669.074331,2.611265 Z M666.562789,5.36288089 L666.562789,7.17266851 L672.915512,7.17266851 L672.915512,5.36288089 L666.562789,5.36288089 Z M666.562789,8.13296399 L666.562789,9.9242844 L672.915512,9.9242844 L672.915512,8.13296399 L666.562789,8.13296399 Z M666.562789,10.8845799 L666.562789,12.7497692 L672.915512,12.7497692 L672.915512,10.8845799 L666.562789,10.8845799 Z M670.588643,14.8365651 L671.512004,14.0978763 C672.915512,15.1505078 673.93121,15.66759 675.833333,16.2770083 C675.519391,16.5909511 675.371653,16.7940905 675.05771,17.3111727 C673.229455,16.5909511 672.139889,16 670.588643,14.8365651 Z M667.190674,14.1532779 L668.169437,14.8550323 C666.61819,16.0369344 665.676362,16.5355494 663.644968,17.3111727 C663.367959,16.8494922 663.220222,16.6832872 662.869344,16.3139428 C664.937673,15.66759 665.990305,15.1505078 667.190674,14.1532779 Z"></path>
        </g>
    </g>
</svg>