<?xml version="1.0" encoding="UTF-8"?>
<svg width="60px" height="18px" viewBox="0 0 60 18" version="1.1" xmlns="http://www.w3.org/2000/svg" xmlns:xlink="http://www.w3.org/1999/xlink">
    <!-- Generator: Sketch 48.2 (47327) - http://www.bohemiancoding.com/sketch -->
    <title>サイズ</title>
    <desc>Created with Sketch.</desc>
    <defs></defs>
    <g id="Artboard" stroke="none" stroke-width="1" fill="none" fill-rule="evenodd" transform="translate(-607.000000, -1545.000000)">
        <g id="サイズ" transform="translate(0.000000, 1546.000000)" fill="#000000">
            <path d="M612.408126,5.14127424 L618.040628,5.14127424 L618.040628,3.34995383 C618.040628,2.03878116 618.040628,1.8910434 617.985226,1.48476454 L619.425669,1.48476454 C619.370268,1.96491228 619.370268,1.96491228 619.351801,3.20221607 L619.351801,5.14127424 L620.939982,5.14127424 C622.029548,5.14127424 622.435826,5.12280702 623.100646,5.03047091 L623.100646,6.43397969 C622.472761,6.3601108 621.937211,6.34164358 620.958449,6.34164358 L619.333333,6.34164358 C619.296399,10.0904894 619.111727,11.2723915 618.42844,12.6020314 C617.782087,13.820868 616.747922,14.8734995 615.418283,15.6491228 C614.77193,16 614.291782,16.2216066 613.276085,16.5909511 C613.036011,16.0738689 612.888273,15.8707295 612.44506,15.4275162 C614.051708,14.9658356 614.993536,14.4856879 615.972299,13.6177285 C617.265005,12.4542936 617.782087,11.2354571 617.948292,9.00092336 C617.985226,8.4099723 618.003693,7.83748846 618.022161,6.34164358 L612.408126,6.34164358 L612.408126,9.42566944 C612.408126,10.2197599 612.426593,10.4598338 612.481994,10.9215143 L610.98615,10.9215143 C611.041551,10.5152355 611.060018,10.1643583 611.060018,9.37026777 L611.060018,6.34164358 L609.508772,6.34164358 C608.530009,6.34164358 607.99446,6.3601108 607.366574,6.43397969 L607.366574,5.03047091 C608.031394,5.12280702 608.437673,5.14127424 609.527239,5.14127424 L611.060018,5.14127424 L611.060018,3.01754386 C611.060018,2.22345337 611.041551,1.8910434 610.98615,1.46629732 L612.481994,1.46629732 C612.408126,1.96491228 612.408126,2.11265005 612.408126,2.9621422 L612.408126,5.14127424 Z M641.427054,1.33702678 L642.701293,2.24192059 C642.368883,2.48199446 642.350416,2.5189289 641.888735,3.01754386 C640.7253,4.23638042 639.155586,5.58448753 637.567405,6.72945522 L637.567405,14.5964912 C637.567405,15.6491228 637.585873,16.0554017 637.659741,16.5540166 L636.053093,16.5540166 C636.145429,16.0738689 636.163897,15.6491228 636.163897,14.6334257 L636.163897,7.61588181 C633.763158,9.09325946 632.415051,9.70267775 629.035549,10.8476454 C628.777008,10.2566944 628.684672,10.0720222 628.315328,9.61034164 C631.787165,8.70544783 634.981994,7.11726685 637.899815,4.82733149 C639.617267,3.4976916 640.909972,2.20498615 641.427054,1.33702678 Z M664.425669,15.1320406 L663.373038,16.2954755 C662.154201,14.7072946 659.587258,12.2142198 657.463527,10.5891043 C655.561404,12.8421053 653.197599,14.6888273 650.316713,16.1292705 C650.039705,15.5937211 649.855032,15.3167128 649.411819,14.910434 C651.295476,14.2271468 653.677747,12.6020314 655.542936,10.7183749 C657.315789,8.92705448 658.848569,6.67405355 659.753463,4.45798707 C659.808864,4.32871653 659.808864,4.29178209 659.9012,4.08864266 C659.734995,4.10710988 659.679594,4.10710988 659.457987,4.1255771 L653.289935,4.2179132 C652.237304,4.23638042 651.867959,4.27331487 651.387812,4.34718375 L651.350877,2.86980609 C651.849492,2.94367498 652.181902,2.9621422 652.809788,2.9621422 L653.289935,2.9621422 L659.845799,2.88827331 C660.381348,2.86980609 660.695291,2.85133887 660.843029,2.79593721 L661.655586,3.75623269 C661.489381,4.05170822 661.43398,4.16251154 661.304709,4.45798707 C660.085873,7.04339797 659.365651,8.28070175 658.276085,9.61034164 C660.455217,11.2354571 662.301939,12.8790397 664.425669,15.1320406 Z M661.378578,1.355494 L662.301939,0.87534626 C663.132964,1.87257618 663.650046,2.64819945 664.204063,3.73776547 L663.262235,4.29178209 C662.819021,3.31301939 661.932595,1.92797784 661.378578,1.355494 Z M663.483841,0.358264081 L664.388735,-0.140350877 C665.21976,0.87534626 665.68144,1.57710065 666.290859,2.74053555 L665.367498,3.25761773 C664.961219,2.38965836 664.204063,1.20775623 663.483841,0.358264081 Z"></path>
        </g>
    </g>
</svg>