<?xml version="1.0" encoding="UTF-8"?>
<svg width="162px" height="16px" viewBox="0 0 162 16" version="1.1" xmlns="http://www.w3.org/2000/svg" xmlns:xlink="http://www.w3.org/1999/xlink">
    <!-- Generator: Sketch 48.2 (47327) - http://www.bohemiancoding.com/sketch -->
    <title>アイソレーション</title>
    <desc>Created with Sketch.</desc>
    <defs></defs>
    <g id="Artboard" stroke="none" stroke-width="1" fill="none" fill-rule="evenodd" transform="translate(-552.000000, -3232.000000)">
        <g id="アイソレーション" transform="translate(160.000000, 3231.000000)" fill="#000000">
            <path d="M406.103416,2.37119114 L406.842105,3.25761773 C406.657433,3.4976916 406.620499,3.55309326 406.398892,3.99630656 C405.124654,6.47091413 403.407202,8.15143121 401.006464,9.25946445 C400.729455,8.79778393 400.581717,8.63157895 400.10157,8.20683287 C401.394275,7.70821791 402.151431,7.26500462 403.019391,6.45244691 C403.868883,5.65835642 404.55217,4.7534626 405.087719,3.70083102 L394.598338,3.70083102 C393.582641,3.70083102 393.102493,3.71929825 392.419206,3.79316713 L392.419206,2.37119114 C393.047091,2.46352724 393.564174,2.50046168 394.616805,2.50046168 L404.533703,2.50046168 C405.771006,2.50046168 405.771006,2.50046168 406.103416,2.37119114 Z M398.051708,5.58448753 L399.547553,5.58448753 C399.492151,5.91689751 399.492151,5.91689751 399.473684,6.87719298 C399.418283,9.96121884 398.9012,11.7894737 397.645429,13.3776547 C396.518929,14.7996307 395.152355,15.7229917 392.917821,16.5724838 C392.640813,15.9815328 392.511542,15.7968606 392.068329,15.3351801 C393.564174,14.8919668 394.487535,14.4302862 395.44783,13.6361958 C397.405355,12.066482 398.125577,10.1828255 398.125577,6.58171745 C398.125577,6.06463527 398.10711,5.93536473 398.051708,5.58448753 Z M425.427054,1.33702678 L426.701293,2.24192059 C426.368883,2.48199446 426.350416,2.5189289 425.888735,3.01754386 C424.7253,4.23638042 423.155586,5.58448753 421.567405,6.72945522 L421.567405,14.5964912 C421.567405,15.6491228 421.585873,16.0554017 421.659741,16.5540166 L420.053093,16.5540166 C420.145429,16.0738689 420.163897,15.6491228 420.163897,14.6334257 L420.163897,7.61588181 C417.763158,9.09325946 416.415051,9.70267775 413.035549,10.8476454 C412.777008,10.2566944 412.684672,10.0720222 412.315328,9.61034164 C415.787165,8.70544783 418.981994,7.11726685 421.899815,4.82733149 C423.617267,3.4976916 424.909972,2.20498615 425.427054,1.33702678 Z M434.66759,3.16528163 L435.978763,2.64819945 C437.179132,4.69806094 437.677747,5.80609418 438.45337,8.3176362 L437.086796,8.89012004 C436.514312,6.72945522 435.701754,4.80886427 434.66759,3.16528163 Z M445.932595,2.55586334 L447.483841,2.9621422 C447.299169,3.44228994 447.299169,3.44228994 447.003693,4.71652816 C446.22807,8.11449677 444.76916,11.0323176 442.793167,13.156048 C441.389658,14.6518929 439.893813,15.7414589 437.862419,16.7386888 C437.493075,16.1292705 437.345337,15.9630656 436.883657,15.6121884 C438.951985,14.7072946 440.355494,13.7469991 441.740536,12.2696214 C443.661127,10.2382271 444.916898,7.61588181 445.710988,4.08864266 C445.858726,3.40535549 445.89566,3.10987996 445.932595,2.55586334 Z M457.112188,1.81717452 L458.681902,1.81717452 C458.6265,2.20498615 458.589566,2.68513389 458.589566,3.46075716 L458.534164,14.5964912 C460.657895,14.245614 462.338412,13.6731302 463.815789,12.7497692 C465.662512,11.6048015 466.899815,10.2751616 467.970914,8.3176362 C468.432595,8.96398892 468.543398,9.11172669 468.986611,9.4810711 C466.456602,13.2483841 463.741921,14.9658356 458.811173,15.9261311 C458.090951,16.0738689 457.998615,16.0923361 457.740074,16.2031394 L457.001385,15.2797784 C457.093721,14.9658356 457.130656,14.7626962 457.130656,14.079409 L457.16759,3.4976916 L457.16759,2.81440443 C457.16759,2.44506002 457.149123,2.22345337 457.112188,1.81717452 Z M475.475531,9.66574331 L475.475531,8.15143121 C476.01108,8.24376731 476.509695,8.26223453 477.765466,8.26223453 L488.494922,8.26223453 C489.861496,8.26223453 490.156971,8.24376731 490.729455,8.16989843 L490.729455,9.66574331 C490.138504,9.61034164 489.713758,9.59187442 488.476454,9.59187442 L477.765466,9.59187442 C476.417359,9.59187442 476.029548,9.61034164 475.475531,9.66574331 Z M498.954294,2.92520776 L499.674515,1.79870729 C501.484303,2.53739612 502.684672,3.1468144 504.254386,4.1255771 L503.49723,5.36288089 C502.222992,4.42105263 500.302401,3.38688827 498.954294,2.92520776 Z M497.495383,7.3388735 L498.234072,6.21237304 C499.988458,6.93259464 501.318098,7.61588181 502.924746,8.63157895 L502.204524,9.86888273 C500.856417,8.89012004 499.1759,7.966759 497.495383,7.3388735 Z M498.123269,16.1846722 L497.753924,14.6518929 C498.954294,14.6518929 500.874885,14.2086796 502.721607,13.5069252 C505.011542,12.6389658 506.765928,11.3277932 508.261773,9.388735 C509.295937,8.04062789 509.905355,6.87719298 510.477839,5.25207756 C510.93952,5.7322253 511.124192,5.89843029 511.622807,6.23084026 C510.016159,10.0720222 507.763158,12.5835642 504.512927,14.1902124 C503.220222,14.8365651 501.355032,15.4644506 499.84072,15.7783934 C499.545245,15.833795 499.212835,15.9076639 498.84349,15.9815328 C498.474146,16.0554017 498.400277,16.0923361 498.123269,16.1846722 Z M528.471837,16.0738689 L521.380425,16.0738689 C520.383195,16.0738689 520.235457,16.0738689 519.773777,16.1477378 L519.773777,14.8550323 C520.21699,14.9289012 520.697138,14.9658356 521.380425,14.9658356 L528.471837,14.9658356 L528.471837,11.4939982 L521.971376,11.4939982 C520.992613,11.4939982 520.844875,11.4939982 520.383195,11.567867 L520.383195,10.312096 C520.826408,10.3859649 521.269621,10.4228994 521.989843,10.4228994 L528.471837,10.4228994 L528.471837,7.20960295 L521.565097,7.20960295 C520.586334,7.20960295 520.420129,7.20960295 519.958449,7.28347184 L519.958449,6.00923361 C520.401662,6.08310249 520.844875,6.12003693 521.565097,6.12003693 L528.434903,6.12003693 C529.025854,6.12003693 529.358264,6.10156971 529.690674,6.08310249 C529.672207,6.56325023 529.672207,6.85872576 529.672207,7.50507849 L529.672207,15.8522622 C529.672207,16.4432133 529.690674,16.6832872 529.746076,16.9972299 L528.471837,16.9972299 L528.471837,16.0738689 Z M539.651431,3.94090489 L540.556325,2.94367498 C542.532318,4.19944598 543.677285,5.1043398 545.006925,6.41551247 L544.04663,7.56048015 C542.71699,6.12003693 541.258079,4.91966759 539.651431,3.94090489 Z M539.780702,15.9445983 L539.374423,14.3933518 C540.814866,14.3379501 543.030933,13.7654663 544.748384,12.9713758 C548.312558,11.3831948 550.787165,8.66851339 552.28301,4.7534626 C552.707756,5.32594645 552.892428,5.49215143 553.409511,5.84302862 C551.932133,9.05632502 550.214681,11.2169898 547.777008,12.8975069 C545.874885,14.1902124 543.972761,14.9473684 540.888735,15.6491228 C540.39012,15.7599261 540.242382,15.7968606 539.780702,15.9445983 Z"></path>
        </g>
    </g>
</svg>